<svg version="1.1" xmlns="http://www.w3.org/2000/svg" xmlns:xlink="http://www.w3.org/1999/xlink" stroke-linecap="round" stroke-linejoin="round" stroke-width="0" fill-rule="evenodd" clip-rule="evenodd" id="q5CP4aFqQ7d__bottom" viewBox="55880 -121920 91440 66040" width="91.44mm" height="66.04mm"><defs><style>.q5CP4aFqQ7d__fr4 {color: #666666;}
.q5CP4aFqQ7d__cu {color: #cccccc;}
.q5CP4aFqQ7d__cf {color: #cc9933;}
.q5CP4aFqQ7d__sm {color: #ff0000; opacity: 0.75;}
.q5CP4aFqQ7d__ss {color: #ffffff;}
.q5CP4aFqQ7d__sp {color: #999999;}
.q5CP4aFqQ7d__out {color: #000000;}</style><rect x="-800" y="-800" width="1600" height="1600" rx="800" ry="800" id="YjKUzo2i9_Pn_pad-10"/><circle cx="0" cy="0" r="800" id="YjKUzo2i9_Pn_pad-11"/><circle cx="0" cy="0" r="1500" id="YjKUzo2i9_Pn_pad-12"/><circle cx="0" cy="0" r="1981.2" id="YjKUzo2i9_Pn_pad-13"/><circle cx="0" cy="0" r="914.4" id="YjKUzo2i9_Pn_pad-14"/><rect x="-800" y="-800" width="1600" height="1600" rx="800" ry="800" id="TcrRXml4kyHL_pad-10"/><circle cx="0" cy="0" r="800" id="TcrRXml4kyHL_pad-11"/><circle cx="0" cy="0" r="1500" id="TcrRXml4kyHL_pad-12"/><circle cx="0" cy="0" r="1981.2" id="TcrRXml4kyHL_pad-13"/><circle cx="0" cy="0" r="914.4" id="TcrRXml4kyHL_pad-14"/><circle cx="0" cy="0" r="1600" id="TcrRXml4kyHL_pad-15"/><circle cx="0" cy="0" r="63" id="qKJw3quJd7Dv_pad-1"/><circle cx="0" cy="0" r="15.75" id="n2gLe4QioLWE_pad-1"/><circle cx="0" cy="0" r="26" id="n2gLe4QioLWE_pad-2"/><circle cx="0" cy="0" r="39.35" id="n2gLe4QioLWE_pad-3"/><circle cx="0" cy="0" r="78" id="n2gLe4QioLWE_pad-4"/><g id="q5CP4aFqQ7d__bottom_copper"><use xlink:href="#YjKUzo2i9_Pn_pad-10" x="81280" y="-63500"/><use xlink:href="#YjKUzo2i9_Pn_pad-11" x="71120" y="-63500"/><use xlink:href="#YjKUzo2i9_Pn_pad-10" x="132080" y="-63500"/><use xlink:href="#YjKUzo2i9_Pn_pad-11" x="121920" y="-63500"/><use xlink:href="#YjKUzo2i9_Pn_pad-10" x="88900" y="-104140"/><use xlink:href="#YjKUzo2i9_Pn_pad-11" x="78740" y="-104140"/><use xlink:href="#YjKUzo2i9_Pn_pad-10" x="81280" y="-68580"/><use xlink:href="#YjKUzo2i9_Pn_pad-11" x="71120" y="-68580"/><use xlink:href="#YjKUzo2i9_Pn_pad-10" x="132080" y="-68580"/><use xlink:href="#YjKUzo2i9_Pn_pad-11" x="121920" y="-68580"/><use xlink:href="#YjKUzo2i9_Pn_pad-10" x="73660" y="-88900"/><use xlink:href="#YjKUzo2i9_Pn_pad-11" x="73660" y="-99060"/><use xlink:href="#YjKUzo2i9_Pn_pad-10" x="73660" y="-104140"/><use xlink:href="#YjKUzo2i9_Pn_pad-11" x="63500" y="-104140"/><use xlink:href="#YjKUzo2i9_Pn_pad-12" x="101600" y="-63500"/><use xlink:href="#YjKUzo2i9_Pn_pad-12" x="111760" y="-63500"/><use xlink:href="#YjKUzo2i9_Pn_pad-12" x="139700" y="-91440"/><use xlink:href="#YjKUzo2i9_Pn_pad-12" x="139700" y="-101600"/><use xlink:href="#YjKUzo2i9_Pn_pad-12" x="116840" y="-114300"/><use xlink:href="#YjKUzo2i9_Pn_pad-12" x="106680" y="-114300"/><use xlink:href="#YjKUzo2i9_Pn_pad-12" x="63500" y="-93472"/><use xlink:href="#YjKUzo2i9_Pn_pad-13" x="86430.528" y="-88818.128"/><use xlink:href="#YjKUzo2i9_Pn_pad-13" x="116605.728" y="-88818.128"/><use xlink:href="#YjKUzo2i9_Pn_pad-14" x="96316.513" y="-92456"/><use xlink:href="#YjKUzo2i9_Pn_pad-14" x="99874.626" y="-94951.758"/><use xlink:href="#YjKUzo2i9_Pn_pad-14" x="104201.755" y="-94573.182"/><use xlink:href="#YjKUzo2i9_Pn_pad-14" x="107273.182" y="-91501.755"/><use xlink:href="#YjKUzo2i9_Pn_pad-14" x="107651.758" y="-87174.626"/><use xlink:href="#YjKUzo2i9_Pn_pad-14" x="105160.338" y="-83616.513"/><use xlink:href="#YjKUzo2i9_Pn_pad-14" x="100964.69" y="-82492.291"/><use xlink:href="#YjKUzo2i9_Pn_pad-14" x="97028" y="-84328"/><path d="M 105160.338 -70099.662 111760 -63500 M 105160.338 -83616.513 105160.338 -70099.662 M 111760 -63500 121920 -63500 121920 -68580 M 99874.626 -94951.758 99874.626 -98245.374 M 93980 -104140 88900 -104140 M 99874.626 -98245.374 93980 -104140 M 106680 -105050.748 99874.626 -98245.374 M 106680 -114300 106680 -105050.748 M 73660 -104140 73660 -99060 83820 -99060 88900 -104140 M 63500 -93472 63500 -104140 M 63500 -76200 71120 -68580 M 63500 -93472 63500 -76200 M 71120 -68580 71120 -63500 M 95300.513 -93472 96316.513 -92456 M 63500 -93472 95300.513 -93472 M 63500 -106680 63500 -104140 M 66040 -109220 63500 -106680 M 78740 -106680 76200 -109220 66040 -109220 M 78740 -104140 78740 -106680 M 73660 -76200 81280 -68580 M 73660 -88900 73660 -76200 M 81280 -68580 81280 -63500 101600 -63500 M 101600 -81856.981 100964.69 -82492.291 M 101600 -63500 101600 -81856.981 M 107651.758 -87174.626 121166.384 -73660 127000 -73660 M 132080 -68580 132080 -63500 M 127000 -73660 132080 -68580 M 132080 -83820 139700 -91440 M 132080 -68580 132080 -83820 M 104201.755 -94573.182 104201.755 -96581.755 M 116840 -109220 116840 -114300 M 104201.755 -96581.755 116840 -109220 M 117371.427 -101600 107273.182 -91501.755 M 139700 -101600 117371.427 -101600" fill="none" stroke-width="1270"/></g><g id="q5CP4aFqQ7d__bottom_soldermask"><use xlink:href="#TcrRXml4kyHL_pad-10" x="81280" y="-63500"/><use xlink:href="#TcrRXml4kyHL_pad-11" x="71120" y="-63500"/><use xlink:href="#TcrRXml4kyHL_pad-10" x="132080" y="-63500"/><use xlink:href="#TcrRXml4kyHL_pad-11" x="121920" y="-63500"/><use xlink:href="#TcrRXml4kyHL_pad-10" x="88900" y="-104140"/><use xlink:href="#TcrRXml4kyHL_pad-11" x="78740" y="-104140"/><use xlink:href="#TcrRXml4kyHL_pad-10" x="81280" y="-68580"/><use xlink:href="#TcrRXml4kyHL_pad-11" x="71120" y="-68580"/><use xlink:href="#TcrRXml4kyHL_pad-10" x="132080" y="-68580"/><use xlink:href="#TcrRXml4kyHL_pad-11" x="121920" y="-68580"/><use xlink:href="#TcrRXml4kyHL_pad-10" x="73660" y="-88900"/><use xlink:href="#TcrRXml4kyHL_pad-11" x="73660" y="-99060"/><use xlink:href="#TcrRXml4kyHL_pad-10" x="73660" y="-104140"/><use xlink:href="#TcrRXml4kyHL_pad-11" x="63500" y="-104140"/><use xlink:href="#TcrRXml4kyHL_pad-12" x="101600" y="-63500"/><use xlink:href="#TcrRXml4kyHL_pad-12" x="111760" y="-63500"/><use xlink:href="#TcrRXml4kyHL_pad-12" x="139700" y="-91440"/><use xlink:href="#TcrRXml4kyHL_pad-12" x="139700" y="-101600"/><use xlink:href="#TcrRXml4kyHL_pad-12" x="116840" y="-114300"/><use xlink:href="#TcrRXml4kyHL_pad-12" x="106680" y="-114300"/><use xlink:href="#TcrRXml4kyHL_pad-12" x="63500" y="-93472"/><use xlink:href="#TcrRXml4kyHL_pad-13" x="86430.528" y="-88818.128"/><use xlink:href="#TcrRXml4kyHL_pad-13" x="116605.728" y="-88818.128"/><use xlink:href="#TcrRXml4kyHL_pad-14" x="96316.513" y="-92456"/><use xlink:href="#TcrRXml4kyHL_pad-14" x="99874.626" y="-94951.758"/><use xlink:href="#TcrRXml4kyHL_pad-14" x="104201.755" y="-94573.182"/><use xlink:href="#TcrRXml4kyHL_pad-14" x="107273.182" y="-91501.755"/><use xlink:href="#TcrRXml4kyHL_pad-14" x="107651.758" y="-87174.626"/><use xlink:href="#TcrRXml4kyHL_pad-14" x="105160.338" y="-83616.513"/><use xlink:href="#TcrRXml4kyHL_pad-14" x="100964.69" y="-82492.291"/><use xlink:href="#TcrRXml4kyHL_pad-14" x="97028" y="-84328"/><use xlink:href="#TcrRXml4kyHL_pad-15" x="63500" y="-114300"/><use xlink:href="#TcrRXml4kyHL_pad-15" x="139700" y="-114300"/><use xlink:href="#TcrRXml4kyHL_pad-15" x="63500" y="-63500"/><use xlink:href="#TcrRXml4kyHL_pad-15" x="139700" y="-63500"/></g><g id="q5CP4aFqQ7d__bottom_silkscreen"><path d="M 88972.571 -116791.619 88972.571 -115775.619 M 88537.142 -116791.619 88537.142 -116259.428 88585.523 -116162.666 88682.285 -116114.285 88827.428 -116114.285 88924.19 -116162.666 88972.571 -116211.047 M 88198.476 -116114.285 87811.428 -116114.285 M 88053.333 -115775.619 88053.333 -116646.476 88004.952 -116743.238 87908.19 -116791.619 87811.428 -116791.619 M 87617.904 -116114.285 87230.857 -116114.285 M 87472.761 -115775.619 87472.761 -116646.476 87424.38 -116743.238 87327.619 -116791.619 87230.857 -116791.619 M 86892.19 -116114.285 86892.19 -117130.285 M 86892.19 -116162.666 86795.428 -116114.285 86601.904 -116114.285 86505.142 -116162.666 86456.761 -116211.047 86408.38 -116307.809 86408.38 -116598.095 86456.761 -116694.857 86505.142 -116743.238 86601.904 -116791.619 86795.428 -116791.619 86892.19 -116743.238 M 86021.333 -116743.238 85924.571 -116791.619 85731.047 -116791.619 85634.285 -116743.238 85585.904 -116646.476 85585.904 -116598.095 85634.285 -116501.333 85731.047 -116452.952 85876.19 -116452.952 85972.952 -116404.571 86021.333 -116307.809 86021.333 -116259.428 85972.952 -116162.666 85876.19 -116114.285 85731.047 -116114.285 85634.285 -116162.666 M 85150.476 -116694.857 85102.095 -116743.238 85150.476 -116791.619 85198.857 -116743.238 85150.476 -116694.857 85150.476 -116791.619 M 85150.476 -116162.666 85102.095 -116211.047 85150.476 -116259.428 85198.857 -116211.047 85150.476 -116162.666 85150.476 -116259.428 M 83940.952 -115727.238 84811.809 -117033.523 M 82876.571 -115727.238 83747.428 -117033.523 M 82102.476 -116114.285 82102.476 -116936.761 82150.857 -117033.523 82199.238 -117081.904 82296 -117130.285 82441.142 -117130.285 82537.904 -117081.904 M 82102.476 -116743.238 82199.238 -116791.619 82392.761 -116791.619 82489.523 -116743.238 82537.904 -116694.857 82586.285 -116598.095 82586.285 -116307.809 82537.904 -116211.047 82489.523 -116162.666 82392.761 -116114.285 82199.238 -116114.285 82102.476 -116162.666 M 81618.666 -116791.619 81618.666 -116114.285 M 81618.666 -115775.619 81667.047 -115824 81618.666 -115872.38 81570.285 -115824 81618.666 -115775.619 81618.666 -115872.38 M 81280 -116114.285 80892.952 -116114.285 M 81134.857 -115775.619 81134.857 -116646.476 81086.476 -116743.238 80989.714 -116791.619 80892.952 -116791.619 M 80554.285 -116791.619 80554.285 -115775.619 M 80118.857 -116791.619 80118.857 -116259.428 80167.238 -116162.666 80264 -116114.285 80409.142 -116114.285 80505.904 -116162.666 80554.285 -116211.047 M 79199.619 -116114.285 79199.619 -116791.619 M 79635.047 -116114.285 79635.047 -116646.476 79586.666 -116743.238 79489.904 -116791.619 79344.761 -116791.619 79248 -116743.238 79199.619 -116694.857 M 78715.809 -116791.619 78715.809 -115775.619 M 78715.809 -116162.666 78619.047 -116114.285 78425.523 -116114.285 78328.761 -116162.666 78280.38 -116211.047 78232 -116307.809 78232 -116598.095 78280.38 -116694.857 78328.761 -116743.238 78425.523 -116791.619 78619.047 -116791.619 78715.809 -116743.238 M 77796.571 -116694.857 77748.19 -116743.238 77796.571 -116791.619 77844.952 -116743.238 77796.571 -116694.857 77796.571 -116791.619 M 76877.333 -116743.238 76974.095 -116791.619 77167.619 -116791.619 77264.38 -116743.238 77312.761 -116694.857 77361.142 -116598.095 77361.142 -116307.809 77312.761 -116211.047 77264.38 -116162.666 77167.619 -116114.285 76974.095 -116114.285 76877.333 -116162.666 M 76296.761 -116791.619 76393.523 -116743.238 76441.904 -116694.857 76490.285 -116598.095 76490.285 -116307.809 76441.904 -116211.047 76393.523 -116162.666 76296.761 -116114.285 76151.619 -116114.285 76054.857 -116162.666 76006.476 -116211.047 75958.095 -116307.809 75958.095 -116598.095 76006.476 -116694.857 76054.857 -116743.238 76151.619 -116791.619 76296.761 -116791.619 M 75522.666 -116791.619 75522.666 -116114.285 M 75522.666 -116211.047 75474.285 -116162.666 75377.523 -116114.285 75232.38 -116114.285 75135.619 -116162.666 75087.238 -116259.428 75087.238 -116791.619 M 75087.238 -116259.428 75038.857 -116162.666 74942.095 -116114.285 74796.952 -116114.285 74700.19 -116162.666 74651.809 -116259.428 74651.809 -116791.619 M 73442.285 -115727.238 74313.142 -117033.523 M 91391.619 -117892.285 91391.619 -118569.619 M 91827.047 -117892.285 91827.047 -118424.476 91778.666 -118521.238 91681.904 -118569.619 91536.761 -118569.619 91440 -118521.238 91391.619 -118472.857 M 91004.571 -117892.285 90811.047 -118569.619 90617.523 -118085.809 90424 -118569.619 90230.476 -117892.285 M 89843.428 -118182.571 89069.333 -118182.571 M 88585.523 -118569.619 88585.523 -117892.285 M 88585.523 -117989.047 88537.142 -117940.666 88440.38 -117892.285 88295.238 -117892.285 88198.476 -117940.666 88150.095 -118037.428 88150.095 -118569.619 M 88150.095 -118037.428 88101.714 -117940.666 88004.952 -117892.285 87859.809 -117892.285 87763.047 -117940.666 87714.666 -118037.428 87714.666 -118569.619 M 86795.428 -118569.619 86795.428 -118037.428 86843.809 -117940.666 86940.571 -117892.285 87134.095 -117892.285 87230.857 -117940.666 M 86795.428 -118521.238 86892.19 -118569.619 87134.095 -118569.619 87230.857 -118521.238 87279.238 -118424.476 87279.238 -118327.714 87230.857 -118230.952 87134.095 -118182.571 86892.19 -118182.571 86795.428 -118134.19 M 85876.19 -118569.619 85876.19 -117553.619 M 85876.19 -118521.238 85972.952 -118569.619 86166.476 -118569.619 86263.238 -118521.238 86311.619 -118472.857 86360 -118376.095 86360 -118085.809 86311.619 -117989.047 86263.238 -117940.666 86166.476 -117892.285 85972.952 -117892.285 85876.19 -117940.666 M 85392.38 -118569.619 85392.38 -117892.285 M 85392.38 -117553.619 85440.761 -117602 85392.38 -117650.38 85344 -117602 85392.38 -117553.619 85392.38 -117650.38 M 84956.952 -118521.238 84860.19 -118569.619 84666.666 -118569.619 84569.904 -118521.238 84521.523 -118424.476 84521.523 -118376.095 84569.904 -118279.333 84666.666 -118230.952 84811.809 -118230.952 84908.571 -118182.571 84956.952 -118085.809 84956.952 -118037.428 84908.571 -117940.666 84811.809 -117892.285 84666.666 -117892.285 84569.904 -117940.666 M 83940.952 -118569.619 84037.714 -118521.238 84086.095 -118472.857 84134.476 -118376.095 84134.476 -118085.809 84086.095 -117989.047 84037.714 -117940.666 83940.952 -117892.285 83795.809 -117892.285 83699.047 -117940.666 83650.666 -117989.047 83602.285 -118085.809 83602.285 -118376.095 83650.666 -118472.857 83699.047 -118521.238 83795.809 -118569.619 83940.952 -118569.619 M 83166.857 -117892.285 83166.857 -118569.619 M 83166.857 -117989.047 83118.476 -117940.666 83021.714 -117892.285 82876.571 -117892.285 82779.809 -117940.666 82731.428 -118037.428 82731.428 -118569.619 M 82247.619 -118182.571 81473.523 -118182.571 M 80554.285 -118521.238 80651.047 -118569.619 80844.571 -118569.619 80941.333 -118521.238 80989.714 -118472.857 81038.095 -118376.095 81038.095 -118085.809 80989.714 -117989.047 80941.333 -117940.666 80844.571 -117892.285 80651.047 -117892.285 80554.285 -117940.666 M 80118.857 -118569.619 80118.857 -117553.619 M 79683.428 -118569.619 79683.428 -118037.428 79731.809 -117940.666 79828.571 -117892.285 79973.714 -117892.285 80070.476 -117940.666 80118.857 -117989.047 M 78812.571 -118521.238 78909.333 -118569.619 79102.857 -118569.619 79199.619 -118521.238 79248 -118424.476 79248 -118037.428 79199.619 -117940.666 79102.857 -117892.285 78909.333 -117892.285 78812.571 -117940.666 78764.19 -118037.428 78764.19 -118134.19 79248 -118230.952 M 78328.761 -118569.619 78328.761 -117892.285 M 78328.761 -117989.047 78280.38 -117940.666 78183.619 -117892.285 78038.476 -117892.285 77941.714 -117940.666 77893.333 -118037.428 77893.333 -118569.619 M 77893.333 -118037.428 77844.952 -117940.666 77748.19 -117892.285 77603.047 -117892.285 77506.285 -117940.666 77457.904 -118037.428 77457.904 -118569.619 M 76974.095 -118182.571 76200 -118182.571 M 75764.571 -118521.238 75667.809 -118569.619 75474.285 -118569.619 75377.523 -118521.238 75329.142 -118424.476 75329.142 -118376.095 75377.523 -118279.333 75474.285 -118230.952 75619.428 -118230.952 75716.19 -118182.571 75764.571 -118085.809 75764.571 -118037.428 75716.19 -117940.666 75619.428 -117892.285 75474.285 -117892.285 75377.523 -117940.666 M 74893.714 -118569.619 74893.714 -117553.619 M 74458.285 -118569.619 74458.285 -118037.428 74506.666 -117940.666 74603.428 -117892.285 74748.571 -117892.285 74845.333 -117940.666 74893.714 -117989.047 M 73829.333 -118569.619 73926.095 -118521.238 73974.476 -118472.857 74022.857 -118376.095 74022.857 -118085.809 73974.476 -117989.047 73926.095 -117940.666 73829.333 -117892.285 73684.19 -117892.285 73587.428 -117940.666 73539.047 -117989.047 73490.666 -118085.809 73490.666 -118376.095 73539.047 -118472.857 73587.428 -118521.238 73684.19 -118569.619 73829.333 -118569.619 M 73055.238 -117892.285 73055.238 -118908.285 M 73055.238 -117940.666 72958.476 -117892.285 72764.952 -117892.285 72668.19 -117940.666 72619.809 -117989.047 72571.428 -118085.809 72571.428 -118376.095 72619.809 -118472.857 72668.19 -118521.238 72764.952 -118569.619 72958.476 -118569.619 73055.238 -118521.238 M 72184.38 -118521.238 72087.619 -118569.619 71894.095 -118569.619 71797.333 -118521.238 71748.952 -118424.476 71748.952 -118376.095 71797.333 -118279.333 71894.095 -118230.952 72039.238 -118230.952 72136 -118182.571 72184.38 -118085.809 72184.38 -118037.428 72136 -117940.666 72039.238 -117892.285 71894.095 -117892.285 71797.333 -117940.666 M 70587.809 -117505.238 71458.666 -118811.523 M 89746.666 -119670.285 89359.619 -119670.285 M 89601.523 -119331.619 89601.523 -120202.476 89553.142 -120299.238 89456.38 -120347.619 89359.619 -120347.619 M 88875.809 -120347.619 88972.571 -120299.238 89020.952 -120250.857 89069.333 -120154.095 89069.333 -119863.809 89020.952 -119767.047 88972.571 -119718.666 88875.809 -119670.285 88730.666 -119670.285 88633.904 -119718.666 88585.523 -119767.047 88537.142 -119863.809 88537.142 -120154.095 88585.523 -120250.857 88633.904 -120299.238 88730.666 -120347.619 88875.809 -120347.619 M 88198.476 -119331.619 87569.523 -119331.619 87908.19 -119718.666 87763.047 -119718.666 87666.285 -119767.047 87617.904 -119815.428 87569.523 -119912.19 87569.523 -120154.095 87617.904 -120250.857 87666.285 -120299.238 87763.047 -120347.619 88053.333 -120347.619 88150.095 -120299.238 88198.476 -120250.857 M 87134.095 -119960.571 86360 -119960.571 M 85731.047 -120347.619 85827.809 -120299.238 85876.19 -120250.857 85924.571 -120154.095 85924.571 -119863.809 85876.19 -119767.047 85827.809 -119718.666 85731.047 -119670.285 85585.904 -119670.285 85489.142 -119718.666 85440.761 -119767.047 85392.38 -119863.809 85392.38 -120154.095 85440.761 -120250.857 85489.142 -120299.238 85585.904 -120347.619 85731.047 -120347.619 M 84956.952 -119670.285 84956.952 -120686.285 M 84956.952 -119718.666 84860.19 -119670.285 84666.666 -119670.285 84569.904 -119718.666 84521.523 -119767.047 84473.142 -119863.809 84473.142 -120154.095 84521.523 -120250.857 84569.904 -120299.238 84666.666 -120347.619 84860.19 -120347.619 84956.952 -120299.238 M 83602.285 -120347.619 83602.285 -119815.428 83650.666 -119718.666 83747.428 -119670.285 83940.952 -119670.285 84037.714 -119718.666 M 83602.285 -120299.238 83699.047 -120347.619 83940.952 -120347.619 84037.714 -120299.238 84086.095 -120202.476 84086.095 -120105.714 84037.714 -120008.952 83940.952 -119960.571 83699.047 -119960.571 83602.285 -119912.19 M 83118.476 -120347.619 83118.476 -119670.285 M 83118.476 -119767.047 83070.095 -119718.666 82973.333 -119670.285 82828.19 -119670.285 82731.428 -119718.666 82683.047 -119815.428 82683.047 -120347.619 M 82683.047 -119815.428 82634.666 -119718.666 82537.904 -119670.285 82392.761 -119670.285 82296 -119718.666 82247.619 -119815.428 82247.619 -120347.619 M 81763.809 -119670.285 81763.809 -120686.285 M 81763.809 -119718.666 81667.047 -119670.285 81473.523 -119670.285 81376.761 -119718.666 81328.38 -119767.047 81280 -119863.809 81280 -120154.095 81328.38 -120250.857 81376.761 -120299.238 81473.523 -120347.619 81667.047 -120347.619 81763.809 -120299.238 M 80844.571 -119960.571 80070.476 -119960.571 M 79586.666 -119670.285 79586.666 -120686.285 M 79586.666 -119718.666 79489.904 -119670.285 79296.38 -119670.285 79199.619 -119718.666 79151.238 -119767.047 79102.857 -119863.809 79102.857 -120154.095 79151.238 -120250.857 79199.619 -120299.238 79296.38 -120347.619 79489.904 -120347.619 79586.666 -120299.238 M 78667.428 -120347.619 78667.428 -119670.285 M 78667.428 -119863.809 78619.047 -119767.047 78570.666 -119718.666 78473.904 -119670.285 78377.142 -119670.285 M 77893.333 -120347.619 77990.095 -120299.238 78038.476 -120250.857 78086.857 -120154.095 78086.857 -119863.809 78038.476 -119767.047 77990.095 -119718.666 77893.333 -119670.285 77748.19 -119670.285 77651.428 -119718.666 77603.047 -119767.047 77554.666 -119863.809 77554.666 -120154.095 77603.047 -120250.857 77651.428 -120299.238 77748.19 -120347.619 77893.333 -120347.619 M 77264.38 -119670.285 76877.333 -119670.285 M 77119.238 -119331.619 77119.238 -120202.476 77070.857 -120299.238 76974.095 -120347.619 76877.333 -120347.619 M 76393.523 -120347.619 76490.285 -120299.238 76538.666 -120250.857 76587.047 -120154.095 76587.047 -119863.809 76538.666 -119767.047 76490.285 -119718.666 76393.523 -119670.285 76248.38 -119670.285 76151.619 -119718.666 76103.238 -119767.047 76054.857 -119863.809 76054.857 -120154.095 76103.238 -120250.857 76151.619 -120299.238 76248.38 -120347.619 76393.523 -120347.619 M 75764.571 -119670.285 75377.523 -119670.285 M 75619.428 -119331.619 75619.428 -120202.476 75571.047 -120299.238 75474.285 -120347.619 75377.523 -120347.619 M 75135.619 -119670.285 74893.714 -120347.619 M 74651.809 -119670.285 74893.714 -120347.619 74990.476 -120589.523 75038.857 -120637.904 75135.619 -120686.285 M 74264.761 -119670.285 74264.761 -120686.285 M 74264.761 -119718.666 74168 -119670.285 73974.476 -119670.285 73877.714 -119718.666 73829.333 -119767.047 73780.952 -119863.809 73780.952 -120154.095 73829.333 -120250.857 73877.714 -120299.238 73974.476 -120347.619 74168 -120347.619 74264.761 -120299.238 M 72958.476 -120299.238 73055.238 -120347.619 73248.761 -120347.619 73345.523 -120299.238 73393.904 -120202.476 73393.904 -119815.428 73345.523 -119718.666 73248.761 -119670.285 73055.238 -119670.285 72958.476 -119718.666 72910.095 -119815.428 72910.095 -119912.19 73393.904 -120008.952" fill="none" stroke-width="254"/><path d="M 137978.571 -69866.666 138026.19 -70009.523 138073.809 -70057.142 138169.047 -70104.761 138311.904 -70104.761 138407.142 -70057.142 138454.761 -70009.523 138502.38 -69914.285 138502.38 -69533.333 137502.38 -69533.333 137502.38 -69866.666 137550 -69961.904 137597.619 -70009.523 137692.857 -70057.142 137788.095 -70057.142 137883.333 -70009.523 137930.952 -69961.904 137978.571 -69866.666 137978.571 -69533.333 M 138502.38 -71009.523 138502.38 -70533.333 137502.38 -70533.333 M 138216.666 -71295.238 138216.666 -71771.428 M 138502.38 -71200 137502.38 -71533.333 138502.38 -71866.666 M 138502.38 -72200 137502.38 -72200 M 138454.761 -72628.571 138502.38 -72771.428 138502.38 -73009.523 138454.761 -73104.761 138407.142 -73152.38 138311.904 -73200 138216.666 -73200 138121.428 -73152.38 138073.809 -73104.761 138026.19 -73009.523 137978.571 -72819.047 137930.952 -72723.809 137883.333 -72676.19 137788.095 -72628.571 137692.857 -72628.571 137597.619 -72676.19 137550 -72723.809 137502.38 -72819.047 137502.38 -73057.142 137550 -73200 M 137978.571 -73628.571 137978.571 -73961.904 M 138502.38 -74104.761 138502.38 -73628.571 137502.38 -73628.571 137502.38 -74104.761 M 137502.38 -75152.38 137502.38 -75723.809 M 138502.38 -75438.095 137502.38 -75438.095 M 138502.38 -76057.142 137502.38 -76057.142 M 137978.571 -76057.142 137978.571 -76628.571 M 138502.38 -76628.571 137502.38 -76628.571 M 137502.38 -77295.238 137502.38 -77485.714 137550 -77580.952 137645.238 -77676.19 137835.714 -77723.809 138169.047 -77723.809 138359.523 -77676.19 138454.761 -77580.952 138502.38 -77485.714 138502.38 -77295.238 138454.761 -77200 138359.523 -77104.761 138169.047 -77057.142 137835.714 -77057.142 137645.238 -77104.761 137550 -77200 137502.38 -77295.238 M 138502.38 -78152.38 137502.38 -78152.38 138216.666 -78485.714 137502.38 -78819.047 138502.38 -78819.047 M 138502.38 -79295.238 137502.38 -79295.238 137502.38 -79676.19 137550 -79771.428 137597.619 -79819.047 137692.857 -79866.666 137835.714 -79866.666 137930.952 -79819.047 137978.571 -79771.428 138026.19 -79676.19 138026.19 -79295.238 M 138454.761 -80247.619 138502.38 -80390.476 138502.38 -80628.571 138454.761 -80723.809 138407.142 -80771.428 138311.904 -80819.047 138216.666 -80819.047 138121.428 -80771.428 138073.809 -80723.809 138026.19 -80628.571 137978.571 -80438.095 137930.952 -80342.857 137883.333 -80295.238 137788.095 -80247.619 137692.857 -80247.619 137597.619 -80295.238 137550 -80342.857 137502.38 -80438.095 137502.38 -80676.19 137550 -80819.047 M 137502.38 -81438.095 137502.38 -81628.571 137550 -81723.809 137645.238 -81819.047 137835.714 -81866.666 138169.047 -81866.666 138359.523 -81819.047 138454.761 -81723.809 138502.38 -81628.571 138502.38 -81438.095 138454.761 -81342.857 138359.523 -81247.619 138169.047 -81200 137835.714 -81200 137645.238 -81247.619 137550 -81342.857 137502.38 -81438.095 M 138502.38 -82295.238 137502.38 -82295.238 138502.38 -82866.666 137502.38 -82866.666 M 139152.38 -71700 139961.904 -71700 140057.142 -71747.619 140104.761 -71795.238 140152.38 -71890.476 140152.38 -72080.952 140104.761 -72176.19 140057.142 -72223.809 139961.904 -72271.428 139152.38 -72271.428 M 139152.38 -72652.38 140152.38 -72890.476 139438.095 -73080.952 140152.38 -73271.428 139152.38 -73509.523 M 140152.38 -74652.38 139152.38 -74652.38 139866.666 -74985.714 139152.38 -75319.047 140152.38 -75319.047 M 139866.666 -75747.619 139866.666 -76223.809 M 140152.38 -75652.38 139152.38 -75985.714 140152.38 -76319.047 M 140152.38 -76652.38 139152.38 -76652.38 139152.38 -76890.476 139200 -77033.333 139295.238 -77128.571 139390.476 -77176.19 139580.952 -77223.809 139723.809 -77223.809 139914.285 -77176.19 140009.523 -77128.571 140104.761 -77033.333 140152.38 -76890.476 140152.38 -76652.38 M 140152.38 -77652.38 139152.38 -77652.38 M 140104.761 -78080.952 140152.38 -78223.809 140152.38 -78461.904 140104.761 -78557.142 140057.142 -78604.761 139961.904 -78652.38 139866.666 -78652.38 139771.428 -78604.761 139723.809 -78557.142 139676.19 -78461.904 139628.571 -78271.428 139580.952 -78176.19 139533.333 -78128.571 139438.095 -78080.952 139342.857 -78080.952 139247.619 -78128.571 139200 -78176.19 139152.38 -78271.428 139152.38 -78509.523 139200 -78652.38 M 139152.38 -79271.428 139152.38 -79461.904 139200 -79557.142 139295.238 -79652.38 139485.714 -79700 139819.047 -79700 140009.523 -79652.38 140104.761 -79557.142 140152.38 -79461.904 140152.38 -79271.428 140104.761 -79176.19 140009.523 -79080.952 139819.047 -79033.333 139485.714 -79033.333 139295.238 -79080.952 139200 -79176.19 139152.38 -79271.428 M 140152.38 -80128.571 139152.38 -80128.571 140152.38 -80700 139152.38 -80700 M 141802.38 -69461.904 140802.38 -69461.904 M 141802.38 -69938.095 140802.38 -69938.095 141802.38 -70509.523 140802.38 -70509.523 M 141754.761 -70938.095 141802.38 -71080.952 141802.38 -71319.047 141754.761 -71414.285 141707.142 -71461.904 141611.904 -71509.523 141516.666 -71509.523 141421.428 -71461.904 141373.809 -71414.285 141326.19 -71319.047 141278.571 -71128.571 141230.952 -71033.333 141183.333 -70985.714 141088.095 -70938.095 140992.857 -70938.095 140897.619 -70985.714 140850 -71033.333 140802.38 -71128.571 140802.38 -71366.666 140850 -71509.523 M 140802.38 -71795.238 140802.38 -72366.666 M 141802.38 -72080.952 140802.38 -72080.952 M 141802.38 -73271.428 141326.19 -72938.095 M 141802.38 -72700 140802.38 -72700 140802.38 -73080.952 140850 -73176.19 140897.619 -73223.809 140992.857 -73271.428 141135.714 -73271.428 141230.952 -73223.809 141278.571 -73176.19 141326.19 -73080.952 141326.19 -72700 M 140802.38 -73700 141611.904 -73700 141707.142 -73747.619 141754.761 -73795.238 141802.38 -73890.476 141802.38 -74080.952 141754.761 -74176.19 141707.142 -74223.809 141611.904 -74271.428 140802.38 -74271.428 M 141802.38 -74747.619 140802.38 -74747.619 141516.666 -75080.952 140802.38 -75414.285 141802.38 -75414.285 M 141278.571 -75890.476 141278.571 -76223.809 M 141802.38 -76366.666 141802.38 -75890.476 140802.38 -75890.476 140802.38 -76366.666 M 141802.38 -76795.238 140802.38 -76795.238 141802.38 -77366.666 140802.38 -77366.666 M 140802.38 -77700 140802.38 -78271.428 M 141802.38 -77985.714 140802.38 -77985.714 M 141754.761 -79319.047 141802.38 -79461.904 141802.38 -79700 141754.761 -79795.238 141707.142 -79842.857 141611.904 -79890.476 141516.666 -79890.476 141421.428 -79842.857 141373.809 -79795.238 141326.19 -79700 141278.571 -79509.523 141230.952 -79414.285 141183.333 -79366.666 141088.095 -79319.047 140992.857 -79319.047 140897.619 -79366.666 140850 -79414.285 140802.38 -79509.523 140802.38 -79747.619 140850 -79890.476 M 141802.38 -80319.047 140802.38 -80319.047 M 141278.571 -80319.047 141278.571 -80890.476 M 141802.38 -80890.476 140802.38 -80890.476 M 140802.38 -81557.142 140802.38 -81747.619 140850 -81842.857 140945.238 -81938.095 141135.714 -81985.714 141469.047 -81985.714 141659.523 -81938.095 141754.761 -81842.857 141802.38 -81747.619 141802.38 -81557.142 141754.761 -81461.904 141659.523 -81366.666 141469.047 -81319.047 141135.714 -81319.047 140945.238 -81366.666 140850 -81461.904 140802.38 -81557.142 M 141802.38 -82414.285 140802.38 -82414.285 140802.38 -82795.238 140850 -82890.476 140897.619 -82938.095 140992.857 -82985.714 141135.714 -82985.714 141230.952 -82938.095 141278.571 -82890.476 141326.19 -82795.238 141326.19 -82414.285" fill="none" stroke-width="150"/><path d="M 84511.114 -113074.505 84436.461 -113111.727 84370.569 -113180.261 84352.423 -113205.648 84332.655 -113238.866 84319.828 -113274.945 84312.49 -113323.098 84309.187 -113392.536 84308.462 -113484.206 84311.737 -113609.83 84323.123 -113704.154 84344.959 -113774.523 84379.581 -113828.286 84429.33 -113872.788 84432.986 -113875.423 84482.015 -113902.377 84541.055 -113915.712 84616.141 -113919 84738.205 -113919 84738.256 -114037.497 84739.392 -114103.492 84746.314 -114142.202 84764.402 -114165.419 84799.038 -114184.933 84807.355 -114188.92 84846.28 -114207.603 84876.417 -114219.403 84898.826 -114220.422 84914.567 -114206.761 84924.698 -114174.522 84930.277 -114119.804 84932.365 -114038.711 84932.019 -113927.344 84930.3 -113781.802 84929.763 -113738.269 84927.828 -113588.205 84926.096 -113490.042 84738.308 -113490.042 84737.252 -113573.364 84732.562 -113627.88 84721.949 -113663.837 84703.128 -113691.482 84690.35 -113704.965 84638.11 -113744.417 84591.858 -113747.628 84544.133 -113715.049 84542.923 -113713.846 84523.506 -113688.668 84511.693 -113654.447 84505.735 -113601.748 84503.88 -113521.131 84503.846 -113503.271 84508.33 -113392.175 84522.926 -113315.161 84549.35 -113268.147 84589.317 -113247.05 84612.416 -113244.923 84667.238 -113254.9 84704.842 -113287.752 84727.477 -113347.857 84737.394 -113439.598 84738.308 -113490.042 84926.096 -113490.042 84925.778 -113472.06 84923.127 -113384.679 84919.394 -113320.905 84914.093 -113275.582 84906.742 -113243.555 84896.857 -113219.668 84883.954 -113198.764 84878.421 -113190.898 84805.031 -113116.595 84712.24 -113074.467 84604.904 -113062.722 84511.114 -113074.505"/><path d="M 84511.114 -113074.505 84436.461 -113111.727 84370.569 -113180.261 84352.423 -113205.648 84332.655 -113238.866 84319.828 -113274.945 84312.49 -113323.098 84309.187 -113392.536 84308.462 -113484.206 84311.737 -113609.83 84323.123 -113704.154 84344.959 -113774.523 84379.581 -113828.286 84429.33 -113872.788 84432.986 -113875.423 84482.015 -113902.377 84541.055 -113915.712 84616.141 -113919 84738.205 -113919 84738.256 -114037.497 84739.392 -114103.492 84746.314 -114142.202 84764.402 -114165.419 84799.038 -114184.933 84807.355 -114188.92 84846.28 -114207.603 84876.417 -114219.403 84898.826 -114220.422 84914.567 -114206.761 84924.698 -114174.522 84930.277 -114119.804 84932.365 -114038.711 84932.019 -113927.344 84930.3 -113781.802 84929.763 -113738.269 84927.828 -113588.205 84926.096 -113490.042 84738.308 -113490.042 84737.252 -113573.364 84732.562 -113627.88 84721.949 -113663.837 84703.128 -113691.482 84690.35 -113704.965 84638.11 -113744.417 84591.858 -113747.628 84544.133 -113715.049 84542.923 -113713.846 84523.506 -113688.668 84511.693 -113654.447 84505.735 -113601.748 84503.88 -113521.131 84503.846 -113503.271 84508.33 -113392.175 84522.926 -113315.161 84549.35 -113268.147 84589.317 -113247.05 84612.416 -113244.923 84667.238 -113254.9 84704.842 -113287.752 84727.477 -113347.857 84737.394 -113439.598 84738.308 -113490.042 84926.096 -113490.042 84925.778 -113472.06 84923.127 -113384.679 84919.394 -113320.905 84914.093 -113275.582 84906.742 -113243.555 84896.857 -113219.668 84883.954 -113198.764 84878.421 -113190.898 84805.031 -113116.595 84712.24 -113074.467 84604.904 -113062.722 84511.114 -113074.505" fill="none" stroke-width="10"/><path d="M 83008.336 -113085.089 82945.633 -113121.358 82902.039 -113157.358 82870.155 -113195.075 82848.19 -113241.199 82834.351 -113302.421 82826.847 -113385.431 82823.883 -113496.919 82823.539 -113577.062 82823.539 -113872.065 82989.615 -113946.515 82999.385 -113623.402 83003.421 -113502.729 83007.656 -113415.141 83012.903 -113354.65 83019.975 -113315.268 83029.689 -113291.007 83042.856 -113275.88 83047.081 -113272.606 83111.091 -113247.034 83175.792 -113257.153 83214.308 -113284 83229.975 -113303.024 83240.82 -113327.988 83247.712 -113365.834 83251.521 -113423.502 83253.117 -113507.935 83253.385 -113595.928 83253.437 -113706.323 83255.328 -113784.463 83261.655 -113837.165 83275.017 -113871.242 83298.015 -113893.511 83333.246 -113910.787 83380.303 -113928.738 83431.697 -113948.278 83425.579 -113601.485 83423.116 -113476.468 83420.233 -113384.082 83416.102 -113317.881 83409.893 -113271.42 83400.774 -113238.256 83387.917 -113211.944 83372.416 -113188.729 83297.629 -113114.569 83206.372 -113071.684 83107.117 -113061.412 83008.336 -113085.089"/><path d="M 83008.336 -113085.089 82945.633 -113121.358 82902.039 -113157.358 82870.155 -113195.075 82848.19 -113241.199 82834.351 -113302.421 82826.847 -113385.431 82823.883 -113496.919 82823.539 -113577.062 82823.539 -113872.065 82989.615 -113946.515 82999.385 -113623.402 83003.421 -113502.729 83007.656 -113415.141 83012.903 -113354.65 83019.975 -113315.268 83029.689 -113291.007 83042.856 -113275.88 83047.081 -113272.606 83111.091 -113247.034 83175.792 -113257.153 83214.308 -113284 83229.975 -113303.024 83240.82 -113327.988 83247.712 -113365.834 83251.521 -113423.502 83253.117 -113507.935 83253.385 -113595.928 83253.437 -113706.323 83255.328 -113784.463 83261.655 -113837.165 83275.017 -113871.242 83298.015 -113893.511 83333.246 -113910.787 83380.303 -113928.738 83431.697 -113948.278 83425.579 -113601.485 83423.116 -113476.468 83420.233 -113384.082 83416.102 -113317.881 83409.893 -113271.42 83400.774 -113238.256 83387.917 -113211.944 83372.416 -113188.729 83297.629 -113114.569 83206.372 -113071.684 83107.117 -113061.412 83008.336 -113085.089" fill="none" stroke-width="10"/><path d="M 85263.114 -113077.256 85171.536 -113125.409 85103.951 -113202.905 85079.943 -113252.727 85061.262 -113327.533 85051.699 -113422.052 85050.792 -113525.21 85058.079 -113625.935 85073.097 -113713.153 85095.385 -113775.791 85102.235 -113786.579 85183.368 -113867.105 85279.734 -113915.336 85384.299 -113929.45 85490.032 -113907.629 85519.457 -113894.547 85576.759 -113854.231 85627.05 -113800.775 85631.803 -113793.995 85651.122 -113761.321 85663.892 -113726.394 85671.436 -113680.414 85675.076 -113614.584 85676.135 -113520.105 85676.154 -113498.923 85676.106 -113492.182 85480.769 -113492.182 85479.632 -113581.349 85475.159 -113640.52 85465.754 -113678.741 85449.824 -113705.053 85441.692 -113713.846 85394.942 -113747.261 85349.553 -113745.737 85303.66 -113716.752 85276.288 -113685.809 85260.077 -113640.643 85250.974 -113569.42 85250.349 -113561.114 85248.796 -113432.037 85265.035 -113336.172 85298.848 -113274.107 85350.016 -113246.432 85368.28 -113244.923 85416.24 -113252.513 85449.047 -113278.808 85469.105 -113329.095 85478.822 -113408.664 85480.769 -113492.182 85676.106 -113492.182 85675.426 -113398.249 85672.371 -113327.906 85665.678 -113279.163 85654.04 -113243.288 85636.147 -113211.548 85632.192 -113205.648 85565.733 -113126.104 85493.315 -113079.929 85405.151 -113061.599 85375.213 -113060.703 85263.114 -113077.256"/><path d="M 85263.114 -113077.256 85171.536 -113125.409 85103.951 -113202.905 85079.943 -113252.727 85061.262 -113327.533 85051.699 -113422.052 85050.792 -113525.21 85058.079 -113625.935 85073.097 -113713.153 85095.385 -113775.791 85102.235 -113786.579 85183.368 -113867.105 85279.734 -113915.336 85384.299 -113929.45 85490.032 -113907.629 85519.457 -113894.547 85576.759 -113854.231 85627.05 -113800.775 85631.803 -113793.995 85651.122 -113761.321 85663.892 -113726.394 85671.436 -113680.414 85675.076 -113614.584 85676.135 -113520.105 85676.154 -113498.923 85676.106 -113492.182 85480.769 -113492.182 85479.632 -113581.349 85475.159 -113640.52 85465.754 -113678.741 85449.824 -113705.053 85441.692 -113713.846 85394.942 -113747.261 85349.553 -113745.737 85303.66 -113716.752 85276.288 -113685.809 85260.077 -113640.643 85250.974 -113569.42 85250.349 -113561.114 85248.796 -113432.037 85265.035 -113336.172 85298.848 -113274.107 85350.016 -113246.432 85368.28 -113244.923 85416.24 -113252.513 85449.047 -113278.808 85469.105 -113329.095 85478.822 -113408.664 85480.769 -113492.182 85676.106 -113492.182 85675.426 -113398.249 85672.371 -113327.906 85665.678 -113279.163 85654.04 -113243.288 85636.147 -113211.548 85632.192 -113205.648 85565.733 -113126.104 85493.315 -113079.929 85405.151 -113061.599 85375.213 -113060.703 85263.114 -113077.256" fill="none" stroke-width="10"/><path d="M 83745.746 -113089.745 83668.714 -113141.567 83609.184 -113216.412 83573.622 -113311.654 83566.429 -113381.756 83567.246 -113411.009 83574.086 -113433.407 83592.888 -113453.474 83629.592 -113475.733 83690.138 -113504.709 83780.466 -113544.927 83780.923 -113545.129 83864.067 -113583.21 83932.247 -113617.025 83978.495 -113642.933 83995.842 -113657.295 83995.846 -113657.411 83980.557 -113688.685 83944.804 -113723.157 83903.758 -113747.99 83882.963 -113752.923 83826.23 -113735.862 83777.373 -113693.133 83753.535 -113646.155 83730.603 -113611.522 83685.682 -113572.081 83632.877 -113538.009 83586.29 -113519.48 83576.548 -113518.462 83565.582 -113535.215 83564.921 -113578.039 83572.98 -113635.781 83588.173 -113697.289 83608.914 -113751.409 83609.962 -113753.51 83672.379 -113840.66 83753.274 -113899.939 83845.144 -113929.034 83940.487 -113925.634 84031.802 -113887.428 84035.862 -113884.741 84107.694 -113819.642 84154.927 -113734.705 84181.066 -113623.021 84184.574 -113591.643 84190.787 -113443.536 84183.339 -113374.468 83995.846 -113374.468 83993.41 -113417.552 83980.086 -113430.126 83946.868 -113420.719 83894.506 -113398.483 83835.976 -113370.61 83834.521 -113369.872 83784.911 -113343.777 83765 -113326.363 83769.91 -113308.107 83790.584 -113284.12 83843.181 -113249.406 83899.823 -113246.856 83950.631 -113272.119 83985.724 -113320.847 83995.846 -113374.468 84183.339 -113374.468 84178.008 -113325.036 84145.222 -113231.055 84099.579 -113165.215 84017.198 -113098.681 83926.454 -113065.676 83833.815 -113063.573 83745.746 -113089.745"/><path d="M 83745.746 -113089.745 83668.714 -113141.567 83609.184 -113216.412 83573.622 -113311.654 83566.429 -113381.756 83567.246 -113411.009 83574.086 -113433.407 83592.888 -113453.474 83629.592 -113475.733 83690.138 -113504.709 83780.466 -113544.927 83780.923 -113545.129 83864.067 -113583.21 83932.247 -113617.025 83978.495 -113642.933 83995.842 -113657.295 83995.846 -113657.411 83980.557 -113688.685 83944.804 -113723.157 83903.758 -113747.99 83882.963 -113752.923 83826.23 -113735.862 83777.373 -113693.133 83753.535 -113646.155 83730.603 -113611.522 83685.682 -113572.081 83632.877 -113538.009 83586.29 -113519.48 83576.548 -113518.462 83565.582 -113535.215 83564.921 -113578.039 83572.98 -113635.781 83588.173 -113697.289 83608.914 -113751.409 83609.962 -113753.51 83672.379 -113840.66 83753.274 -113899.939 83845.144 -113929.034 83940.487 -113925.634 84031.802 -113887.428 84035.862 -113884.741 84107.694 -113819.642 84154.927 -113734.705 84181.066 -113623.021 84184.574 -113591.643 84190.787 -113443.536 84183.339 -113374.468 83995.846 -113374.468 83993.41 -113417.552 83980.086 -113430.126 83946.868 -113420.719 83894.506 -113398.483 83835.976 -113370.61 83834.521 -113369.872 83784.911 -113343.777 83765 -113326.363 83769.91 -113308.107 83790.584 -113284.12 83843.181 -113249.406 83899.823 -113246.856 83950.631 -113272.119 83985.724 -113320.847 83995.846 -113374.468 84183.339 -113374.468 84178.008 -113325.036 84145.222 -113231.055 84099.579 -113165.215 84017.198 -113098.681 83926.454 -113065.676 83833.815 -113063.573 83745.746 -113089.745" fill="none" stroke-width="10"/><path d="M 82120.154 -112982.12 82114.428 -113061.98 82107.851 -113109.039 82098.738 -113129.566 82085.402 -113129.829 82081.077 -113127.378 82023.556 -113109.636 81948.732 -113110.672 81872.661 -113128.91 81825.082 -113152.505 81776.298 -113190.198 81740.636 -113232.855 81716.155 -113287.057 81700.913 -113359.384 81692.97 -113456.419 81690.384 -113584.742 81690.338 -113609.358 81690.308 -113885.87 81751.839 -113907.32 81795.541 -113921.912 81819.518 -113928.706 81820.223 -113928.769 81822.585 -113910.345 81824.594 -113859.526 81826.099 -113782.993 81826.947 -113687.43 81827.077 -113629.329 81827.349 -113514.771 81828.748 -113432.667 81832.151 -113376.393 81838.433 -113339.326 81848.471 -113314.844 81863.139 -113296.325 81872.298 -113287.406 81935.211 -113251.466 82003.864 -113248.775 82066.152 -113279.17 82077.671 -113290.144 82094.567 -113310.779 82106.286 -113335.256 82113.767 -113370.647 82117.946 -113424.026 82119.763 -113502.466 82120.154 -113610.617 82120.154 -113885.87 82181.685 -113907.32 82225.387 -113921.912 82249.364 -113928.706 82250.07 -113928.769 82251.874 -113910.069 82253.5 -113857.322 82254.883 -113775.557 82255.958 -113669.805 82256.66 -113545.094 82256.923 -113406.455 82256.923 -112871.806 82129.923 -112818.236 82120.154 -112982.12"/><path d="M 82120.154 -112982.12 82114.428 -113061.98 82107.851 -113109.039 82098.738 -113129.566 82085.402 -113129.829 82081.077 -113127.378 82023.556 -113109.636 81948.732 -113110.672 81872.661 -113128.91 81825.082 -113152.505 81776.298 -113190.198 81740.636 -113232.855 81716.155 -113287.057 81700.913 -113359.384 81692.97 -113456.419 81690.384 -113584.742 81690.338 -113609.358 81690.308 -113885.87 81751.839 -113907.32 81795.541 -113921.912 81819.518 -113928.706 81820.223 -113928.769 81822.585 -113910.345 81824.594 -113859.526 81826.099 -113782.993 81826.947 -113687.43 81827.077 -113629.329 81827.349 -113514.771 81828.748 -113432.667 81832.151 -113376.393 81838.433 -113339.326 81848.471 -113314.844 81863.139 -113296.325 81872.298 -113287.406 81935.211 -113251.466 82003.864 -113248.775 82066.152 -113279.17 82077.671 -113290.144 82094.567 -113310.779 82106.286 -113335.256 82113.767 -113370.647 82117.946 -113424.026 82119.763 -113502.466 82120.154 -113610.617 82120.154 -113885.87 82181.685 -113907.32 82225.387 -113921.912 82249.364 -113928.706 82250.07 -113928.769 82251.874 -113910.069 82253.5 -113857.322 82254.883 -113775.557 82255.958 -113669.805 82256.66 -113545.094 82256.923 -113406.455 82256.923 -112871.806 82129.923 -112818.236 82120.154 -112982.12" fill="none" stroke-width="10"/><path d="M 81226.499 -113116.303 81149.94 -113144.733 81149.064 -113145.279 81101.715 -113180.127 81066.759 -113220.852 81042.175 -113273.925 81025.938 -113345.814 81016.025 -113442.992 81010.414 -113571.928 81009.923 -113590.298 81002.859 -113867.287 81062.305 -113898.028 81105.319 -113918.802 81131.29 -113928.646 81132.491 -113928.769 81136.986 -113910.606 81140.556 -113861.612 81142.752 -113790.031 81143.231 -113732.068 81143.242 -113638.17 81147.534 -113579.203 81162.497 -113551.079 81194.518 -113549.706 81249.986 -113570.998 81333.731 -113610.136 81395.311 -113642.643 81426.983 -113670.845 81436.294 -113701.582 81436.308 -113703.104 81420.943 -113756.054 81375.453 -113784.66 81305.834 -113788.803 81255.687 -113788.084 81229.246 -113802.527 81212.757 -113837.218 81203.267 -113881.416 81216.943 -113906.493 81222.093 -113910.082 81270.575 -113924.496 81338.469 -113926.537 81408.388 -113916.983 81457.932 -113899.522 81526.43 -113841.364 81565.366 -113760.408 81573.077 -113697.16 81567.193 -113640.111 81545.899 -113593.542 81503.735 -113552.181 81435.241 -113510.755 81334.956 -113463.993 81328.846 -113461.35 81238.51 -113419.617 81182.765 -113385.391 81158.871 -113354.635 81164.087 -113323.311 81195.672 -113287.383 81205.117 -113279.116 81268.383 -113247.058 81333.936 -113248.407 81391.028 -113279.838 81428.907 -113338.024 81432.426 -113349.446 81466.7 -113404.837 81510.191 -113431.518 81573.077 -113457.96 81573.077 -113389.548 81553.948 -113290.11 81497.169 -113198.902 81467.622 -113168.389 81400.458 -113129.228 81315.044 -113111.5 81226.499 -113116.303"/><path d="M 81226.499 -113116.303 81149.94 -113144.733 81149.064 -113145.279 81101.715 -113180.127 81066.759 -113220.852 81042.175 -113273.925 81025.938 -113345.814 81016.025 -113442.992 81010.414 -113571.928 81009.923 -113590.298 81002.859 -113867.287 81062.305 -113898.028 81105.319 -113918.802 81131.29 -113928.646 81132.491 -113928.769 81136.986 -113910.606 81140.556 -113861.612 81142.752 -113790.031 81143.231 -113732.068 81143.242 -113638.17 81147.534 -113579.203 81162.497 -113551.079 81194.518 -113549.706 81249.986 -113570.998 81333.731 -113610.136 81395.311 -113642.643 81426.983 -113670.845 81436.294 -113701.582 81436.308 -113703.104 81420.943 -113756.054 81375.453 -113784.66 81305.834 -113788.803 81255.687 -113788.084 81229.246 -113802.527 81212.757 -113837.218 81203.267 -113881.416 81216.943 -113906.493 81222.093 -113910.082 81270.575 -113924.496 81338.469 -113926.537 81408.388 -113916.983 81457.932 -113899.522 81526.43 -113841.364 81565.366 -113760.408 81573.077 -113697.16 81567.193 -113640.111 81545.899 -113593.542 81503.735 -113552.181 81435.241 -113510.755 81334.956 -113463.993 81328.846 -113461.35 81238.51 -113419.617 81182.765 -113385.391 81158.871 -113354.635 81164.087 -113323.311 81195.672 -113287.383 81205.117 -113279.116 81268.383 -113247.058 81333.936 -113248.407 81391.028 -113279.838 81428.907 -113338.024 81432.426 -113349.446 81466.7 -113404.837 81510.191 -113431.518 81573.077 -113457.96 81573.077 -113389.548 81553.948 -113290.11 81497.169 -113198.902 81467.622 -113168.389 81400.458 -113129.228 81315.044 -113111.5 81226.499 -113116.303" fill="none" stroke-width="10"/><path d="M 80566.638 -113114.67 80477.883 -113147.421 80405.978 -113205.35 80377.856 -113246.128 80347.198 -113320.954 80347.835 -113375.058 80380.013 -113411.446 80391.919 -113417.633 80443.325 -113436.925 80469.578 -113431.982 80478.47 -113399.587 80478.923 -113381.692 80495.203 -113315.859 80537.635 -113269.807 80596.612 -113247.564 80662.525 -113253.161 80716.105 -113282.229 80734.202 -113298.81 80747.029 -113318.925 80755.694 -113349.332 80761.304 -113396.788 80764.965 -113468.05 80767.785 -113569.875 80768.516 -113602.115 80771.18 -113712.41 80774.208 -113790.036 80778.75 -113841.396 80785.954 -113872.89 80796.967 -113890.92 80812.94 -113901.888 80823.166 -113906.733 80866.594 -113923.301 80892.158 -113928.769 80900.605 -113910.507 80905.761 -113855.296 80907.654 -113762.499 80906.311 -113631.478 80905.893 -113611.269 80902.942 -113491.733 80899.452 -113404.449 80894.486 -113342.591 80887.107 -113299.336 80876.376 -113267.86 80861.355 -113241.339 80853.498 -113229.975 80808.447 -113179.692 80758.06 -113140.581 80751.892 -113137.167 80661.542 -113110.212 80566.638 -113114.67"/><path d="M 80566.638 -113114.67 80477.883 -113147.421 80405.978 -113205.35 80377.856 -113246.128 80347.198 -113320.954 80347.835 -113375.058 80380.013 -113411.446 80391.919 -113417.633 80443.325 -113436.925 80469.578 -113431.982 80478.47 -113399.587 80478.923 -113381.692 80495.203 -113315.859 80537.635 -113269.807 80596.612 -113247.564 80662.525 -113253.161 80716.105 -113282.229 80734.202 -113298.81 80747.029 -113318.925 80755.694 -113349.332 80761.304 -113396.788 80764.965 -113468.05 80767.785 -113569.875 80768.516 -113602.115 80771.18 -113712.41 80774.208 -113790.036 80778.75 -113841.396 80785.954 -113872.89 80796.967 -113890.92 80812.94 -113901.888 80823.166 -113906.733 80866.594 -113923.301 80892.158 -113928.769 80900.605 -113910.507 80905.761 -113855.296 80907.654 -113762.499 80906.311 -113631.478 80905.893 -113611.269 80902.942 -113491.733 80899.452 -113404.449 80894.486 -113342.591 80887.107 -113299.336 80876.376 -113267.86 80861.355 -113241.339 80853.498 -113229.975 80808.447 -113179.692 80758.06 -113140.581 80751.892 -113137.167 80661.542 -113110.212 80566.638 -113114.67" fill="none" stroke-width="10"/><path d="M 79677.919 -113270.289 79678.167 -113416.32 79679.128 -113528.655 79681.206 -113612.678 79684.807 -113673.769 79690.335 -113717.309 79698.196 -113748.679 79708.793 -113773.262 79716.818 -113787.294 79783.272 -113863.388 79867.53 -113911.084 79960.751 -113928.199 80054.1 -113912.546 80109.688 -113884.418 80168.043 -113835.76 80207.814 -113776.333 80231.81 -113698.507 80242.839 -113594.652 80244.401 -113518.462 80244.191 -113512.986 80107.692 -113512.986 80106.859 -113600.355 80103.039 -113658.192 80094.254 -113696.029 80078.526 -113723.398 80059.734 -113744.042 79996.625 -113783.89 79928.863 -113787.295 79864.821 -113754.025 79859.836 -113749.517 79838.561 -113726.067 79825.221 -113698.166 79817.999 -113656.641 79815.077 -113592.316 79814.615 -113521.2 79815.617 -113431.858 79819.762 -113372.258 79828.764 -113333.089 79844.333 -113305.04 79857.098 -113290.144 79916.4 -113252.575 79984.699 -113248.057 80049.89 -113276.753 80062.472 -113287.406 80083.889 -113311.063 80097.256 -113339.251 80104.434 -113381.245 80107.281 -113446.319 80107.692 -113512.986 80244.191 -113512.986 80239.678 -113395.765 80223.638 -113303.577 80193.472 -113234.269 80146.371 -113180.211 80109.688 -113152.505 80043.01 -113122.572 79965.728 -113108.678 79893.89 -113112.397 79853.692 -113127.4 79837.918 -113131.67 79827.45 -113115.75 79820.144 -113073.089 79814.615 -113008.106 79808.563 -112935.732 79800.156 -112892.187 79784.859 -112867.287 79758.136 -112850.845 79741.346 -112843.564 79677.846 -112816.963 79677.919 -113270.289"/><path d="M 79677.919 -113270.289 79678.167 -113416.32 79679.128 -113528.655 79681.206 -113612.678 79684.807 -113673.769 79690.335 -113717.309 79698.196 -113748.679 79708.793 -113773.262 79716.818 -113787.294 79783.272 -113863.388 79867.53 -113911.084 79960.751 -113928.199 80054.1 -113912.546 80109.688 -113884.418 80168.043 -113835.76 80207.814 -113776.333 80231.81 -113698.507 80242.839 -113594.652 80244.401 -113518.462 80244.191 -113512.986 80107.692 -113512.986 80106.859 -113600.355 80103.039 -113658.192 80094.254 -113696.029 80078.526 -113723.398 80059.734 -113744.042 79996.625 -113783.89 79928.863 -113787.295 79864.821 -113754.025 79859.836 -113749.517 79838.561 -113726.067 79825.221 -113698.166 79817.999 -113656.641 79815.077 -113592.316 79814.615 -113521.2 79815.617 -113431.858 79819.762 -113372.258 79828.764 -113333.089 79844.333 -113305.04 79857.098 -113290.144 79916.4 -113252.575 79984.699 -113248.057 80049.89 -113276.753 80062.472 -113287.406 80083.889 -113311.063 80097.256 -113339.251 80104.434 -113381.245 80107.281 -113446.319 80107.692 -113512.986 80244.191 -113512.986 80239.678 -113395.765 80223.638 -113303.577 80193.472 -113234.269 80146.371 -113180.211 80109.688 -113152.505 80043.01 -113122.572 79965.728 -113108.678 79893.89 -113112.397 79853.692 -113127.4 79837.918 -113131.67 79827.45 -113115.75 79820.144 -113073.089 79814.615 -113008.106 79808.563 -112935.732 79800.156 -112892.187 79784.859 -112867.287 79758.136 -112850.845 79741.346 -112843.564 79677.846 -112816.963 79677.919 -113270.289" fill="none" stroke-width="10"/><path d="M 78884.071 -113126.662 78881.089 -113178.068 78878.753 -113256.192 78877.251 -113354.857 78876.769 -113458.343 78876.769 -113808.533 78938.599 -113870.363 78981.207 -113908.462 79018.61 -113923.895 79069.73 -113922.918 79090.022 -113920.433 79153.446 -113913.2 79205.905 -113909.055 79218.692 -113908.672 79261.801 -113911.176 79323.456 -113917.462 79347.362 -113920.433 79406.078 -113925.028 79445.536 -113915.046 79484.662 -113884.228 79498.785 -113870.363 79560.615 -113808.533 79560.615 -113153.503 79510.85 -113130.829 79467.998 -113114.034 79442.927 -113108.154 79436.499 -113126.736 79430.491 -113178.655 79425.303 -113258.172 79421.336 -113359.546 79419.423 -113445.192 79414.077 -113782.231 79367.44 -113788.825 79325.024 -113784.214 79304.24 -113769.287 79298.43 -113741.377 79293.47 -113681.925 79289.754 -113598.466 79287.676 -113498.532 79287.376 -113447.104 79287.077 -113151.054 79225.546 -113129.604 79181.996 -113115.02 79158.306 -113108.219 79157.623 -113108.154 79155.246 -113126.642 79152.634 -113177.906 79150.005 -113255.649 79147.579 -113353.574 79145.885 -113445.192 79140.539 -113782.231 79023.308 -113782.231 79017.928 -113474.746 79012.549 -113167.261 78955.399 -113137.707 78913.203 -113117.413 78888.23 -113108.204 78887.509 -113108.154 78884.071 -113126.662"/><path d="M 78884.071 -113126.662 78881.089 -113178.068 78878.753 -113256.192 78877.251 -113354.857 78876.769 -113458.343 78876.769 -113808.533 78938.599 -113870.363 78981.207 -113908.462 79018.61 -113923.895 79069.73 -113922.918 79090.022 -113920.433 79153.446 -113913.2 79205.905 -113909.055 79218.692 -113908.672 79261.801 -113911.176 79323.456 -113917.462 79347.362 -113920.433 79406.078 -113925.028 79445.536 -113915.046 79484.662 -113884.228 79498.785 -113870.363 79560.615 -113808.533 79560.615 -113153.503 79510.85 -113130.829 79467.998 -113114.034 79442.927 -113108.154 79436.499 -113126.736 79430.491 -113178.655 79425.303 -113258.172 79421.336 -113359.546 79419.423 -113445.192 79414.077 -113782.231 79367.44 -113788.825 79325.024 -113784.214 79304.24 -113769.287 79298.43 -113741.377 79293.47 -113681.925 79289.754 -113598.466 79287.676 -113498.532 79287.376 -113447.104 79287.077 -113151.054 79225.546 -113129.604 79181.996 -113115.02 79158.306 -113108.219 79157.623 -113108.154 79155.246 -113126.642 79152.634 -113177.906 79150.005 -113255.649 79147.579 -113353.574 79145.885 -113445.192 79140.539 -113782.231 79023.308 -113782.231 79017.928 -113474.746 79012.549 -113167.261 78955.399 -113137.707 78913.203 -113117.413 78888.23 -113108.204 78887.509 -113108.154 78884.071 -113126.662" fill="none" stroke-width="10"/><path d="M 78392.667 -113123.528 78336.41 -113149.117 78292.253 -113180.124 78259.899 -113214.795 78237.562 -113259.52 78223.454 -113320.692 78215.789 -113404.701 78212.78 -113517.94 78212.462 -113592.509 78212.462 -113883.42 78262.227 -113906.095 78301.424 -113922.667 78320.843 -113928.769 78324.558 -113910.61 78327.505 -113861.648 78329.309 -113790.153 78329.692 -113733.385 78331.339 -113651.371 78335.778 -113586.309 78342.26 -113546.467 78347.41 -113538 78382.023 -113546.646 78436.36 -113568.823 78499.278 -113598.886 78559.632 -113631.192 78606.279 -113660.098 78628.074 -113679.961 78628.161 -113680.175 78626.286 -113716.935 78609.475 -113752.026 78579.961 -113780.528 78536.884 -113790.061 78500.068 -113788.95 78447.926 -113788.133 78420.556 -113800.349 78404.118 -113832.624 78402.045 -113838.71 78394.919 -113884.739 78413.976 -113912.687 78463.647 -113926.007 78517.303 -113928.47 78613.858 -113910.21 78663.841 -113884.131 78725.571 -113822.868 78758.31 -113747.67 78761.247 -113668.211 78733.576 -113594.167 78691.953 -113547.769 78650.396 -113521.793 78585.078 -113488.907 78508.962 -113455.557 78496.274 -113450.461 78412.667 -113413.565 78364.47 -113381.046 78348.97 -113348.718 78363.45 -113312.394 78388.308 -113284 78447.061 -113249.039 78511.707 -113246.417 78570.992 -113273.358 78613.661 -113327.088 78619.261 -113340.95 78651.867 -113391.936 78699.47 -113429.787 78759.539 -113460.85 78759.539 -113372.768 78756.003 -113318.951 78740.844 -113276.534 78707.232 -113231.279 78674.965 -113196.42 78624.791 -113147.062 78585.807 -113120.547 78543.936 -113109.911 78496.54 -113108.154 78392.667 -113123.528"/><path d="M 78392.667 -113123.528 78336.41 -113149.117 78292.253 -113180.124 78259.899 -113214.795 78237.562 -113259.52 78223.454 -113320.692 78215.789 -113404.701 78212.78 -113517.94 78212.462 -113592.509 78212.462 -113883.42 78262.227 -113906.095 78301.424 -113922.667 78320.843 -113928.769 78324.558 -113910.61 78327.505 -113861.648 78329.309 -113790.153 78329.692 -113733.385 78331.339 -113651.371 78335.778 -113586.309 78342.26 -113546.467 78347.41 -113538 78382.023 -113546.646 78436.36 -113568.823 78499.278 -113598.886 78559.632 -113631.192 78606.279 -113660.098 78628.074 -113679.961 78628.161 -113680.175 78626.286 -113716.935 78609.475 -113752.026 78579.961 -113780.528 78536.884 -113790.061 78500.068 -113788.95 78447.926 -113788.133 78420.556 -113800.349 78404.118 -113832.624 78402.045 -113838.71 78394.919 -113884.739 78413.976 -113912.687 78463.647 -113926.007 78517.303 -113928.47 78613.858 -113910.21 78663.841 -113884.131 78725.571 -113822.868 78758.31 -113747.67 78761.247 -113668.211 78733.576 -113594.167 78691.953 -113547.769 78650.396 -113521.793 78585.078 -113488.907 78508.962 -113455.557 78496.274 -113450.461 78412.667 -113413.565 78364.47 -113381.046 78348.97 -113348.718 78363.45 -113312.394 78388.308 -113284 78447.061 -113249.039 78511.707 -113246.417 78570.992 -113273.358 78613.661 -113327.088 78619.261 -113340.95 78651.867 -113391.936 78699.47 -113429.787 78759.539 -113460.85 78759.539 -113372.768 78756.003 -113318.951 78740.844 -113276.534 78707.232 -113231.279 78674.965 -113196.42 78624.791 -113147.062 78585.807 -113120.547 78543.936 -113109.911 78496.54 -113108.154 78392.667 -113123.528" fill="none" stroke-width="10"/><path d="M 77709.193 -113126.782 77685.839 -113136.988 77630.098 -113181.134 77582.431 -113244.967 77552.952 -113313.087 77548.154 -113346.67 77564.24 -113393.556 77599.525 -113418.365 77637.356 -113433.387 77654.679 -113436.155 77663.114 -113416.066 77679.77 -113372.351 77687.077 -113352.598 77728.052 -113284.271 77787.378 -113250.191 77863.448 -113251.239 77869.082 -113252.581 77909.695 -113271.836 77939.552 -113309.375 77959.945 -113369.809 77972.164 -113457.751 77977.5 -113577.813 77978 -113641.698 77978.248 -113742.403 77979.874 -113811.054 77984.199 -113854.673 77992.546 -113880.282 78006.235 -113894.903 78026.589 -113905.558 78027.766 -113906.095 78066.962 -113922.667 78086.381 -113928.769 78089.365 -113910.319 78091.919 -113859.323 78093.86 -113782.308 78095.003 -113685.805 78095.231 -113615.184 78094.068 -113478.525 78089.521 -113374.851 78080.001 -113298.108 78063.919 -113242.246 78039.687 -113201.212 78005.714 -113168.954 77972.167 -113146.44 77891.501 -113116.476 77797.619 -113109.718 77709.193 -113126.782"/><path d="M 77709.193 -113126.782 77685.839 -113136.988 77630.098 -113181.134 77582.431 -113244.967 77552.952 -113313.087 77548.154 -113346.67 77564.24 -113393.556 77599.525 -113418.365 77637.356 -113433.387 77654.679 -113436.155 77663.114 -113416.066 77679.77 -113372.351 77687.077 -113352.598 77728.052 -113284.271 77787.378 -113250.191 77863.448 -113251.239 77869.082 -113252.581 77909.695 -113271.836 77939.552 -113309.375 77959.945 -113369.809 77972.164 -113457.751 77977.5 -113577.813 77978 -113641.698 77978.248 -113742.403 77979.874 -113811.054 77984.199 -113854.673 77992.546 -113880.282 78006.235 -113894.903 78026.589 -113905.558 78027.766 -113906.095 78066.962 -113922.667 78086.381 -113928.769 78089.365 -113910.319 78091.919 -113859.323 78093.86 -113782.308 78095.003 -113685.805 78095.231 -113615.184 78094.068 -113478.525 78089.521 -113374.851 78080.001 -113298.108 78063.919 -113242.246 78039.687 -113201.212 78005.714 -113168.954 77972.167 -113146.44 77891.501 -113116.476 77797.619 -113109.718 77709.193 -113126.782" fill="none" stroke-width="10"/><path d="M 77034.776 -113137.838 76957.472 -113188.361 76920.186 -113233.59 76890.647 -113315.663 76888.301 -113380.607 76893.615 -113467.445 77093.885 -113555.103 77191.261 -113599.887 77254.887 -113635.913 77287.971 -113667.117 77293.72 -113697.436 77275.342 -113730.805 77255.077 -113752.923 77196.111 -113788.393 77131.976 -113790.879 77073.074 -113763.235 77029.803 -113708.32 77022.064 -113688.928 76984.994 -113628.364 76942.346 -113602.552 76883.846 -113580.471 76883.846 -113664.184 76889.018 -113721.15 76909.277 -113769.189 76951.738 -113824.346 76958.049 -113831.514 77005.28 -113880.585 77045.879 -113906.92 77096.672 -113919.035 77138.78 -113923.003 77214.098 -113923.991 77267.714 -113911.466 77301.162 -113892.869 77353.732 -113851.975 77390.121 -113807.748 77413.15 -113752.126 77425.641 -113677.047 77430.413 -113574.449 77430.794 -113522.376 77429.499 -113459.948 77311.529 -113459.948 77310.161 -113493.438 77306.751 -113498.923 77284.247 -113491.472 77235.818 -113471.753 77171.092 -113443.718 77157.557 -113437.692 77075.756 -113396.096 77030.688 -113359.538 77020.783 -113325.296 77044.474 -113290.648 77064.04 -113275.339 77134.64 -113244.721 77200.72 -113249.78 77256.041 -113287.151 77294.364 -113353.473 77306.651 -113406.116 77311.529 -113459.948 77429.499 -113459.948 77428.27 -113400.72 77418.968 -113310.71 77400.54 -113245.167 77370.64 -113196.912 77326.92 -113158.767 77307.859 -113146.44 77221.274 -113114.336 77126.478 -113112.316 77034.776 -113137.838"/><path d="M 77034.776 -113137.838 76957.472 -113188.361 76920.186 -113233.59 76890.647 -113315.663 76888.301 -113380.607 76893.615 -113467.445 77093.885 -113555.103 77191.261 -113599.887 77254.887 -113635.913 77287.971 -113667.117 77293.72 -113697.436 77275.342 -113730.805 77255.077 -113752.923 77196.111 -113788.393 77131.976 -113790.879 77073.074 -113763.235 77029.803 -113708.32 77022.064 -113688.928 76984.994 -113628.364 76942.346 -113602.552 76883.846 -113580.471 76883.846 -113664.184 76889.018 -113721.15 76909.277 -113769.189 76951.738 -113824.346 76958.049 -113831.514 77005.28 -113880.585 77045.879 -113906.92 77096.672 -113919.035 77138.78 -113923.003 77214.098 -113923.991 77267.714 -113911.466 77301.162 -113892.869 77353.732 -113851.975 77390.121 -113807.748 77413.15 -113752.126 77425.641 -113677.047 77430.413 -113574.449 77430.794 -113522.376 77429.499 -113459.948 77311.529 -113459.948 77310.161 -113493.438 77306.751 -113498.923 77284.247 -113491.472 77235.818 -113471.753 77171.092 -113443.718 77157.557 -113437.692 77075.756 -113396.096 77030.688 -113359.538 77020.783 -113325.296 77044.474 -113290.648 77064.04 -113275.339 77134.64 -113244.721 77200.72 -113249.78 77256.041 -113287.151 77294.364 -113353.473 77306.651 -113406.116 77311.529 -113459.948 77429.499 -113459.948 77428.27 -113400.72 77418.968 -113310.71 77400.54 -113245.167 77370.64 -113196.912 77326.92 -113158.767 77307.859 -113146.44 77221.274 -113114.336 77126.478 -113112.316 77034.776 -113137.838" fill="none" stroke-width="10"/><path d="M 81140.122 -106777.776 81034.388 -106778.355 80957.868 -106779.922 80905.628 -106782.972 80872.737 -106787.996 80854.263 -106795.489 80845.273 -106805.944 80840.837 -106819.853 80840.406 -106821.654 80833.667 -106854.145 80821.192 -106918.252 80804.281 -107007.151 80784.229 -107114.019 80762.336 -107232.033 80761.571 -107236.178 80739.641 -107351.831 80719.123 -107454.014 80701.341 -107536.598 80687.619 -107593.456 80679.282 -107618.458 80678.884 -107618.901 80654.323 -107631.11 80603.685 -107651.456 80537.905 -107675.545 80537.539 -107675.674 80454.683 -107706.818 80357 -107746.491 80264.923 -107786.381 80260.566 -107788.353 80110.593 -107856.42 79778.502 -107629.639 79676.626 -107560.504 79584.343 -107498.697 79506.997 -107447.733 79449.936 -107411.127 79418.505 -107392.394 79415.521 -107391.004 79392.679 -107397.19 79350.018 -107427.035 79285.872 -107481.947 79198.579 -107563.334 79109.465 -107649.922 79023.559 -107735.247 78946.673 -107813.108 78883.436 -107878.697 78838.477 -107927.205 78816.424 -107953.825 78815.604 -107955.195 78813.166 -107973.463 78822.35 -108003.295 78845.426 -108048.721 78884.663 -108113.77 78942.33 -108202.47 79019.205 -108316.657 79087.43 -108417.162 79148.418 -108507.303 79198.644 -108581.849 79234.584 -108635.565 79252.713 -108663.218 79253.854 -108665.095 79251.641 -108691.59 79234.862 -108743.086 79206.858 -108809.851 79196.878 -108831.172 79153.328 -108926.159 79106.866 -109033.937 79069.123 -109127.192 79041.927 -109196.406 79020.325 -109249.006 79007.842 -109276.497 79006.291 -109278.616 78983.332 -109282.124 78929.214 -109291.738 78851.132 -109306.089 78756.281 -109323.807 78651.857 -109343.525 78545.056 -109363.874 78443.074 -109383.486 78353.106 -109400.991 78282.347 -109415.022 78237.994 -109424.209 78227.115 -109426.807 78215.878 -109433.218 78207.395 -109447.697 78201.286 -109475.133 78197.168 -109520.411 78194.659 -109588.42 78193.379 -109684.047 78192.946 -109812.18 78192.923 -109864.701 78192.923 -110291.845 78295.5 -110312.091 78352.569 -110323.07 78437.731 -110339.095 78540.628 -110358.233 78650.904 -110378.551 78681.385 -110384.132 78783.145 -110403.917 78871.795 -110423.373 78939.892 -110440.697 78979.996 -110454.088 78986.677 -110458.079 79003.081 -110486.342 79026.601 -110541.109 79052.684 -110611.588 79057.858 -110626.769 79092.044 -110720.896 79134.477 -110827.101 79176.003 -110922.473 79176.208 -110922.916 79245.36 -111072.525 78790.488 -111741.617 79082.5 -112034.116 79170.82 -112121.17 79251.375 -112197.909 79319.64 -112260.237 79371.092 -112304.056 79401.206 -112325.27 79405.526 -112326.616 79430.889 -112316.016 79482.642 -112286.547 79555.132 -112241.705 79642.706 -112184.984 79737.388 -112121.462 79833.484 -112056.668 79919.163 -112000.287 79988.984 -111955.788 80037.506 -111926.639 80059.218 -111916.308 80085.707 -111925.05 80135.938 -111948.087 80199.549 -111980.631 80206.292 -111984.249 80291.954 -112027.21 80350.694 -112048.279 80387.228 -112048.503 80406.269 -112028.928 80406.38 -112028.654 80415.898 -112005.472 80438.597 -111950.441 80472.718 -111867.822 80516.5 -111761.872 80568.184 -111636.852 80626.008 -111497.02 80682.009 -111361.637 80743.553 -111212.234 80800.061 -111073.832 80849.839 -110950.673 80891.194 -110847.002 80922.432 -110767.059 80941.859 -110715.088 80947.846 -110695.692 80932.832 -110673.443 80893.561 -110637.982 80841.193 -110598.887 80692.059 -110475.245 80575.489 -110333.522 80492.882 -110176.704 80445.634 -110007.775 80435.143 -109829.722 80442.769 -109747.539 80484.318 -109577.031 80555.877 -109426.459 80653.005 -109297.309 80771.266 -109191.064 80906.22 -109109.21 81053.429 -109053.232 81208.456 -109024.615 81366.861 -109024.844 81524.206 -109055.405 81676.054 -109117.782 81817.965 -109213.46 81877.197 -109267.572 81990.797 -109406.52 82069.894 -109558.361 82115.014 -109718.667 82126.684 -109883.012 82105.431 -110046.971 82051.78 -110206.118 81966.26 -110356.025 81849.395 -110492.267 81718.807 -110598.887 81664.412 -110639.642 81625.986 -110674.718 81612.154 -110695.726 81619.397 -110718.635 81639.995 -110773.365 81672.254 -110855.672 81714.479 -110961.315 81764.977 -111086.05 81822.052 -111225.636 81878.146 -111361.67 81940.033 -111511.201 81997.356 -111649.767 82048.356 -111773.107 82091.273 -111876.964 82124.347 -111957.08 82145.819 -112009.195 82153.775 -112028.654 82172.571 -112048.423 82208.926 -112048.365 82267.521 -112027.441 82353.032 -111984.613 82353.708 -111984.249 82418.093 -111951.012 82470.139 -111926.802 82499.488 -111916.404 82500.783 -111916.308 82522.876 -111926.855 82571.652 -111956.184 82641.669 -112000.827 82727.486 -112057.314 82822.612 -112121.462 82919.46 -112186.411 83006.747 -112242.896 83078.819 -112287.421 83130.023 -112316.49 83154.474 -112326.616 83176.99 -112313.307 83222.258 -112276.112 83285.756 -112219.128 83362.961 -112146.449 83449.349 -112062.171 83477.601 -112034.016 83769.713 -111741.416 83547.369 -111415.104 83479.798 -111314.897 83420.493 -111224.963 83372.783 -111150.51 83339.993 -111096.751 83325.452 -111068.894 83325.026 -111066.912 83332.692 -111040.655 83353.311 -110987.837 83383.315 -110917.31 83404.375 -110870.093 83443.752 -110779.694 83480.835 -110688.366 83509.585 -110611.2 83517.395 -110587.692 83539.583 -110524.916 83561.273 -110476.411 83573.187 -110458.079 83599.477 -110446.859 83656.858 -110430.954 83737.882 -110412.167 83835.105 -110392.299 83878.615 -110384.132 83989.104 -110363.829 84095.084 -110344.17 84186.199 -110327.088 84252.092 -110314.518 84264.5 -110312.091 84367.077 -110291.845 84367.077 -109864.701 84366.847 -109724.246 84365.901 -109617.979 84363.859 -109541.013 84360.338 -109488.46 84354.957 -109455.433 84347.334 -109437.045 84337.088 -109428.408 84332.885 -109426.807 84307.53 -109421.127 84251.516 -109409.795 84172.036 -109394.179 84076.288 -109375.647 83971.467 -109355.569 83864.768 -109335.312 83763.387 -109316.246 83674.521 -109299.739 83605.363 -109287.159 83563.111 -109279.875 83553.71 -109278.616 83545.193 -109261.763 83526.34 -109216.87 83500.676 -109152.43 83490.877 -109127.192 83451.352 -109029.686 83404.808 -108921.959 83363.123 -108831.172 83332.45 -108761.753 83312.044 -108704.71 83305.232 -108669.777 83306.318 -108665.095 83320.715 -108642.991 83353.588 -108593.831 83401.41 -108522.848 83460.652 -108435.278 83527.785 -108336.357 83541.059 -108316.83 83618.954 -108201.14 83676.213 -108113.044 83715.119 -108048.486 83737.956 -108003.411 83747.006 -107973.763 83744.552 -107955.485 83744.489 -107955.369 83725.173 -107931.361 83682.449 -107884.947 83620.949 -107820.937 83545.302 -107744.145 83460.139 -107659.382 83450.535 -107649.922 83343.21 -107545.989 83260.385 -107469.675 83200.395 -107419.571 83161.577 -107394.27 83144.48 -107391.004 83119.527 -107405.25 83067.745 -107438.156 82994.48 -107486.208 82905.08 -107545.89 82804.889 -107613.688 82781.499 -107629.639 82449.407 -107856.42 82299.435 -107788.353 82208.23 -107748.685 82110.331 -107708.791 82026.169 -107676.983 82022.462 -107675.674 81956.631 -107651.576 81905.884 -107631.2 81881.158 -107618.936 81881.116 -107618.901 81873.271 -107596.734 81859.934 -107542.217 81842.43 -107461.48 81822.083 -107360.65 81800.218 -107245.856 81798.429 -107236.178 81776.496 -107117.904 81756.36 -107010.542 81739.32 -106920.917 81726.672 -106855.851 81719.716 -106822.168 81719.594 -106821.654 81715.361 -106807.325 81707.129 -106796.507 81689.967 -106788.706 81658.942 -106783.429 81609.122 -106780.182 81535.576 -106778.472 81433.371 -106777.807 81297.575 -106777.693 81280 -106777.692 81140.122 -106777.776"/><path d="M 81140.122 -106777.776 81034.388 -106778.355 80957.868 -106779.922 80905.628 -106782.972 80872.737 -106787.996 80854.263 -106795.489 80845.273 -106805.944 80840.837 -106819.853 80840.406 -106821.654 80833.667 -106854.145 80821.192 -106918.252 80804.281 -107007.151 80784.229 -107114.019 80762.336 -107232.033 80761.571 -107236.178 80739.641 -107351.831 80719.123 -107454.014 80701.341 -107536.598 80687.619 -107593.456 80679.282 -107618.458 80678.884 -107618.901 80654.323 -107631.11 80603.685 -107651.456 80537.905 -107675.545 80537.539 -107675.674 80454.683 -107706.818 80357 -107746.491 80264.923 -107786.381 80260.566 -107788.353 80110.593 -107856.42 79778.502 -107629.639 79676.626 -107560.504 79584.343 -107498.697 79506.997 -107447.733 79449.936 -107411.127 79418.505 -107392.394 79415.521 -107391.004 79392.679 -107397.19 79350.018 -107427.035 79285.872 -107481.947 79198.579 -107563.334 79109.465 -107649.922 79023.559 -107735.247 78946.673 -107813.108 78883.436 -107878.697 78838.477 -107927.205 78816.424 -107953.825 78815.604 -107955.195 78813.166 -107973.463 78822.35 -108003.295 78845.426 -108048.721 78884.663 -108113.77 78942.33 -108202.47 79019.205 -108316.657 79087.43 -108417.162 79148.418 -108507.303 79198.644 -108581.849 79234.584 -108635.565 79252.713 -108663.218 79253.854 -108665.095 79251.641 -108691.59 79234.862 -108743.086 79206.858 -108809.851 79196.878 -108831.172 79153.328 -108926.159 79106.866 -109033.937 79069.123 -109127.192 79041.927 -109196.406 79020.325 -109249.006 79007.842 -109276.497 79006.291 -109278.616 78983.332 -109282.124 78929.214 -109291.738 78851.132 -109306.089 78756.281 -109323.807 78651.857 -109343.525 78545.056 -109363.874 78443.074 -109383.486 78353.106 -109400.991 78282.347 -109415.022 78237.994 -109424.209 78227.115 -109426.807 78215.878 -109433.218 78207.395 -109447.697 78201.286 -109475.133 78197.168 -109520.411 78194.659 -109588.42 78193.379 -109684.047 78192.946 -109812.18 78192.923 -109864.701 78192.923 -110291.845 78295.5 -110312.091 78352.569 -110323.07 78437.731 -110339.095 78540.628 -110358.233 78650.904 -110378.551 78681.385 -110384.132 78783.145 -110403.917 78871.795 -110423.373 78939.892 -110440.697 78979.996 -110454.088 78986.677 -110458.079 79003.081 -110486.342 79026.601 -110541.109 79052.684 -110611.588 79057.858 -110626.769 79092.044 -110720.896 79134.477 -110827.101 79176.003 -110922.473 79176.208 -110922.916 79245.36 -111072.525 78790.488 -111741.617 79082.5 -112034.116 79170.82 -112121.17 79251.375 -112197.909 79319.64 -112260.237 79371.092 -112304.056 79401.206 -112325.27 79405.526 -112326.616 79430.889 -112316.016 79482.642 -112286.547 79555.132 -112241.705 79642.706 -112184.984 79737.388 -112121.462 79833.484 -112056.668 79919.163 -112000.287 79988.984 -111955.788 80037.506 -111926.639 80059.218 -111916.308 80085.707 -111925.05 80135.938 -111948.087 80199.549 -111980.631 80206.292 -111984.249 80291.954 -112027.21 80350.694 -112048.279 80387.228 -112048.503 80406.269 -112028.928 80406.38 -112028.654 80415.898 -112005.472 80438.597 -111950.441 80472.718 -111867.822 80516.5 -111761.872 80568.184 -111636.852 80626.008 -111497.02 80682.009 -111361.637 80743.553 -111212.234 80800.061 -111073.832 80849.839 -110950.673 80891.194 -110847.002 80922.432 -110767.059 80941.859 -110715.088 80947.846 -110695.692 80932.832 -110673.443 80893.561 -110637.982 80841.193 -110598.887 80692.059 -110475.245 80575.489 -110333.522 80492.882 -110176.704 80445.634 -110007.775 80435.143 -109829.722 80442.769 -109747.539 80484.318 -109577.031 80555.877 -109426.459 80653.005 -109297.309 80771.266 -109191.064 80906.22 -109109.21 81053.429 -109053.232 81208.456 -109024.615 81366.861 -109024.844 81524.206 -109055.405 81676.054 -109117.782 81817.965 -109213.46 81877.197 -109267.572 81990.797 -109406.52 82069.894 -109558.361 82115.014 -109718.667 82126.684 -109883.012 82105.431 -110046.971 82051.78 -110206.118 81966.26 -110356.025 81849.395 -110492.267 81718.807 -110598.887 81664.412 -110639.642 81625.986 -110674.718 81612.154 -110695.726 81619.397 -110718.635 81639.995 -110773.365 81672.254 -110855.672 81714.479 -110961.315 81764.977 -111086.05 81822.052 -111225.636 81878.146 -111361.67 81940.033 -111511.201 81997.356 -111649.767 82048.356 -111773.107 82091.273 -111876.964 82124.347 -111957.08 82145.819 -112009.195 82153.775 -112028.654 82172.571 -112048.423 82208.926 -112048.365 82267.521 -112027.441 82353.032 -111984.613 82353.708 -111984.249 82418.093 -111951.012 82470.139 -111926.802 82499.488 -111916.404 82500.783 -111916.308 82522.876 -111926.855 82571.652 -111956.184 82641.669 -112000.827 82727.486 -112057.314 82822.612 -112121.462 82919.46 -112186.411 83006.747 -112242.896 83078.819 -112287.421 83130.023 -112316.49 83154.474 -112326.616 83176.99 -112313.307 83222.258 -112276.112 83285.756 -112219.128 83362.961 -112146.449 83449.349 -112062.171 83477.601 -112034.016 83769.713 -111741.416 83547.369 -111415.104 83479.798 -111314.897 83420.493 -111224.963 83372.783 -111150.51 83339.993 -111096.751 83325.452 -111068.894 83325.026 -111066.912 83332.692 -111040.655 83353.311 -110987.837 83383.315 -110917.31 83404.375 -110870.093 83443.752 -110779.694 83480.835 -110688.366 83509.585 -110611.2 83517.395 -110587.692 83539.583 -110524.916 83561.273 -110476.411 83573.187 -110458.079 83599.477 -110446.859 83656.858 -110430.954 83737.882 -110412.167 83835.105 -110392.299 83878.615 -110384.132 83989.104 -110363.829 84095.084 -110344.17 84186.199 -110327.088 84252.092 -110314.518 84264.5 -110312.091 84367.077 -110291.845 84367.077 -109864.701 84366.847 -109724.246 84365.901 -109617.979 84363.859 -109541.013 84360.338 -109488.46 84354.957 -109455.433 84347.334 -109437.045 84337.088 -109428.408 84332.885 -109426.807 84307.53 -109421.127 84251.516 -109409.795 84172.036 -109394.179 84076.288 -109375.647 83971.467 -109355.569 83864.768 -109335.312 83763.387 -109316.246 83674.521 -109299.739 83605.363 -109287.159 83563.111 -109279.875 83553.71 -109278.616 83545.193 -109261.763 83526.34 -109216.87 83500.676 -109152.43 83490.877 -109127.192 83451.352 -109029.686 83404.808 -108921.959 83363.123 -108831.172 83332.45 -108761.753 83312.044 -108704.71 83305.232 -108669.777 83306.318 -108665.095 83320.715 -108642.991 83353.588 -108593.831 83401.41 -108522.848 83460.652 -108435.278 83527.785 -108336.357 83541.059 -108316.83 83618.954 -108201.14 83676.213 -108113.044 83715.119 -108048.486 83737.956 -108003.411 83747.006 -107973.763 83744.552 -107955.485 83744.489 -107955.369 83725.173 -107931.361 83682.449 -107884.947 83620.949 -107820.937 83545.302 -107744.145 83460.139 -107659.382 83450.535 -107649.922 83343.21 -107545.989 83260.385 -107469.675 83200.395 -107419.571 83161.577 -107394.27 83144.48 -107391.004 83119.527 -107405.25 83067.745 -107438.156 82994.48 -107486.208 82905.08 -107545.89 82804.889 -107613.688 82781.499 -107629.639 82449.407 -107856.42 82299.435 -107788.353 82208.23 -107748.685 82110.331 -107708.791 82026.169 -107676.983 82022.462 -107675.674 81956.631 -107651.576 81905.884 -107631.2 81881.158 -107618.936 81881.116 -107618.901 81873.271 -107596.734 81859.934 -107542.217 81842.43 -107461.48 81822.083 -107360.65 81800.218 -107245.856 81798.429 -107236.178 81776.496 -107117.904 81756.36 -107010.542 81739.32 -106920.917 81726.672 -106855.851 81719.716 -106822.168 81719.594 -106821.654 81715.361 -106807.325 81707.129 -106796.507 81689.967 -106788.706 81658.942 -106783.429 81609.122 -106780.182 81535.576 -106778.472 81433.371 -106777.807 81297.575 -106777.693 81280 -106777.692 81140.122 -106777.776" fill="none" stroke-width="10"/></g><g id="q5CP4aFqQ7d__bottom_drill1" transform="scale(25.4,25.4)"><use xlink:href="#qKJw3quJd7Dv_pad-1" x="5500" y="-2500"/><use xlink:href="#qKJw3quJd7Dv_pad-1" x="5500" y="-4500"/><use xlink:href="#qKJw3quJd7Dv_pad-1" x="2500" y="-2500"/><use xlink:href="#qKJw3quJd7Dv_pad-1" x="2500" y="-4500"/></g><g id="q5CP4aFqQ7d__bottom_drill2" transform="scale(25.4,25.4)"><use xlink:href="#n2gLe4QioLWE_pad-1" x="3200" y="-2500"/><use xlink:href="#n2gLe4QioLWE_pad-1" x="2500" y="-4100"/><use xlink:href="#n2gLe4QioLWE_pad-1" x="2900" y="-4100"/><use xlink:href="#n2gLe4QioLWE_pad-1" x="4800" y="-2700"/><use xlink:href="#n2gLe4QioLWE_pad-1" x="5200" y="-2700"/><use xlink:href="#n2gLe4QioLWE_pad-1" x="2800" y="-2700"/><use xlink:href="#n2gLe4QioLWE_pad-1" x="3200" y="-2700"/><use xlink:href="#n2gLe4QioLWE_pad-1" x="3100" y="-4100"/><use xlink:href="#n2gLe4QioLWE_pad-1" x="3500" y="-4100"/><use xlink:href="#n2gLe4QioLWE_pad-1" x="2800" y="-2500"/><use xlink:href="#n2gLe4QioLWE_pad-1" x="4800" y="-2500"/><use xlink:href="#n2gLe4QioLWE_pad-1" x="5200" y="-2500"/><use xlink:href="#n2gLe4QioLWE_pad-1" x="2900" y="-3500"/><use xlink:href="#n2gLe4QioLWE_pad-1" x="2900" y="-3900"/><use xlink:href="#n2gLe4QioLWE_pad-2" x="3792" y="-3640"/><use xlink:href="#n2gLe4QioLWE_pad-2" x="3820" y="-3320"/><use xlink:href="#n2gLe4QioLWE_pad-2" x="3932.1" y="-3738.3"/><use xlink:href="#n2gLe4QioLWE_pad-2" x="3975" y="-3247.7"/><use xlink:href="#n2gLe4QioLWE_pad-2" x="4102.4" y="-3723.4"/><use xlink:href="#n2gLe4QioLWE_pad-2" x="4140.2" y="-3292"/><use xlink:href="#n2gLe4QioLWE_pad-2" x="4223.4" y="-3602.4"/><use xlink:href="#n2gLe4QioLWE_pad-2" x="4238.3" y="-3432.1"/><use xlink:href="#n2gLe4QioLWE_pad-3" x="5500" y="-4000"/><use xlink:href="#n2gLe4QioLWE_pad-3" x="5500" y="-3600"/><use xlink:href="#n2gLe4QioLWE_pad-3" x="4200" y="-4500"/><use xlink:href="#n2gLe4QioLWE_pad-3" x="2500" y="-3680"/><use xlink:href="#n2gLe4QioLWE_pad-3" x="4600" y="-4500"/><use xlink:href="#n2gLe4QioLWE_pad-3" x="4400" y="-2500"/><use xlink:href="#n2gLe4QioLWE_pad-3" x="4000" y="-2500"/><use xlink:href="#n2gLe4QioLWE_pad-4" x="3402.8" y="-3496.8"/><use xlink:href="#n2gLe4QioLWE_pad-4" x="4590.8" y="-3496.8"/></g><clipPath id="q5CP4aFqQ7d__bottom_outline"><path d="M 63500 -121920 139700 -121920 A 7620 7620 0 0 1 147320 -114300 L 147320 -63500 A 7620 7620 0 0 1 139700 -55880 L 63500 -55880 A 7620 7620 0 0 1 55880 -63500 L 55880 -114300 A 7620 7620 0 0 1 63500 -121920" fill="none" stroke-width="50"/></clipPath><mask id="q5CP4aFqQ7d__bottom_mech-mask"><g fill="#000" stroke="#000"><rect x="55880" y="-121920" width="91440" height="66040" fill="#fff"/><use xlink:href="#q5CP4aFqQ7d__bottom_drill1"/><use xlink:href="#q5CP4aFqQ7d__bottom_drill2"/></g></mask><mask id="q5CP4aFqQ7d__bottom_cf-mask"><g fill="#fff" stroke="#fff"><use xlink:href="#q5CP4aFqQ7d__bottom_soldermask"/></g></mask><mask id="q5CP4aFqQ7d__bottom_sm-mask"><g fill="#000" stroke="#000"><rect x="55880" y="-121920" width="91440" height="66040" fill="#fff"/><use xlink:href="#q5CP4aFqQ7d__bottom_soldermask"/></g></mask></defs><g transform="translate(0,-177800) scale(1,-1)"><g mask="url(#q5CP4aFqQ7d__bottom_mech-mask)" clip-path="url(#q5CP4aFqQ7d__bottom_outline)" transform="translate(203200,0) scale(-1,1)"><rect x="55880" y="-121920" width="91440" height="66040" fill="currentColor" class="q5CP4aFqQ7d__fr4"/><use xlink:href="#q5CP4aFqQ7d__bottom_copper" fill="currentColor" stroke="currentColor" class="q5CP4aFqQ7d__cu"/><use xlink:href="#q5CP4aFqQ7d__bottom_copper" fill="currentColor" stroke="currentColor" class="q5CP4aFqQ7d__cf" mask="url(#q5CP4aFqQ7d__bottom_cf-mask)"/><g mask="url(#q5CP4aFqQ7d__bottom_sm-mask)"><rect x="55880" y="-121920" width="91440" height="66040" fill="currentColor" class="q5CP4aFqQ7d__sm"/><use xlink:href="#q5CP4aFqQ7d__bottom_silkscreen" fill="currentColor" stroke="currentColor" class="q5CP4aFqQ7d__ss"/></g></g></g></svg>