%TF.GenerationSoftware,KiCad,Pcbnew,5.1.8+dfsg1-1+b1*%
%TF.CreationDate,2021-08-06T11:41:16-05:00*%
%TF.ProjectId,to-3-opamp-prototype,746f2d33-2d6f-4706-916d-702d70726f74,A*%
%TF.SameCoordinates,Original*%
%TF.FileFunction,Copper,L2,Bot*%
%TF.FilePolarity,Positive*%
%FSLAX46Y46*%
G04 Gerber Fmt 4.6, Leading zero omitted, Abs format (unit mm)*
G04 Created by KiCad (PCBNEW 5.1.8+dfsg1-1+b1) date 2021-08-06 11:41:16*
%MOMM*%
%LPD*%
G01*
G04 APERTURE LIST*
%TA.AperFunction,ComponentPad*%
%ADD10O,1.600000X1.600000*%
%TD*%
%TA.AperFunction,ComponentPad*%
%ADD11C,1.600000*%
%TD*%
%TA.AperFunction,ComponentPad*%
%ADD12C,3.000000*%
%TD*%
%TA.AperFunction,ComponentPad*%
%ADD13C,3.962400*%
%TD*%
%TA.AperFunction,ComponentPad*%
%ADD14C,1.828800*%
%TD*%
%TA.AperFunction,Conductor*%
%ADD15C,1.270000*%
%TD*%
G04 APERTURE END LIST*
D10*
%TO.P,R3,2*%
%TO.N,Net-(C2-Pad2)*%
X81280000Y-63500000D03*
D11*
%TO.P,R3,1*%
%TO.N,Net-(C1-Pad1)*%
X71120000Y-63500000D03*
%TD*%
D10*
%TO.P,R2,2*%
%TO.N,Net-(C3-Pad2)*%
X132080000Y-63500000D03*
D11*
%TO.P,R2,1*%
%TO.N,Net-(C3-Pad1)*%
X121920000Y-63500000D03*
%TD*%
D10*
%TO.P,R1,2*%
%TO.N,Net-(C1-Pad2)*%
X88900000Y-104140000D03*
D11*
%TO.P,R1,1*%
%TO.N,Net-(C1-Pad1)*%
X78740000Y-104140000D03*
%TD*%
D10*
%TO.P,C4,2*%
%TO.N,Net-(C2-Pad2)*%
X81280000Y-68580000D03*
D11*
%TO.P,C4,1*%
%TO.N,Net-(C1-Pad1)*%
X71120000Y-68580000D03*
%TD*%
D10*
%TO.P,C3,2*%
%TO.N,Net-(C3-Pad2)*%
X132080000Y-68580000D03*
D11*
%TO.P,C3,1*%
%TO.N,Net-(C3-Pad1)*%
X121920000Y-68580000D03*
%TD*%
D10*
%TO.P,C2,2*%
%TO.N,Net-(C2-Pad2)*%
X73660000Y-88900000D03*
D11*
%TO.P,C2,1*%
%TO.N,Net-(C1-Pad2)*%
X73660000Y-99060000D03*
%TD*%
D10*
%TO.P,C1,2*%
%TO.N,Net-(C1-Pad2)*%
X73660000Y-104140000D03*
D11*
%TO.P,C1,1*%
%TO.N,Net-(C1-Pad1)*%
X63500000Y-104140000D03*
%TD*%
D12*
%TO.P,TP7,1*%
%TO.N,Net-(C2-Pad2)*%
X101600000Y-63500000D03*
%TD*%
%TO.P,TP6,1*%
%TO.N,Net-(C3-Pad1)*%
X111760000Y-63500000D03*
%TD*%
%TO.P,TP5,1*%
%TO.N,Net-(C3-Pad2)*%
X139700000Y-91440000D03*
%TD*%
%TO.P,TP4,1*%
%TO.N,Net-(TP4-Pad1)*%
X139700000Y-101600000D03*
%TD*%
%TO.P,TP3,1*%
%TO.N,Net-(TP3-Pad1)*%
X116840000Y-114300000D03*
%TD*%
%TO.P,TP2,1*%
%TO.N,Net-(C1-Pad2)*%
X106680000Y-114300000D03*
%TD*%
%TO.P,TP1,1*%
%TO.N,Net-(C1-Pad1)*%
X63500000Y-93472000D03*
%TD*%
D13*
%TO.P,U1,10*%
%TO.N,N/C*%
X86430528Y-88818128D03*
%TO.P,U1,9*%
X116605728Y-88818128D03*
D14*
%TO.P,U1,1*%
%TO.N,Net-(C1-Pad1)*%
X96316513Y-92456000D03*
%TO.P,U1,2*%
%TO.N,Net-(C1-Pad2)*%
X99874626Y-94951758D03*
%TO.P,U1,3*%
%TO.N,Net-(TP3-Pad1)*%
X104201755Y-94573182D03*
%TO.P,U1,4*%
%TO.N,Net-(TP4-Pad1)*%
X107273182Y-91501755D03*
%TO.P,U1,5*%
%TO.N,Net-(C3-Pad2)*%
X107651758Y-87174626D03*
%TO.P,U1,6*%
%TO.N,Net-(C3-Pad1)*%
X105160338Y-83616513D03*
%TO.P,U1,7*%
%TO.N,Net-(C2-Pad2)*%
X100964690Y-82492291D03*
%TO.P,U1,8*%
%TO.N,N/C*%
X97028000Y-84328000D03*
%TD*%
D15*
%TO.N,Net-(C3-Pad1)*%
X105160338Y-70099662D02*
X111760000Y-63500000D01*
X105160338Y-83616513D02*
X105160338Y-70099662D01*
X111760000Y-63500000D02*
X121920000Y-63500000D01*
X121920000Y-63500000D02*
X121920000Y-68580000D01*
%TO.N,Net-(C1-Pad2)*%
X99874626Y-94951758D02*
X99874626Y-98245374D01*
X93980000Y-104140000D02*
X88900000Y-104140000D01*
X99874626Y-98245374D02*
X93980000Y-104140000D01*
X106680000Y-105050748D02*
X99874626Y-98245374D01*
X106680000Y-114300000D02*
X106680000Y-105050748D01*
X73660000Y-104140000D02*
X73660000Y-99060000D01*
X73660000Y-99060000D02*
X83820000Y-99060000D01*
X83820000Y-99060000D02*
X88900000Y-104140000D01*
%TO.N,Net-(C1-Pad1)*%
X63500000Y-93472000D02*
X63500000Y-104140000D01*
X63500000Y-76200000D02*
X71120000Y-68580000D01*
X63500000Y-93472000D02*
X63500000Y-76200000D01*
X71120000Y-68580000D02*
X71120000Y-63500000D01*
X95300513Y-93472000D02*
X96316513Y-92456000D01*
X63500000Y-93472000D02*
X95300513Y-93472000D01*
X63500000Y-106680000D02*
X63500000Y-104140000D01*
X66040000Y-109220000D02*
X63500000Y-106680000D01*
X78740000Y-106680000D02*
X76200000Y-109220000D01*
X76200000Y-109220000D02*
X66040000Y-109220000D01*
X78740000Y-104140000D02*
X78740000Y-106680000D01*
%TO.N,Net-(C2-Pad2)*%
X73660000Y-76200000D02*
X81280000Y-68580000D01*
X73660000Y-88900000D02*
X73660000Y-76200000D01*
X81280000Y-68580000D02*
X81280000Y-63500000D01*
X81280000Y-63500000D02*
X101600000Y-63500000D01*
X101600000Y-81856981D02*
X100964690Y-82492291D01*
X101600000Y-63500000D02*
X101600000Y-81856981D01*
%TO.N,Net-(C3-Pad2)*%
X107651758Y-87174626D02*
X121166384Y-73660000D01*
X121166384Y-73660000D02*
X127000000Y-73660000D01*
X132080000Y-68580000D02*
X132080000Y-63500000D01*
X127000000Y-73660000D02*
X132080000Y-68580000D01*
X132080000Y-83820000D02*
X139700000Y-91440000D01*
X132080000Y-68580000D02*
X132080000Y-83820000D01*
%TO.N,Net-(TP3-Pad1)*%
X104201755Y-94573182D02*
X104201755Y-96581755D01*
X116840000Y-109220000D02*
X116840000Y-114300000D01*
X104201755Y-96581755D02*
X116840000Y-109220000D01*
%TO.N,Net-(TP4-Pad1)*%
X117371427Y-101600000D02*
X107273182Y-91501755D01*
X139700000Y-101600000D02*
X117371427Y-101600000D01*
%TD*%
M02*
