M48
; DRILL file {KiCad 5.1.8+dfsg1-1+b1} date Fri Aug  6 11:41:18 2021
; FORMAT={-:-/ absolute / inch / decimal}
; #@! TF.CreationDate,2021-08-06T11:41:18-05:00
; #@! TF.GenerationSoftware,Kicad,Pcbnew,5.1.8+dfsg1-1+b1
; #@! TF.FileFunction,Plated,1,2,PTH
FMAT,2
INCH
T1C0.0315
T2C0.0520
T3C0.0787
T4C0.1560
%
G90
G05
T1
X3.2Y-2.5
X2.5Y-4.1
X2.9Y-4.1
X4.8Y-2.7
X5.2Y-2.7
X2.8Y-2.7
X3.2Y-2.7
X3.1Y-4.1
X3.5Y-4.1
X2.8Y-2.5
X4.8Y-2.5
X5.2Y-2.5
X2.9Y-3.5
X2.9Y-3.9
T2
X3.792Y-3.64
X3.82Y-3.32
X3.9321Y-3.7383
X3.975Y-3.2477
X4.1024Y-3.7234
X4.1402Y-3.292
X4.2234Y-3.6024
X4.2383Y-3.4321
T3
X5.5Y-4.0
X5.5Y-3.6
X4.2Y-4.5
X2.5Y-3.68
X4.6Y-4.5
X4.4Y-2.5
X4.0Y-2.5
T4
X3.4028Y-3.4968
X4.5908Y-3.4968
T0
M30
