%TF.GenerationSoftware,KiCad,Pcbnew,5.1.8+dfsg1-1+b1*%
%TF.CreationDate,2021-08-06T11:41:16-05:00*%
%TF.ProjectId,to-3-opamp-prototype,746f2d33-2d6f-4706-916d-702d70726f74,A*%
%TF.SameCoordinates,Original*%
%TF.FileFunction,Legend,Top*%
%TF.FilePolarity,Positive*%
%FSLAX46Y46*%
G04 Gerber Fmt 4.6, Leading zero omitted, Abs format (unit mm)*
G04 Created by KiCad (PCBNEW 5.1.8+dfsg1-1+b1) date 2021-08-06 11:41:16*
%MOMM*%
%LPD*%
G01*
G04 APERTURE LIST*
%ADD10C,0.150000*%
%ADD11C,0.635000*%
%ADD12C,0.120000*%
%ADD13C,0.010000*%
G04 APERTURE END LIST*
D10*
X60237619Y-92980000D02*
X60237619Y-93170476D01*
X60190000Y-93265714D01*
X60094761Y-93360952D01*
X59904285Y-93408571D01*
X59570952Y-93408571D01*
X59380476Y-93360952D01*
X59285238Y-93265714D01*
X59237619Y-93170476D01*
X59237619Y-92980000D01*
X59285238Y-92884761D01*
X59380476Y-92789523D01*
X59570952Y-92741904D01*
X59904285Y-92741904D01*
X60094761Y-92789523D01*
X60190000Y-92884761D01*
X60237619Y-92980000D01*
X60237619Y-93837142D02*
X59428095Y-93837142D01*
X59332857Y-93884761D01*
X59285238Y-93932380D01*
X59237619Y-94027619D01*
X59237619Y-94218095D01*
X59285238Y-94313333D01*
X59332857Y-94360952D01*
X59428095Y-94408571D01*
X60237619Y-94408571D01*
X60237619Y-94741904D02*
X60237619Y-95313333D01*
X59237619Y-95027619D02*
X60237619Y-95027619D01*
X102814285Y-59618571D02*
X102052380Y-59618571D01*
X101719047Y-60237619D02*
X101385714Y-59237619D01*
X101052380Y-60237619D01*
X100766666Y-59285238D02*
X100671428Y-59237619D01*
X100480952Y-59237619D01*
X100385714Y-59285238D01*
X100338095Y-59380476D01*
X100338095Y-59428095D01*
X100385714Y-59523333D01*
X100480952Y-59570952D01*
X100623809Y-59570952D01*
X100719047Y-59618571D01*
X100766666Y-59713809D01*
X100766666Y-59761428D01*
X100719047Y-59856666D01*
X100623809Y-59904285D01*
X100480952Y-59904285D01*
X100385714Y-59856666D01*
X112902857Y-59618571D02*
X112140952Y-59618571D01*
X112521904Y-59237619D02*
X112521904Y-59999523D01*
X111664761Y-59237619D02*
X111664761Y-60237619D01*
X111188571Y-59237619D02*
X111188571Y-60237619D01*
X110617142Y-59237619D01*
X110617142Y-60237619D01*
X143581428Y-92582857D02*
X143581428Y-91820952D01*
X143962380Y-91344761D02*
X142962380Y-91344761D01*
X143962380Y-90868571D02*
X142962380Y-90868571D01*
X143962380Y-90297142D01*
X142962380Y-90297142D01*
X143438571Y-102361904D02*
X143486190Y-102219047D01*
X143533809Y-102171428D01*
X143629047Y-102123809D01*
X143771904Y-102123809D01*
X143867142Y-102171428D01*
X143914761Y-102219047D01*
X143962380Y-102314285D01*
X143962380Y-102695238D01*
X142962380Y-102695238D01*
X142962380Y-102361904D01*
X143010000Y-102266666D01*
X143057619Y-102219047D01*
X143152857Y-102171428D01*
X143248095Y-102171428D01*
X143343333Y-102219047D01*
X143390952Y-102266666D01*
X143438571Y-102361904D01*
X143438571Y-102695238D01*
X143676666Y-101742857D02*
X143676666Y-101266666D01*
X143962380Y-101838095D02*
X142962380Y-101504761D01*
X143962380Y-101171428D01*
X143962380Y-100361904D02*
X143962380Y-100838095D01*
X142962380Y-100838095D01*
X116078095Y-118038571D02*
X116220952Y-118086190D01*
X116268571Y-118133809D01*
X116316190Y-118229047D01*
X116316190Y-118371904D01*
X116268571Y-118467142D01*
X116220952Y-118514761D01*
X116125714Y-118562380D01*
X115744761Y-118562380D01*
X115744761Y-117562380D01*
X116078095Y-117562380D01*
X116173333Y-117610000D01*
X116220952Y-117657619D01*
X116268571Y-117752857D01*
X116268571Y-117848095D01*
X116220952Y-117943333D01*
X116173333Y-117990952D01*
X116078095Y-118038571D01*
X115744761Y-118038571D01*
X116697142Y-118276666D02*
X117173333Y-118276666D01*
X116601904Y-118562380D02*
X116935238Y-117562380D01*
X117268571Y-118562380D01*
X118078095Y-118562380D02*
X117601904Y-118562380D01*
X117601904Y-117562380D01*
X105465714Y-118181428D02*
X106227619Y-118181428D01*
X105846666Y-118562380D02*
X105846666Y-117800476D01*
X106560952Y-117562380D02*
X106894285Y-118562380D01*
X107227619Y-117562380D01*
X107513333Y-118514761D02*
X107608571Y-118562380D01*
X107799047Y-118562380D01*
X107894285Y-118514761D01*
X107941904Y-118419523D01*
X107941904Y-118371904D01*
X107894285Y-118276666D01*
X107799047Y-118229047D01*
X107656190Y-118229047D01*
X107560952Y-118181428D01*
X107513333Y-118086190D01*
X107513333Y-118038571D01*
X107560952Y-117943333D01*
X107656190Y-117895714D01*
X107799047Y-117895714D01*
X107894285Y-117943333D01*
X139327380Y-79580952D02*
X138851190Y-79914285D01*
X139327380Y-80152380D02*
X138327380Y-80152380D01*
X138327380Y-79771428D01*
X138375000Y-79676190D01*
X138422619Y-79628571D01*
X138517857Y-79580952D01*
X138660714Y-79580952D01*
X138755952Y-79628571D01*
X138803571Y-79676190D01*
X138851190Y-79771428D01*
X138851190Y-80152380D01*
X138803571Y-79152380D02*
X138803571Y-78819047D01*
X139327380Y-78676190D02*
X139327380Y-79152380D01*
X138327380Y-79152380D01*
X138327380Y-78676190D01*
X138327380Y-78390476D02*
X139327380Y-78057142D01*
X138327380Y-77723809D01*
X139327380Y-77390476D02*
X138327380Y-77390476D01*
X139279761Y-76961904D02*
X139327380Y-76819047D01*
X139327380Y-76580952D01*
X139279761Y-76485714D01*
X139232142Y-76438095D01*
X139136904Y-76390476D01*
X139041666Y-76390476D01*
X138946428Y-76438095D01*
X138898809Y-76485714D01*
X138851190Y-76580952D01*
X138803571Y-76771428D01*
X138755952Y-76866666D01*
X138708333Y-76914285D01*
X138613095Y-76961904D01*
X138517857Y-76961904D01*
X138422619Y-76914285D01*
X138375000Y-76866666D01*
X138327380Y-76771428D01*
X138327380Y-76533333D01*
X138375000Y-76390476D01*
X139327380Y-75961904D02*
X138327380Y-75961904D01*
X138327380Y-75295238D02*
X138327380Y-75104761D01*
X138375000Y-75009523D01*
X138470238Y-74914285D01*
X138660714Y-74866666D01*
X138994047Y-74866666D01*
X139184523Y-74914285D01*
X139279761Y-75009523D01*
X139327380Y-75104761D01*
X139327380Y-75295238D01*
X139279761Y-75390476D01*
X139184523Y-75485714D01*
X138994047Y-75533333D01*
X138660714Y-75533333D01*
X138470238Y-75485714D01*
X138375000Y-75390476D01*
X138327380Y-75295238D01*
X139327380Y-74438095D02*
X138327380Y-74438095D01*
X139327380Y-73866666D01*
X138327380Y-73866666D01*
X139041666Y-72676190D02*
X139041666Y-72200000D01*
X139327380Y-72771428D02*
X138327380Y-72438095D01*
X139327380Y-72104761D01*
X140691666Y-81128571D02*
X140691666Y-80652380D01*
X140977380Y-81223809D02*
X139977380Y-80890476D01*
X140977380Y-80557142D01*
X139977380Y-80223809D02*
X140786904Y-80223809D01*
X140882142Y-80176190D01*
X140929761Y-80128571D01*
X140977380Y-80033333D01*
X140977380Y-79842857D01*
X140929761Y-79747619D01*
X140882142Y-79700000D01*
X140786904Y-79652380D01*
X139977380Y-79652380D01*
X140025000Y-78652380D02*
X139977380Y-78747619D01*
X139977380Y-78890476D01*
X140025000Y-79033333D01*
X140120238Y-79128571D01*
X140215476Y-79176190D01*
X140405952Y-79223809D01*
X140548809Y-79223809D01*
X140739285Y-79176190D01*
X140834523Y-79128571D01*
X140929761Y-79033333D01*
X140977380Y-78890476D01*
X140977380Y-78795238D01*
X140929761Y-78652380D01*
X140882142Y-78604761D01*
X140548809Y-78604761D01*
X140548809Y-78795238D01*
X139977380Y-78176190D02*
X140786904Y-78176190D01*
X140882142Y-78128571D01*
X140929761Y-78080952D01*
X140977380Y-77985714D01*
X140977380Y-77795238D01*
X140929761Y-77700000D01*
X140882142Y-77652380D01*
X140786904Y-77604761D01*
X139977380Y-77604761D01*
X140929761Y-77176190D02*
X140977380Y-77033333D01*
X140977380Y-76795238D01*
X140929761Y-76700000D01*
X140882142Y-76652380D01*
X140786904Y-76604761D01*
X140691666Y-76604761D01*
X140596428Y-76652380D01*
X140548809Y-76700000D01*
X140501190Y-76795238D01*
X140453571Y-76985714D01*
X140405952Y-77080952D01*
X140358333Y-77128571D01*
X140263095Y-77176190D01*
X140167857Y-77176190D01*
X140072619Y-77128571D01*
X140025000Y-77080952D01*
X139977380Y-76985714D01*
X139977380Y-76747619D01*
X140025000Y-76604761D01*
X139977380Y-76319047D02*
X139977380Y-75747619D01*
X140977380Y-76033333D02*
X139977380Y-76033333D01*
X140072619Y-74700000D02*
X140025000Y-74652380D01*
X139977380Y-74557142D01*
X139977380Y-74319047D01*
X140025000Y-74223809D01*
X140072619Y-74176190D01*
X140167857Y-74128571D01*
X140263095Y-74128571D01*
X140405952Y-74176190D01*
X140977380Y-74747619D01*
X140977380Y-74128571D01*
X139977380Y-73509523D02*
X139977380Y-73414285D01*
X140025000Y-73319047D01*
X140072619Y-73271428D01*
X140167857Y-73223809D01*
X140358333Y-73176190D01*
X140596428Y-73176190D01*
X140786904Y-73223809D01*
X140882142Y-73271428D01*
X140929761Y-73319047D01*
X140977380Y-73414285D01*
X140977380Y-73509523D01*
X140929761Y-73604761D01*
X140882142Y-73652380D01*
X140786904Y-73700000D01*
X140596428Y-73747619D01*
X140358333Y-73747619D01*
X140167857Y-73700000D01*
X140072619Y-73652380D01*
X140025000Y-73604761D01*
X139977380Y-73509523D01*
X140072619Y-72795238D02*
X140025000Y-72747619D01*
X139977380Y-72652380D01*
X139977380Y-72414285D01*
X140025000Y-72319047D01*
X140072619Y-72271428D01*
X140167857Y-72223809D01*
X140263095Y-72223809D01*
X140405952Y-72271428D01*
X140977380Y-72842857D01*
X140977380Y-72223809D01*
X140977380Y-71271428D02*
X140977380Y-71842857D01*
X140977380Y-71557142D02*
X139977380Y-71557142D01*
X140120238Y-71652380D01*
X140215476Y-71747619D01*
X140263095Y-71842857D01*
D11*
X80241321Y-110686547D02*
X80725130Y-110686547D01*
X80967035Y-110807500D01*
X81208940Y-111049404D01*
X81329892Y-111533214D01*
X81329892Y-112379880D01*
X81208940Y-112863690D01*
X80967035Y-113105595D01*
X80725130Y-113226547D01*
X80241321Y-113226547D01*
X79999416Y-113105595D01*
X79757511Y-112863690D01*
X79636559Y-112379880D01*
X79636559Y-111533214D01*
X79757511Y-111049404D01*
X79999416Y-110807500D01*
X80241321Y-110686547D01*
X82418464Y-113226547D02*
X82418464Y-110686547D01*
X83386083Y-110686547D01*
X83627988Y-110807500D01*
X83748940Y-110928452D01*
X83869892Y-111170357D01*
X83869892Y-111533214D01*
X83748940Y-111775119D01*
X83627988Y-111896071D01*
X83386083Y-112017023D01*
X82418464Y-112017023D01*
X84837511Y-112500833D02*
X86047035Y-112500833D01*
X84595607Y-113226547D02*
X85442273Y-110686547D01*
X86288940Y-113226547D01*
X87135607Y-113226547D02*
X87135607Y-110686547D01*
X87982273Y-112500833D01*
X88828940Y-110686547D01*
X88828940Y-113226547D01*
X90038464Y-113226547D02*
X90038464Y-110686547D01*
X91006083Y-110686547D01*
X91247988Y-110807500D01*
X91368940Y-110928452D01*
X91489892Y-111170357D01*
X91489892Y-111533214D01*
X91368940Y-111775119D01*
X91247988Y-111896071D01*
X91006083Y-112017023D01*
X90038464Y-112017023D01*
X79757511Y-117671547D02*
X79757511Y-115131547D01*
X80725130Y-115131547D01*
X80967035Y-115252500D01*
X81087988Y-115373452D01*
X81208940Y-115615357D01*
X81208940Y-115978214D01*
X81087988Y-116220119D01*
X80967035Y-116341071D01*
X80725130Y-116462023D01*
X79757511Y-116462023D01*
X83748940Y-117671547D02*
X82902273Y-116462023D01*
X82297511Y-117671547D02*
X82297511Y-115131547D01*
X83265130Y-115131547D01*
X83507035Y-115252500D01*
X83627988Y-115373452D01*
X83748940Y-115615357D01*
X83748940Y-115978214D01*
X83627988Y-116220119D01*
X83507035Y-116341071D01*
X83265130Y-116462023D01*
X82297511Y-116462023D01*
X85321321Y-115131547D02*
X85805130Y-115131547D01*
X86047035Y-115252500D01*
X86288940Y-115494404D01*
X86409892Y-115978214D01*
X86409892Y-116824880D01*
X86288940Y-117308690D01*
X86047035Y-117550595D01*
X85805130Y-117671547D01*
X85321321Y-117671547D01*
X85079416Y-117550595D01*
X84837511Y-117308690D01*
X84716559Y-116824880D01*
X84716559Y-115978214D01*
X84837511Y-115494404D01*
X85079416Y-115252500D01*
X85321321Y-115131547D01*
X87135607Y-115131547D02*
X88587035Y-115131547D01*
X87861321Y-117671547D02*
X87861321Y-115131547D01*
X89917511Y-115131547D02*
X90401321Y-115131547D01*
X90643226Y-115252500D01*
X90885130Y-115494404D01*
X91006083Y-115978214D01*
X91006083Y-116824880D01*
X90885130Y-117308690D01*
X90643226Y-117550595D01*
X90401321Y-117671547D01*
X89917511Y-117671547D01*
X89675607Y-117550595D01*
X89433702Y-117308690D01*
X89312750Y-116824880D01*
X89312750Y-115978214D01*
X89433702Y-115494404D01*
X89675607Y-115252500D01*
X89917511Y-115131547D01*
X91731797Y-115131547D02*
X93183226Y-115131547D01*
X92457511Y-117671547D02*
X92457511Y-115131547D01*
X94513702Y-116462023D02*
X94513702Y-117671547D01*
X93667035Y-115131547D02*
X94513702Y-116462023D01*
X95360369Y-115131547D01*
X96207035Y-117671547D02*
X96207035Y-115131547D01*
X97174654Y-115131547D01*
X97416559Y-115252500D01*
X97537511Y-115373452D01*
X97658464Y-115615357D01*
X97658464Y-115978214D01*
X97537511Y-116220119D01*
X97416559Y-116341071D01*
X97174654Y-116462023D01*
X96207035Y-116462023D01*
X98747035Y-116341071D02*
X99593702Y-116341071D01*
X99956559Y-117671547D02*
X98747035Y-117671547D01*
X98747035Y-115131547D01*
X99956559Y-115131547D01*
D12*
%TO.C,R3*%
X72930000Y-62130000D02*
X72930000Y-64870000D01*
X72930000Y-64870000D02*
X79470000Y-64870000D01*
X79470000Y-64870000D02*
X79470000Y-62130000D01*
X79470000Y-62130000D02*
X72930000Y-62130000D01*
X72160000Y-63500000D02*
X72930000Y-63500000D01*
X80240000Y-63500000D02*
X79470000Y-63500000D01*
%TO.C,R2*%
X123730000Y-62130000D02*
X123730000Y-64870000D01*
X123730000Y-64870000D02*
X130270000Y-64870000D01*
X130270000Y-64870000D02*
X130270000Y-62130000D01*
X130270000Y-62130000D02*
X123730000Y-62130000D01*
X122960000Y-63500000D02*
X123730000Y-63500000D01*
X131040000Y-63500000D02*
X130270000Y-63500000D01*
%TO.C,R1*%
X80550000Y-102770000D02*
X80550000Y-105510000D01*
X80550000Y-105510000D02*
X87090000Y-105510000D01*
X87090000Y-105510000D02*
X87090000Y-102770000D01*
X87090000Y-102770000D02*
X80550000Y-102770000D01*
X79780000Y-104140000D02*
X80550000Y-104140000D01*
X87860000Y-104140000D02*
X87090000Y-104140000D01*
%TO.C,C4*%
X72930000Y-67210000D02*
X72930000Y-69950000D01*
X72930000Y-69950000D02*
X79470000Y-69950000D01*
X79470000Y-69950000D02*
X79470000Y-67210000D01*
X79470000Y-67210000D02*
X72930000Y-67210000D01*
X72160000Y-68580000D02*
X72930000Y-68580000D01*
X80240000Y-68580000D02*
X79470000Y-68580000D01*
%TO.C,C3*%
X123730000Y-67210000D02*
X123730000Y-69950000D01*
X123730000Y-69950000D02*
X130270000Y-69950000D01*
X130270000Y-69950000D02*
X130270000Y-67210000D01*
X130270000Y-67210000D02*
X123730000Y-67210000D01*
X122960000Y-68580000D02*
X123730000Y-68580000D01*
X131040000Y-68580000D02*
X130270000Y-68580000D01*
%TO.C,C2*%
X72290000Y-97250000D02*
X75030000Y-97250000D01*
X75030000Y-97250000D02*
X75030000Y-90710000D01*
X75030000Y-90710000D02*
X72290000Y-90710000D01*
X72290000Y-90710000D02*
X72290000Y-97250000D01*
X73660000Y-98020000D02*
X73660000Y-97250000D01*
X73660000Y-89940000D02*
X73660000Y-90710000D01*
%TO.C,C1*%
X65310000Y-102770000D02*
X65310000Y-105510000D01*
X65310000Y-105510000D02*
X71850000Y-105510000D01*
X71850000Y-105510000D02*
X71850000Y-102770000D01*
X71850000Y-102770000D02*
X65310000Y-102770000D01*
X64540000Y-104140000D02*
X65310000Y-104140000D01*
X72620000Y-104140000D02*
X71850000Y-104140000D01*
%TO.C,TP7*%
X103300000Y-63500000D02*
G75*
G03*
X103300000Y-63500000I-1700000J0D01*
G01*
%TO.C,TP6*%
X113460000Y-63500000D02*
G75*
G03*
X113460000Y-63500000I-1700000J0D01*
G01*
%TO.C,TP5*%
X141400000Y-91440000D02*
G75*
G03*
X141400000Y-91440000I-1700000J0D01*
G01*
%TO.C,TP4*%
X141400000Y-101600000D02*
G75*
G03*
X141400000Y-101600000I-1700000J0D01*
G01*
%TO.C,TP3*%
X118540000Y-114300000D02*
G75*
G03*
X118540000Y-114300000I-1700000J0D01*
G01*
%TO.C,TP2*%
X108380000Y-114300000D02*
G75*
G03*
X108380000Y-114300000I-1700000J0D01*
G01*
%TO.C,TP1*%
X65200000Y-93472000D02*
G75*
G03*
X65200000Y-93472000I-1700000J0D01*
G01*
%TO.C,U1*%
X111424128Y-88818128D02*
G75*
G03*
X111424128Y-88818128I-9906000J0D01*
G01*
X108960328Y-77718328D02*
X119475928Y-84931928D01*
X108503128Y-77388128D02*
X110535128Y-78785128D01*
X109061928Y-100019528D02*
X119806128Y-92475728D01*
X83636528Y-84830328D02*
X94050528Y-77718328D01*
X83585728Y-92602728D02*
X84246128Y-93212328D01*
X83585728Y-92805928D02*
X94939528Y-100705328D01*
X118910273Y-84579450D02*
G75*
G02*
X121457128Y-88818128I-2253745J-4238678D01*
G01*
X83979429Y-92975569D02*
G75*
G02*
X83695267Y-84838251I2400299J4157441D01*
G01*
X121457129Y-88818128D02*
G75*
G02*
X119612073Y-92601053I-4800601J0D01*
G01*
X109254183Y-99866359D02*
G75*
G02*
X94571604Y-100379086I-7736055J11048231D01*
G01*
X94061291Y-77762912D02*
G75*
G02*
X109166770Y-77894736I7456837J-11055216D01*
G01*
D13*
%TO.C,G\u002A\u002A\u002A*%
G36*
X73650497Y-112247841D02*
G01*
X73667933Y-112248488D01*
X73678683Y-112249868D01*
X73684481Y-112252227D01*
X73687064Y-112255810D01*
X73687312Y-112256570D01*
X73688537Y-112262166D01*
X73691761Y-112277346D01*
X73696909Y-112301744D01*
X73703904Y-112334999D01*
X73712670Y-112376746D01*
X73723132Y-112426623D01*
X73735213Y-112484267D01*
X73748838Y-112549314D01*
X73763930Y-112621400D01*
X73780413Y-112700164D01*
X73798212Y-112785240D01*
X73817251Y-112876267D01*
X73837452Y-112972881D01*
X73858742Y-113074719D01*
X73881043Y-113181417D01*
X73904279Y-113292613D01*
X73928375Y-113407942D01*
X73953255Y-113527043D01*
X73978842Y-113649551D01*
X74005061Y-113775103D01*
X74031835Y-113903336D01*
X74043589Y-113959640D01*
X74070596Y-114088994D01*
X74097087Y-114215858D01*
X74122985Y-114339867D01*
X74148216Y-114460656D01*
X74172702Y-114577860D01*
X74196367Y-114691114D01*
X74219134Y-114800053D01*
X74240927Y-114904311D01*
X74261671Y-115003524D01*
X74281288Y-115097327D01*
X74299702Y-115185354D01*
X74316836Y-115267241D01*
X74332615Y-115342622D01*
X74346963Y-115411133D01*
X74359801Y-115472408D01*
X74371055Y-115526083D01*
X74380648Y-115571792D01*
X74388504Y-115609170D01*
X74394545Y-115637853D01*
X74398697Y-115657475D01*
X74400882Y-115667671D01*
X74401196Y-115669060D01*
X74403609Y-115677405D01*
X74405499Y-115678620D01*
X74407792Y-115671715D01*
X74410710Y-115658900D01*
X74412330Y-115651781D01*
X74416140Y-115635185D01*
X74422042Y-115609532D01*
X74429940Y-115575243D01*
X74439736Y-115532740D01*
X74451332Y-115482445D01*
X74464633Y-115424777D01*
X74479540Y-115360160D01*
X74495956Y-115289013D01*
X74513785Y-115211758D01*
X74532928Y-115128816D01*
X74553289Y-115040609D01*
X74574770Y-114947558D01*
X74597275Y-114850084D01*
X74620706Y-114748609D01*
X74644965Y-114643553D01*
X74669956Y-114535338D01*
X74695582Y-114424385D01*
X74714338Y-114343180D01*
X74745751Y-114207185D01*
X74774958Y-114080732D01*
X74802035Y-113963458D01*
X74827057Y-113855005D01*
X74850100Y-113755012D01*
X74871241Y-113663119D01*
X74890555Y-113578966D01*
X74908118Y-113502193D01*
X74924006Y-113432440D01*
X74938294Y-113369347D01*
X74951060Y-113312553D01*
X74962378Y-113261700D01*
X74972324Y-113216426D01*
X74980974Y-113176371D01*
X74988405Y-113141177D01*
X74994692Y-113110482D01*
X74999911Y-113083926D01*
X75004137Y-113061150D01*
X75007448Y-113041793D01*
X75009918Y-113025495D01*
X75011623Y-113011897D01*
X75012640Y-113000638D01*
X75013043Y-112991357D01*
X75012910Y-112983697D01*
X75012316Y-112977295D01*
X75011337Y-112971792D01*
X75010049Y-112966828D01*
X75008527Y-112962042D01*
X75006847Y-112957076D01*
X75006602Y-112956340D01*
X74991641Y-112925657D01*
X74969555Y-112902180D01*
X74940449Y-112885972D01*
X74904424Y-112877098D01*
X74876660Y-112875288D01*
X74853898Y-112875678D01*
X74832022Y-112876919D01*
X74815471Y-112878751D01*
X74814430Y-112878930D01*
X74792840Y-112882800D01*
X74792840Y-112628680D01*
X75554840Y-112628680D01*
X75554840Y-112756950D01*
X75554841Y-112885220D01*
X75502770Y-112885220D01*
X75478094Y-112885485D01*
X75460598Y-112886633D01*
X75447312Y-112889190D01*
X75435263Y-112893683D01*
X75424345Y-112899115D01*
X75395022Y-112920058D01*
X75372361Y-112948573D01*
X75367445Y-112957409D01*
X75365974Y-112963070D01*
X75362384Y-112978337D01*
X75356745Y-113002894D01*
X75349126Y-113036426D01*
X75339599Y-113078618D01*
X75328233Y-113129154D01*
X75315099Y-113187719D01*
X75300267Y-113253997D01*
X75283807Y-113327673D01*
X75265788Y-113408432D01*
X75246282Y-113495958D01*
X75225359Y-113589936D01*
X75203088Y-113690050D01*
X75179540Y-113795985D01*
X75154785Y-113907426D01*
X75128893Y-114024056D01*
X75101935Y-114145562D01*
X75073980Y-114271626D01*
X75045099Y-114401935D01*
X75015362Y-114536172D01*
X74984838Y-114674022D01*
X74953599Y-114815170D01*
X74921715Y-114959300D01*
X74889255Y-115106096D01*
X74869009Y-115197689D01*
X74836237Y-115345968D01*
X74804011Y-115491776D01*
X74772400Y-115634797D01*
X74741474Y-115774715D01*
X74711303Y-115911215D01*
X74681956Y-116043982D01*
X74653504Y-116172700D01*
X74626016Y-116297055D01*
X74599561Y-116416729D01*
X74574210Y-116531409D01*
X74550032Y-116640779D01*
X74527097Y-116744522D01*
X74505475Y-116842325D01*
X74485235Y-116933871D01*
X74466447Y-117018845D01*
X74449181Y-117096931D01*
X74433507Y-117167815D01*
X74419494Y-117231180D01*
X74407212Y-117286712D01*
X74396730Y-117334094D01*
X74388120Y-117373012D01*
X74381449Y-117403150D01*
X74376789Y-117424193D01*
X74374208Y-117435825D01*
X74373684Y-117438170D01*
X74372204Y-117442781D01*
X74369192Y-117445949D01*
X74362978Y-117447944D01*
X74351893Y-117449036D01*
X74334265Y-117449498D01*
X74308425Y-117449599D01*
X74303218Y-117449600D01*
X74235430Y-117449600D01*
X74227226Y-117407690D01*
X74225605Y-117399376D01*
X74222123Y-117381482D01*
X74216855Y-117354402D01*
X74209879Y-117318527D01*
X74201269Y-117274253D01*
X74191104Y-117221971D01*
X74179459Y-117162075D01*
X74166411Y-117094958D01*
X74152036Y-117021014D01*
X74136411Y-116940636D01*
X74119612Y-116854217D01*
X74101716Y-116762150D01*
X74082799Y-116664828D01*
X74062937Y-116562646D01*
X74042207Y-116455995D01*
X74020685Y-116345269D01*
X73998448Y-116230862D01*
X73975573Y-116113167D01*
X73952135Y-115992577D01*
X73928211Y-115869485D01*
X73918903Y-115821596D01*
X73894903Y-115698128D01*
X73871395Y-115577246D01*
X73848456Y-115459330D01*
X73826159Y-115344759D01*
X73804579Y-115233914D01*
X73783789Y-115127174D01*
X73763863Y-115024920D01*
X73744877Y-114927532D01*
X73726904Y-114835389D01*
X73710018Y-114748872D01*
X73694294Y-114668360D01*
X73679805Y-114594234D01*
X73666627Y-114526873D01*
X73654832Y-114466658D01*
X73644496Y-114413968D01*
X73635693Y-114369183D01*
X73628496Y-114332684D01*
X73622980Y-114304851D01*
X73619220Y-114286062D01*
X73617288Y-114276700D01*
X73617037Y-114275663D01*
X73616895Y-114275053D01*
X73616855Y-114273875D01*
X73616866Y-114272475D01*
X73616873Y-114271199D01*
X73616822Y-114270393D01*
X73616662Y-114270403D01*
X73616337Y-114271574D01*
X73615795Y-114274253D01*
X73614982Y-114278785D01*
X73613845Y-114285515D01*
X73612331Y-114294791D01*
X73610386Y-114306957D01*
X73607956Y-114322359D01*
X73604989Y-114341344D01*
X73601431Y-114364257D01*
X73597229Y-114391444D01*
X73592329Y-114423250D01*
X73586678Y-114460022D01*
X73580222Y-114502105D01*
X73572908Y-114549846D01*
X73564683Y-114603589D01*
X73555493Y-114663681D01*
X73545284Y-114730468D01*
X73534005Y-114804295D01*
X73521600Y-114885509D01*
X73508018Y-114974454D01*
X73493203Y-115071478D01*
X73477104Y-115176925D01*
X73459666Y-115291141D01*
X73440836Y-115414473D01*
X73420561Y-115547267D01*
X73405843Y-115643660D01*
X73387801Y-115761816D01*
X73369907Y-115878998D01*
X73352240Y-115994688D01*
X73334879Y-116108368D01*
X73317902Y-116219522D01*
X73301390Y-116327632D01*
X73285421Y-116432182D01*
X73270073Y-116532654D01*
X73255427Y-116628531D01*
X73241560Y-116719296D01*
X73228553Y-116804432D01*
X73216483Y-116883421D01*
X73205430Y-116955748D01*
X73195474Y-117020893D01*
X73186692Y-117078342D01*
X73179164Y-117127575D01*
X73172969Y-117168077D01*
X73168186Y-117199330D01*
X73166229Y-117212110D01*
X73129841Y-117449600D01*
X72979671Y-117449600D01*
X72974611Y-117430550D01*
X72973131Y-117424372D01*
X72969421Y-117408617D01*
X72963554Y-117383601D01*
X72955606Y-117349642D01*
X72945650Y-117307057D01*
X72933761Y-117256164D01*
X72920011Y-117197280D01*
X72904475Y-117130723D01*
X72887228Y-117056810D01*
X72868343Y-116975858D01*
X72847894Y-116888185D01*
X72825955Y-116794109D01*
X72802601Y-116693946D01*
X72777904Y-116588014D01*
X72751940Y-116476631D01*
X72724782Y-116360113D01*
X72696505Y-116238779D01*
X72667182Y-116112946D01*
X72636887Y-115982931D01*
X72605694Y-115849052D01*
X72573678Y-115711625D01*
X72540912Y-115570969D01*
X72507471Y-115427401D01*
X72473427Y-115281238D01*
X72456086Y-115206780D01*
X72421752Y-115059367D01*
X72387973Y-114914363D01*
X72354823Y-114772086D01*
X72322377Y-114632855D01*
X72290710Y-114496988D01*
X72259896Y-114364805D01*
X72230008Y-114236623D01*
X72201123Y-114112761D01*
X72173313Y-113993539D01*
X72146654Y-113879274D01*
X72121219Y-113770286D01*
X72097084Y-113666893D01*
X72074322Y-113569413D01*
X72053009Y-113478166D01*
X72033217Y-113393470D01*
X72015023Y-113315643D01*
X71998500Y-113245005D01*
X71983722Y-113181874D01*
X71970765Y-113126569D01*
X71959701Y-113079408D01*
X71950607Y-113040710D01*
X71943556Y-113010794D01*
X71938622Y-112989978D01*
X71935881Y-112978582D01*
X71935358Y-112976523D01*
X71921527Y-112945939D01*
X71899157Y-112919348D01*
X71869390Y-112897669D01*
X71833370Y-112881820D01*
X71809604Y-112875566D01*
X71777860Y-112869094D01*
X71775136Y-112628680D01*
X72623680Y-112628680D01*
X72623680Y-112872409D01*
X72578694Y-112869216D01*
X72556038Y-112867911D01*
X72540030Y-112868153D01*
X72527220Y-112870395D01*
X72514153Y-112875093D01*
X72505760Y-112878817D01*
X72478490Y-112895867D01*
X72457969Y-112919243D01*
X72443912Y-112949508D01*
X72436033Y-112987222D01*
X72434017Y-113019840D01*
X72434061Y-113024798D01*
X72434375Y-113030574D01*
X72435043Y-113037532D01*
X72436147Y-113046038D01*
X72437768Y-113056458D01*
X72439991Y-113069157D01*
X72442896Y-113084500D01*
X72446566Y-113102853D01*
X72451085Y-113124582D01*
X72456534Y-113150052D01*
X72462995Y-113179629D01*
X72470552Y-113213678D01*
X72479286Y-113252564D01*
X72489280Y-113296654D01*
X72500617Y-113346313D01*
X72513379Y-113401906D01*
X72527648Y-113463799D01*
X72543507Y-113532358D01*
X72561038Y-113607947D01*
X72580323Y-113690933D01*
X72601446Y-113781681D01*
X72624489Y-113880556D01*
X72649533Y-113987925D01*
X72676662Y-114104152D01*
X72705958Y-114229604D01*
X72731895Y-114340640D01*
X72758032Y-114452496D01*
X72783587Y-114561806D01*
X72808461Y-114668153D01*
X72832556Y-114771122D01*
X72855776Y-114870296D01*
X72878022Y-114965258D01*
X72899196Y-115055594D01*
X72919200Y-115140886D01*
X72937938Y-115220718D01*
X72955311Y-115294675D01*
X72971222Y-115362341D01*
X72985572Y-115423298D01*
X72998264Y-115477131D01*
X73009201Y-115523425D01*
X73018284Y-115561762D01*
X73025415Y-115591726D01*
X73030498Y-115612902D01*
X73033434Y-115624873D01*
X73034148Y-115627527D01*
X73035240Y-115623356D01*
X73037832Y-115609430D01*
X73041878Y-115586033D01*
X73047332Y-115553453D01*
X73054150Y-115511976D01*
X73062287Y-115461888D01*
X73071696Y-115403474D01*
X73082333Y-115337022D01*
X73094153Y-115262816D01*
X73107109Y-115181144D01*
X73121157Y-115092292D01*
X73136252Y-114996545D01*
X73152348Y-114894190D01*
X73169400Y-114785512D01*
X73187363Y-114670799D01*
X73206191Y-114550336D01*
X73225839Y-114424409D01*
X73246261Y-114293304D01*
X73267414Y-114157308D01*
X73289250Y-114016706D01*
X73296273Y-113971447D01*
X73316286Y-113842444D01*
X73335923Y-113715882D01*
X73355126Y-113592138D01*
X73373835Y-113471590D01*
X73391992Y-113354615D01*
X73409538Y-113241593D01*
X73426415Y-113132899D01*
X73442564Y-113028912D01*
X73457925Y-112930009D01*
X73472442Y-112836569D01*
X73486054Y-112748968D01*
X73498703Y-112667585D01*
X73510330Y-112592797D01*
X73520878Y-112524982D01*
X73530286Y-112464518D01*
X73538497Y-112411781D01*
X73545451Y-112367150D01*
X73551090Y-112331003D01*
X73555356Y-112303717D01*
X73558189Y-112285670D01*
X73559531Y-112277240D01*
X73559590Y-112276890D01*
X73564565Y-112247680D01*
X73624640Y-112247680D01*
X73650497Y-112247841D01*
G37*
X73650497Y-112247841D02*
X73667933Y-112248488D01*
X73678683Y-112249868D01*
X73684481Y-112252227D01*
X73687064Y-112255810D01*
X73687312Y-112256570D01*
X73688537Y-112262166D01*
X73691761Y-112277346D01*
X73696909Y-112301744D01*
X73703904Y-112334999D01*
X73712670Y-112376746D01*
X73723132Y-112426623D01*
X73735213Y-112484267D01*
X73748838Y-112549314D01*
X73763930Y-112621400D01*
X73780413Y-112700164D01*
X73798212Y-112785240D01*
X73817251Y-112876267D01*
X73837452Y-112972881D01*
X73858742Y-113074719D01*
X73881043Y-113181417D01*
X73904279Y-113292613D01*
X73928375Y-113407942D01*
X73953255Y-113527043D01*
X73978842Y-113649551D01*
X74005061Y-113775103D01*
X74031835Y-113903336D01*
X74043589Y-113959640D01*
X74070596Y-114088994D01*
X74097087Y-114215858D01*
X74122985Y-114339867D01*
X74148216Y-114460656D01*
X74172702Y-114577860D01*
X74196367Y-114691114D01*
X74219134Y-114800053D01*
X74240927Y-114904311D01*
X74261671Y-115003524D01*
X74281288Y-115097327D01*
X74299702Y-115185354D01*
X74316836Y-115267241D01*
X74332615Y-115342622D01*
X74346963Y-115411133D01*
X74359801Y-115472408D01*
X74371055Y-115526083D01*
X74380648Y-115571792D01*
X74388504Y-115609170D01*
X74394545Y-115637853D01*
X74398697Y-115657475D01*
X74400882Y-115667671D01*
X74401196Y-115669060D01*
X74403609Y-115677405D01*
X74405499Y-115678620D01*
X74407792Y-115671715D01*
X74410710Y-115658900D01*
X74412330Y-115651781D01*
X74416140Y-115635185D01*
X74422042Y-115609532D01*
X74429940Y-115575243D01*
X74439736Y-115532740D01*
X74451332Y-115482445D01*
X74464633Y-115424777D01*
X74479540Y-115360160D01*
X74495956Y-115289013D01*
X74513785Y-115211758D01*
X74532928Y-115128816D01*
X74553289Y-115040609D01*
X74574770Y-114947558D01*
X74597275Y-114850084D01*
X74620706Y-114748609D01*
X74644965Y-114643553D01*
X74669956Y-114535338D01*
X74695582Y-114424385D01*
X74714338Y-114343180D01*
X74745751Y-114207185D01*
X74774958Y-114080732D01*
X74802035Y-113963458D01*
X74827057Y-113855005D01*
X74850100Y-113755012D01*
X74871241Y-113663119D01*
X74890555Y-113578966D01*
X74908118Y-113502193D01*
X74924006Y-113432440D01*
X74938294Y-113369347D01*
X74951060Y-113312553D01*
X74962378Y-113261700D01*
X74972324Y-113216426D01*
X74980974Y-113176371D01*
X74988405Y-113141177D01*
X74994692Y-113110482D01*
X74999911Y-113083926D01*
X75004137Y-113061150D01*
X75007448Y-113041793D01*
X75009918Y-113025495D01*
X75011623Y-113011897D01*
X75012640Y-113000638D01*
X75013043Y-112991357D01*
X75012910Y-112983697D01*
X75012316Y-112977295D01*
X75011337Y-112971792D01*
X75010049Y-112966828D01*
X75008527Y-112962042D01*
X75006847Y-112957076D01*
X75006602Y-112956340D01*
X74991641Y-112925657D01*
X74969555Y-112902180D01*
X74940449Y-112885972D01*
X74904424Y-112877098D01*
X74876660Y-112875288D01*
X74853898Y-112875678D01*
X74832022Y-112876919D01*
X74815471Y-112878751D01*
X74814430Y-112878930D01*
X74792840Y-112882800D01*
X74792840Y-112628680D01*
X75554840Y-112628680D01*
X75554840Y-112756950D01*
X75554841Y-112885220D01*
X75502770Y-112885220D01*
X75478094Y-112885485D01*
X75460598Y-112886633D01*
X75447312Y-112889190D01*
X75435263Y-112893683D01*
X75424345Y-112899115D01*
X75395022Y-112920058D01*
X75372361Y-112948573D01*
X75367445Y-112957409D01*
X75365974Y-112963070D01*
X75362384Y-112978337D01*
X75356745Y-113002894D01*
X75349126Y-113036426D01*
X75339599Y-113078618D01*
X75328233Y-113129154D01*
X75315099Y-113187719D01*
X75300267Y-113253997D01*
X75283807Y-113327673D01*
X75265788Y-113408432D01*
X75246282Y-113495958D01*
X75225359Y-113589936D01*
X75203088Y-113690050D01*
X75179540Y-113795985D01*
X75154785Y-113907426D01*
X75128893Y-114024056D01*
X75101935Y-114145562D01*
X75073980Y-114271626D01*
X75045099Y-114401935D01*
X75015362Y-114536172D01*
X74984838Y-114674022D01*
X74953599Y-114815170D01*
X74921715Y-114959300D01*
X74889255Y-115106096D01*
X74869009Y-115197689D01*
X74836237Y-115345968D01*
X74804011Y-115491776D01*
X74772400Y-115634797D01*
X74741474Y-115774715D01*
X74711303Y-115911215D01*
X74681956Y-116043982D01*
X74653504Y-116172700D01*
X74626016Y-116297055D01*
X74599561Y-116416729D01*
X74574210Y-116531409D01*
X74550032Y-116640779D01*
X74527097Y-116744522D01*
X74505475Y-116842325D01*
X74485235Y-116933871D01*
X74466447Y-117018845D01*
X74449181Y-117096931D01*
X74433507Y-117167815D01*
X74419494Y-117231180D01*
X74407212Y-117286712D01*
X74396730Y-117334094D01*
X74388120Y-117373012D01*
X74381449Y-117403150D01*
X74376789Y-117424193D01*
X74374208Y-117435825D01*
X74373684Y-117438170D01*
X74372204Y-117442781D01*
X74369192Y-117445949D01*
X74362978Y-117447944D01*
X74351893Y-117449036D01*
X74334265Y-117449498D01*
X74308425Y-117449599D01*
X74303218Y-117449600D01*
X74235430Y-117449600D01*
X74227226Y-117407690D01*
X74225605Y-117399376D01*
X74222123Y-117381482D01*
X74216855Y-117354402D01*
X74209879Y-117318527D01*
X74201269Y-117274253D01*
X74191104Y-117221971D01*
X74179459Y-117162075D01*
X74166411Y-117094958D01*
X74152036Y-117021014D01*
X74136411Y-116940636D01*
X74119612Y-116854217D01*
X74101716Y-116762150D01*
X74082799Y-116664828D01*
X74062937Y-116562646D01*
X74042207Y-116455995D01*
X74020685Y-116345269D01*
X73998448Y-116230862D01*
X73975573Y-116113167D01*
X73952135Y-115992577D01*
X73928211Y-115869485D01*
X73918903Y-115821596D01*
X73894903Y-115698128D01*
X73871395Y-115577246D01*
X73848456Y-115459330D01*
X73826159Y-115344759D01*
X73804579Y-115233914D01*
X73783789Y-115127174D01*
X73763863Y-115024920D01*
X73744877Y-114927532D01*
X73726904Y-114835389D01*
X73710018Y-114748872D01*
X73694294Y-114668360D01*
X73679805Y-114594234D01*
X73666627Y-114526873D01*
X73654832Y-114466658D01*
X73644496Y-114413968D01*
X73635693Y-114369183D01*
X73628496Y-114332684D01*
X73622980Y-114304851D01*
X73619220Y-114286062D01*
X73617288Y-114276700D01*
X73617037Y-114275663D01*
X73616895Y-114275053D01*
X73616855Y-114273875D01*
X73616866Y-114272475D01*
X73616873Y-114271199D01*
X73616822Y-114270393D01*
X73616662Y-114270403D01*
X73616337Y-114271574D01*
X73615795Y-114274253D01*
X73614982Y-114278785D01*
X73613845Y-114285515D01*
X73612331Y-114294791D01*
X73610386Y-114306957D01*
X73607956Y-114322359D01*
X73604989Y-114341344D01*
X73601431Y-114364257D01*
X73597229Y-114391444D01*
X73592329Y-114423250D01*
X73586678Y-114460022D01*
X73580222Y-114502105D01*
X73572908Y-114549846D01*
X73564683Y-114603589D01*
X73555493Y-114663681D01*
X73545284Y-114730468D01*
X73534005Y-114804295D01*
X73521600Y-114885509D01*
X73508018Y-114974454D01*
X73493203Y-115071478D01*
X73477104Y-115176925D01*
X73459666Y-115291141D01*
X73440836Y-115414473D01*
X73420561Y-115547267D01*
X73405843Y-115643660D01*
X73387801Y-115761816D01*
X73369907Y-115878998D01*
X73352240Y-115994688D01*
X73334879Y-116108368D01*
X73317902Y-116219522D01*
X73301390Y-116327632D01*
X73285421Y-116432182D01*
X73270073Y-116532654D01*
X73255427Y-116628531D01*
X73241560Y-116719296D01*
X73228553Y-116804432D01*
X73216483Y-116883421D01*
X73205430Y-116955748D01*
X73195474Y-117020893D01*
X73186692Y-117078342D01*
X73179164Y-117127575D01*
X73172969Y-117168077D01*
X73168186Y-117199330D01*
X73166229Y-117212110D01*
X73129841Y-117449600D01*
X72979671Y-117449600D01*
X72974611Y-117430550D01*
X72973131Y-117424372D01*
X72969421Y-117408617D01*
X72963554Y-117383601D01*
X72955606Y-117349642D01*
X72945650Y-117307057D01*
X72933761Y-117256164D01*
X72920011Y-117197280D01*
X72904475Y-117130723D01*
X72887228Y-117056810D01*
X72868343Y-116975858D01*
X72847894Y-116888185D01*
X72825955Y-116794109D01*
X72802601Y-116693946D01*
X72777904Y-116588014D01*
X72751940Y-116476631D01*
X72724782Y-116360113D01*
X72696505Y-116238779D01*
X72667182Y-116112946D01*
X72636887Y-115982931D01*
X72605694Y-115849052D01*
X72573678Y-115711625D01*
X72540912Y-115570969D01*
X72507471Y-115427401D01*
X72473427Y-115281238D01*
X72456086Y-115206780D01*
X72421752Y-115059367D01*
X72387973Y-114914363D01*
X72354823Y-114772086D01*
X72322377Y-114632855D01*
X72290710Y-114496988D01*
X72259896Y-114364805D01*
X72230008Y-114236623D01*
X72201123Y-114112761D01*
X72173313Y-113993539D01*
X72146654Y-113879274D01*
X72121219Y-113770286D01*
X72097084Y-113666893D01*
X72074322Y-113569413D01*
X72053009Y-113478166D01*
X72033217Y-113393470D01*
X72015023Y-113315643D01*
X71998500Y-113245005D01*
X71983722Y-113181874D01*
X71970765Y-113126569D01*
X71959701Y-113079408D01*
X71950607Y-113040710D01*
X71943556Y-113010794D01*
X71938622Y-112989978D01*
X71935881Y-112978582D01*
X71935358Y-112976523D01*
X71921527Y-112945939D01*
X71899157Y-112919348D01*
X71869390Y-112897669D01*
X71833370Y-112881820D01*
X71809604Y-112875566D01*
X71777860Y-112869094D01*
X71775136Y-112628680D01*
X72623680Y-112628680D01*
X72623680Y-112872409D01*
X72578694Y-112869216D01*
X72556038Y-112867911D01*
X72540030Y-112868153D01*
X72527220Y-112870395D01*
X72514153Y-112875093D01*
X72505760Y-112878817D01*
X72478490Y-112895867D01*
X72457969Y-112919243D01*
X72443912Y-112949508D01*
X72436033Y-112987222D01*
X72434017Y-113019840D01*
X72434061Y-113024798D01*
X72434375Y-113030574D01*
X72435043Y-113037532D01*
X72436147Y-113046038D01*
X72437768Y-113056458D01*
X72439991Y-113069157D01*
X72442896Y-113084500D01*
X72446566Y-113102853D01*
X72451085Y-113124582D01*
X72456534Y-113150052D01*
X72462995Y-113179629D01*
X72470552Y-113213678D01*
X72479286Y-113252564D01*
X72489280Y-113296654D01*
X72500617Y-113346313D01*
X72513379Y-113401906D01*
X72527648Y-113463799D01*
X72543507Y-113532358D01*
X72561038Y-113607947D01*
X72580323Y-113690933D01*
X72601446Y-113781681D01*
X72624489Y-113880556D01*
X72649533Y-113987925D01*
X72676662Y-114104152D01*
X72705958Y-114229604D01*
X72731895Y-114340640D01*
X72758032Y-114452496D01*
X72783587Y-114561806D01*
X72808461Y-114668153D01*
X72832556Y-114771122D01*
X72855776Y-114870296D01*
X72878022Y-114965258D01*
X72899196Y-115055594D01*
X72919200Y-115140886D01*
X72937938Y-115220718D01*
X72955311Y-115294675D01*
X72971222Y-115362341D01*
X72985572Y-115423298D01*
X72998264Y-115477131D01*
X73009201Y-115523425D01*
X73018284Y-115561762D01*
X73025415Y-115591726D01*
X73030498Y-115612902D01*
X73033434Y-115624873D01*
X73034148Y-115627527D01*
X73035240Y-115623356D01*
X73037832Y-115609430D01*
X73041878Y-115586033D01*
X73047332Y-115553453D01*
X73054150Y-115511976D01*
X73062287Y-115461888D01*
X73071696Y-115403474D01*
X73082333Y-115337022D01*
X73094153Y-115262816D01*
X73107109Y-115181144D01*
X73121157Y-115092292D01*
X73136252Y-114996545D01*
X73152348Y-114894190D01*
X73169400Y-114785512D01*
X73187363Y-114670799D01*
X73206191Y-114550336D01*
X73225839Y-114424409D01*
X73246261Y-114293304D01*
X73267414Y-114157308D01*
X73289250Y-114016706D01*
X73296273Y-113971447D01*
X73316286Y-113842444D01*
X73335923Y-113715882D01*
X73355126Y-113592138D01*
X73373835Y-113471590D01*
X73391992Y-113354615D01*
X73409538Y-113241593D01*
X73426415Y-113132899D01*
X73442564Y-113028912D01*
X73457925Y-112930009D01*
X73472442Y-112836569D01*
X73486054Y-112748968D01*
X73498703Y-112667585D01*
X73510330Y-112592797D01*
X73520878Y-112524982D01*
X73530286Y-112464518D01*
X73538497Y-112411781D01*
X73545451Y-112367150D01*
X73551090Y-112331003D01*
X73555356Y-112303717D01*
X73558189Y-112285670D01*
X73559531Y-112277240D01*
X73559590Y-112276890D01*
X73564565Y-112247680D01*
X73624640Y-112247680D01*
X73650497Y-112247841D01*
G36*
X73687014Y-108353991D02*
G01*
X73732375Y-108356052D01*
X73773794Y-108359780D01*
X73808483Y-108365150D01*
X73811395Y-108365759D01*
X73890635Y-108387497D01*
X73964009Y-108417438D01*
X74031830Y-108455785D01*
X74094414Y-108502739D01*
X74152077Y-108558504D01*
X74198895Y-108614889D01*
X74220962Y-108646620D01*
X74243934Y-108683879D01*
X74266332Y-108723914D01*
X74286682Y-108763972D01*
X74303506Y-108801301D01*
X74314383Y-108830197D01*
X74319840Y-108846109D01*
X74324296Y-108857714D01*
X74326434Y-108861967D01*
X74332382Y-108864133D01*
X74345301Y-108867240D01*
X74358942Y-108869959D01*
X74399191Y-108879382D01*
X74444524Y-108893437D01*
X74491659Y-108910992D01*
X74537314Y-108930915D01*
X74541541Y-108932931D01*
X74614134Y-108972295D01*
X74681352Y-109017714D01*
X74742191Y-109068300D01*
X74795644Y-109123169D01*
X74840704Y-109181433D01*
X74861778Y-109215007D01*
X74884618Y-109254605D01*
X74939059Y-109257746D01*
X75045529Y-109265775D01*
X75144491Y-109277326D01*
X75238105Y-109292803D01*
X75328531Y-109312607D01*
X75417931Y-109337143D01*
X75490719Y-109360639D01*
X75621526Y-109410876D01*
X75748777Y-109470499D01*
X75872356Y-109539334D01*
X75992152Y-109617209D01*
X76108049Y-109703949D01*
X76219933Y-109799381D01*
X76327691Y-109903332D01*
X76431209Y-110015630D01*
X76530372Y-110136099D01*
X76625067Y-110264568D01*
X76715180Y-110400862D01*
X76800596Y-110544809D01*
X76881201Y-110696235D01*
X76956883Y-110854967D01*
X77027526Y-111020831D01*
X77093017Y-111193654D01*
X77153241Y-111373263D01*
X77208085Y-111559485D01*
X77257435Y-111752146D01*
X77301177Y-111951072D01*
X77339196Y-112156092D01*
X77342619Y-112176560D01*
X77359612Y-112283878D01*
X77374818Y-112390232D01*
X77388415Y-112497300D01*
X77400581Y-112606754D01*
X77411495Y-112720272D01*
X77421334Y-112839528D01*
X77430276Y-112966198D01*
X77435515Y-113050320D01*
X77437014Y-113082053D01*
X77438320Y-113122725D01*
X77439431Y-113171114D01*
X77440350Y-113226000D01*
X77441074Y-113286164D01*
X77441606Y-113350384D01*
X77441943Y-113417440D01*
X77442087Y-113486112D01*
X77442038Y-113555179D01*
X77441795Y-113623422D01*
X77441358Y-113689620D01*
X77440728Y-113752553D01*
X77439904Y-113810999D01*
X77438887Y-113863740D01*
X77437676Y-113909555D01*
X77436271Y-113947223D01*
X77435521Y-113962180D01*
X77420706Y-114190254D01*
X77402134Y-114410657D01*
X77379574Y-114625248D01*
X77352797Y-114835882D01*
X77321575Y-115044418D01*
X77285677Y-115252712D01*
X77258562Y-115394740D01*
X77203920Y-115652528D01*
X77143133Y-115905889D01*
X77076343Y-116154551D01*
X77003690Y-116398243D01*
X76925316Y-116636694D01*
X76841363Y-116869632D01*
X76751971Y-117096785D01*
X76657284Y-117317883D01*
X76557441Y-117532653D01*
X76452585Y-117740825D01*
X76342856Y-117942126D01*
X76228397Y-118136286D01*
X76109349Y-118323033D01*
X75985853Y-118502096D01*
X75858051Y-118673202D01*
X75726084Y-118836082D01*
X75590094Y-118990462D01*
X75450222Y-119136073D01*
X75306610Y-119272641D01*
X75180289Y-119382593D01*
X75043014Y-119491660D01*
X74901799Y-119593264D01*
X74757294Y-119687063D01*
X74610149Y-119772714D01*
X74461014Y-119849876D01*
X74310540Y-119918204D01*
X74159377Y-119977358D01*
X74008174Y-120026995D01*
X73900991Y-120056312D01*
X73837344Y-120072251D01*
X73821635Y-120095083D01*
X73804591Y-120118346D01*
X73784320Y-120143671D01*
X73762624Y-120169020D01*
X73741308Y-120192358D01*
X73722175Y-120211647D01*
X73707028Y-120224850D01*
X73706183Y-120225479D01*
X73683935Y-120239595D01*
X73665278Y-120245820D01*
X73647957Y-120244570D01*
X73634181Y-120238815D01*
X73620991Y-120229444D01*
X73603303Y-120213706D01*
X73582753Y-120193330D01*
X73560982Y-120170045D01*
X73539628Y-120145582D01*
X73520330Y-120121669D01*
X73510140Y-120107911D01*
X73497365Y-120090384D01*
X73487746Y-120079308D01*
X73478771Y-120072702D01*
X73467924Y-120068586D01*
X73456800Y-120065887D01*
X73432077Y-120059853D01*
X73399916Y-120051219D01*
X73362503Y-120040636D01*
X73322024Y-120028759D01*
X73280666Y-120016241D01*
X73240614Y-120003736D01*
X73204055Y-119991897D01*
X73173174Y-119981377D01*
X73168262Y-119979629D01*
X73002831Y-119914883D01*
X72840279Y-119840418D01*
X72680659Y-119756275D01*
X72524023Y-119662493D01*
X72370422Y-119559114D01*
X72219910Y-119446177D01*
X72072537Y-119323722D01*
X71928357Y-119191790D01*
X71787422Y-119050420D01*
X71649783Y-118899654D01*
X71515494Y-118739531D01*
X71449719Y-118656100D01*
X71324395Y-118487017D01*
X71202577Y-118308870D01*
X71084589Y-118122241D01*
X70970754Y-117927715D01*
X70861397Y-117725873D01*
X70756840Y-117517302D01*
X70657407Y-117302583D01*
X70563423Y-117082300D01*
X70528289Y-116994940D01*
X70427925Y-116728042D01*
X70335635Y-116455710D01*
X70251509Y-116178589D01*
X70175632Y-115897325D01*
X70108093Y-115612562D01*
X70048978Y-115324947D01*
X69998376Y-115035126D01*
X69956373Y-114743744D01*
X69923058Y-114451446D01*
X69898517Y-114158879D01*
X69882838Y-113866688D01*
X69876547Y-113594462D01*
X69986287Y-113594462D01*
X69988822Y-113759384D01*
X69993993Y-113921364D01*
X70001793Y-114077853D01*
X70005244Y-114132360D01*
X70030618Y-114439241D01*
X70065342Y-114743647D01*
X70109348Y-115045270D01*
X70162567Y-115343805D01*
X70224930Y-115638945D01*
X70296367Y-115930384D01*
X70376811Y-116217816D01*
X70466192Y-116500935D01*
X70564442Y-116779434D01*
X70650684Y-117001931D01*
X70715957Y-117157947D01*
X70786386Y-117315661D01*
X70860914Y-117472941D01*
X70938488Y-117627656D01*
X71018051Y-117777674D01*
X71098549Y-117920864D01*
X71142985Y-117996182D01*
X71259807Y-118183112D01*
X71380417Y-118361375D01*
X71504719Y-118530884D01*
X71632616Y-118691555D01*
X71764011Y-118843304D01*
X71898807Y-118986046D01*
X72036907Y-119119697D01*
X72178214Y-119244171D01*
X72322632Y-119359386D01*
X72470063Y-119465255D01*
X72620411Y-119561695D01*
X72773578Y-119648620D01*
X72929467Y-119725947D01*
X73087983Y-119793591D01*
X73249027Y-119851467D01*
X73282043Y-119862023D01*
X73309381Y-119870486D01*
X73333552Y-119877788D01*
X73352797Y-119883411D01*
X73365357Y-119886839D01*
X73369238Y-119887656D01*
X73372388Y-119885383D01*
X73370497Y-119876908D01*
X73367209Y-119868950D01*
X73356747Y-119843084D01*
X73345009Y-119810389D01*
X73332971Y-119773943D01*
X73321606Y-119736824D01*
X73311889Y-119702111D01*
X73304795Y-119672883D01*
X73304098Y-119669560D01*
X73299266Y-119641076D01*
X73294933Y-119606556D01*
X73291564Y-119570119D01*
X73289903Y-119543042D01*
X73286890Y-119475868D01*
X73396905Y-119475868D01*
X73397163Y-119520783D01*
X73397337Y-119524780D01*
X73406427Y-119611631D01*
X73425464Y-119698713D01*
X73454264Y-119785497D01*
X73492642Y-119871460D01*
X73540413Y-119956074D01*
X73558867Y-119984601D01*
X73584326Y-120021751D01*
X73605734Y-120050462D01*
X73623917Y-120071208D01*
X73639699Y-120084465D01*
X73653907Y-120090707D01*
X73667365Y-120090408D01*
X73680899Y-120084043D01*
X73695334Y-120072087D01*
X73701040Y-120066369D01*
X73718353Y-120046242D01*
X73738748Y-120019034D01*
X73760884Y-119986807D01*
X73783420Y-119951627D01*
X73805014Y-119915558D01*
X73824324Y-119880663D01*
X73833723Y-119862235D01*
X73863997Y-119793853D01*
X73889291Y-119722860D01*
X73908108Y-119653495D01*
X73909129Y-119648877D01*
X73916248Y-119607133D01*
X73920882Y-119560440D01*
X73923034Y-119511358D01*
X73922707Y-119462448D01*
X73919904Y-119416270D01*
X73914628Y-119375385D01*
X73908779Y-119348745D01*
X73898121Y-119327399D01*
X73878756Y-119306104D01*
X73852095Y-119285838D01*
X73819549Y-119267578D01*
X73782527Y-119252301D01*
X73759060Y-119245055D01*
X73740157Y-119241112D01*
X73715259Y-119237526D01*
X73688527Y-119234852D01*
X73676653Y-119234075D01*
X73631525Y-119234554D01*
X73587178Y-119240308D01*
X73544939Y-119250741D01*
X73506135Y-119265259D01*
X73472094Y-119283267D01*
X73444141Y-119304170D01*
X73423605Y-119327373D01*
X73411812Y-119352282D01*
X73411654Y-119352869D01*
X73404437Y-119388474D01*
X73399425Y-119430620D01*
X73396905Y-119475868D01*
X73286890Y-119475868D01*
X73286620Y-119469864D01*
X73200591Y-119435256D01*
X73055922Y-119371754D01*
X72912939Y-119298378D01*
X72771888Y-119215310D01*
X72633016Y-119122733D01*
X72622792Y-119115097D01*
X72821212Y-119115097D01*
X72822726Y-119118565D01*
X72832731Y-119126102D01*
X72850440Y-119137446D01*
X72874486Y-119151829D01*
X72903502Y-119168483D01*
X72936120Y-119186639D01*
X72970974Y-119205529D01*
X73006695Y-119224384D01*
X73041918Y-119242437D01*
X73052940Y-119247958D01*
X73081532Y-119261918D01*
X73113008Y-119276819D01*
X73145923Y-119292026D01*
X73178832Y-119306903D01*
X73210292Y-119320815D01*
X73238859Y-119333124D01*
X73263087Y-119343195D01*
X73281534Y-119350392D01*
X73292755Y-119354079D01*
X73294701Y-119354422D01*
X73297372Y-119350025D01*
X73301057Y-119338521D01*
X73303685Y-119327930D01*
X73317916Y-119287272D01*
X73341293Y-119250049D01*
X73373268Y-119216653D01*
X73413294Y-119187474D01*
X73460824Y-119162904D01*
X73515311Y-119143332D01*
X73576207Y-119129151D01*
X73583800Y-119127850D01*
X73637481Y-119122661D01*
X73693329Y-119123953D01*
X73749522Y-119131256D01*
X73804237Y-119144100D01*
X73855652Y-119162013D01*
X73901944Y-119184526D01*
X73941290Y-119211169D01*
X73955672Y-119223828D01*
X73978311Y-119249554D01*
X73997647Y-119279093D01*
X74011848Y-119309244D01*
X74018667Y-119333893D01*
X74021164Y-119346718D01*
X74023446Y-119353984D01*
X74024044Y-119354600D01*
X74032258Y-119352515D01*
X74048243Y-119346667D01*
X74070599Y-119337666D01*
X74097924Y-119326122D01*
X74128818Y-119312645D01*
X74161881Y-119297845D01*
X74195713Y-119282332D01*
X74228913Y-119266715D01*
X74256900Y-119253173D01*
X74288547Y-119237288D01*
X74322414Y-119219719D01*
X74357140Y-119201227D01*
X74391369Y-119182571D01*
X74423741Y-119164513D01*
X74452899Y-119147812D01*
X74477483Y-119133230D01*
X74496137Y-119121527D01*
X74507500Y-119113462D01*
X74509256Y-119111895D01*
X74507459Y-119107148D01*
X74499230Y-119098037D01*
X74486231Y-119086345D01*
X74482942Y-119083641D01*
X74422409Y-119031521D01*
X74360954Y-118972794D01*
X74300569Y-118909641D01*
X74243245Y-118844242D01*
X74190976Y-118778777D01*
X74145752Y-118715428D01*
X74143463Y-118711980D01*
X74131811Y-118693465D01*
X74117818Y-118669860D01*
X74102503Y-118643036D01*
X74086882Y-118614863D01*
X74071973Y-118587213D01*
X74058795Y-118561958D01*
X74048365Y-118540969D01*
X74041701Y-118526117D01*
X74040341Y-118522386D01*
X74035405Y-118521949D01*
X74022832Y-118527877D01*
X74002550Y-118540208D01*
X73982442Y-118553542D01*
X73950622Y-118574350D01*
X73915391Y-118596019D01*
X73878026Y-118617886D01*
X73839806Y-118639286D01*
X73802008Y-118659556D01*
X73765910Y-118678033D01*
X73732791Y-118694052D01*
X73703928Y-118706951D01*
X73680600Y-118716065D01*
X73664083Y-118720730D01*
X73659567Y-118721204D01*
X73648006Y-118718736D01*
X73629038Y-118711681D01*
X73603948Y-118700715D01*
X73574019Y-118686513D01*
X73540537Y-118669752D01*
X73504784Y-118651107D01*
X73468046Y-118631254D01*
X73431607Y-118610867D01*
X73396750Y-118590624D01*
X73364760Y-118571200D01*
X73336922Y-118553270D01*
X73325419Y-118545398D01*
X73293098Y-118522725D01*
X73258901Y-118590342D01*
X73214733Y-118669312D01*
X73161829Y-118749398D01*
X73101308Y-118829233D01*
X73034287Y-118907453D01*
X72961883Y-118982694D01*
X72885215Y-119053592D01*
X72865906Y-119070146D01*
X72845072Y-119088053D01*
X72831313Y-119100802D01*
X72823678Y-119109460D01*
X72821212Y-119115097D01*
X72622792Y-119115097D01*
X72496570Y-119020830D01*
X72362796Y-118909783D01*
X72231941Y-118789776D01*
X72104251Y-118660992D01*
X71995795Y-118541800D01*
X71866555Y-118387190D01*
X71741335Y-118223430D01*
X71620262Y-118050752D01*
X71503462Y-117869391D01*
X71391061Y-117679579D01*
X71283185Y-117481551D01*
X71255502Y-117426300D01*
X71382295Y-117426300D01*
X71384926Y-117433153D01*
X71391901Y-117447587D01*
X71402542Y-117468351D01*
X71416170Y-117494195D01*
X71432105Y-117523870D01*
X71449670Y-117556124D01*
X71468183Y-117589707D01*
X71486968Y-117623370D01*
X71505345Y-117655860D01*
X71522634Y-117685930D01*
X71531744Y-117701509D01*
X71630991Y-117864428D01*
X71731365Y-118018012D01*
X71833477Y-118163076D01*
X71937935Y-118300430D01*
X72045350Y-118430887D01*
X72156332Y-118555261D01*
X72232520Y-118635113D01*
X72339986Y-118740949D01*
X72446236Y-118837749D01*
X72552280Y-118926390D01*
X72659133Y-119007749D01*
X72681491Y-119023793D01*
X72706717Y-119041508D01*
X72725106Y-119053824D01*
X72737948Y-119061441D01*
X72746529Y-119065061D01*
X72752138Y-119065386D01*
X72755151Y-119063904D01*
X72762229Y-119058226D01*
X72775207Y-119047636D01*
X72792164Y-119033705D01*
X72809100Y-119019727D01*
X72827596Y-119003743D01*
X72851066Y-118982426D01*
X72877412Y-118957739D01*
X72904538Y-118931646D01*
X72928559Y-118907905D01*
X72998575Y-118834090D01*
X73059729Y-118761871D01*
X73112920Y-118690037D01*
X73159052Y-118617376D01*
X73196748Y-118547309D01*
X73230421Y-118479158D01*
X73215667Y-118468569D01*
X73206757Y-118461867D01*
X73191610Y-118450150D01*
X73171927Y-118434744D01*
X73149407Y-118416979D01*
X73133857Y-118404640D01*
X73027229Y-118315045D01*
X72920252Y-118215703D01*
X72813247Y-118107006D01*
X72706537Y-117989343D01*
X72600444Y-117863106D01*
X72495291Y-117728686D01*
X72391401Y-117586473D01*
X72289094Y-117436858D01*
X72188696Y-117280233D01*
X72138546Y-117198140D01*
X72122004Y-117170689D01*
X72107159Y-117146183D01*
X72094830Y-117125966D01*
X72085836Y-117111379D01*
X72080998Y-117103765D01*
X72080481Y-117103044D01*
X72075436Y-117104363D01*
X72064539Y-117110970D01*
X72049723Y-117121628D01*
X72041920Y-117127714D01*
X71965375Y-117183366D01*
X71880110Y-117235183D01*
X71786963Y-117282775D01*
X71686772Y-117325752D01*
X71580376Y-117363724D01*
X71468612Y-117396300D01*
X71460360Y-117398432D01*
X71428986Y-117406725D01*
X71406528Y-117413316D01*
X71391954Y-117418573D01*
X71384232Y-117422865D01*
X71382295Y-117426300D01*
X71255502Y-117426300D01*
X71179962Y-117275539D01*
X71081517Y-117061778D01*
X70987978Y-116840500D01*
X70899469Y-116611940D01*
X70816119Y-116376330D01*
X70804566Y-116341887D01*
X70715656Y-116059570D01*
X70636084Y-115774332D01*
X70565804Y-115485918D01*
X70504765Y-115194075D01*
X70452921Y-114898550D01*
X70410223Y-114599091D01*
X70376623Y-114295443D01*
X70352073Y-113987354D01*
X70350007Y-113954560D01*
X70347528Y-113907279D01*
X70345317Y-113851448D01*
X70343390Y-113788673D01*
X70341761Y-113720562D01*
X70340448Y-113648721D01*
X70339464Y-113574756D01*
X70338826Y-113500275D01*
X70338668Y-113458027D01*
X70450806Y-113458027D01*
X70450952Y-113511941D01*
X70451274Y-113563486D01*
X70451779Y-113611522D01*
X70452473Y-113654911D01*
X70453362Y-113692514D01*
X70454045Y-113713260D01*
X70469923Y-114013146D01*
X70494726Y-114310769D01*
X70528371Y-114605784D01*
X70570778Y-114897845D01*
X70621863Y-115186607D01*
X70681544Y-115471725D01*
X70749740Y-115752853D01*
X70826367Y-116029646D01*
X70911345Y-116301759D01*
X71004591Y-116568846D01*
X71106022Y-116830562D01*
X71215556Y-117086562D01*
X71299796Y-117267990D01*
X71315173Y-117299367D01*
X71327139Y-117322212D01*
X71336193Y-117337367D01*
X71342837Y-117345676D01*
X71347252Y-117348000D01*
X71355269Y-117346791D01*
X71371065Y-117343473D01*
X71392585Y-117338508D01*
X71417779Y-117332358D01*
X71426523Y-117330154D01*
X71534054Y-117299723D01*
X71636356Y-117264525D01*
X71732588Y-117224949D01*
X71821906Y-117181390D01*
X71903468Y-117134237D01*
X71976429Y-117083885D01*
X72005463Y-117060922D01*
X72040027Y-117032364D01*
X72018498Y-116993332D01*
X71989283Y-116940111D01*
X71963008Y-116891632D01*
X71938448Y-116845552D01*
X71914377Y-116799530D01*
X71889569Y-116751222D01*
X71862799Y-116698287D01*
X71834582Y-116641880D01*
X71786840Y-116544946D01*
X71743783Y-116455014D01*
X71704726Y-116370460D01*
X71668984Y-116289661D01*
X71635873Y-116210992D01*
X71604706Y-116132831D01*
X71574800Y-116053554D01*
X71545470Y-115971536D01*
X71518512Y-115892580D01*
X71445143Y-115659193D01*
X71381445Y-115426055D01*
X71327219Y-115192148D01*
X71282262Y-114956454D01*
X71246372Y-114717955D01*
X71219350Y-114475631D01*
X71206246Y-114312700D01*
X71202467Y-114247650D01*
X71199488Y-114175893D01*
X71197310Y-114099218D01*
X71195934Y-114019416D01*
X71195886Y-114012520D01*
X71336878Y-114012520D01*
X71340763Y-114165933D01*
X71348687Y-114321080D01*
X71360651Y-114476444D01*
X71361701Y-114487960D01*
X71384361Y-114692471D01*
X71414587Y-114898128D01*
X71452067Y-115103734D01*
X71496492Y-115308091D01*
X71547551Y-115510001D01*
X71604934Y-115708268D01*
X71668330Y-115901694D01*
X71737428Y-116089081D01*
X71811918Y-116269233D01*
X71839791Y-116331638D01*
X71929882Y-116522834D01*
X72023645Y-116709349D01*
X72120624Y-116890410D01*
X72220364Y-117065245D01*
X72322407Y-117233082D01*
X72426300Y-117393150D01*
X72531586Y-117544677D01*
X72637809Y-117686891D01*
X72646862Y-117698520D01*
X72728136Y-117798966D01*
X72813076Y-117897123D01*
X72900387Y-117991653D01*
X72988776Y-118081222D01*
X73076947Y-118164491D01*
X73163606Y-118240127D01*
X73202069Y-118271560D01*
X73235208Y-118297068D01*
X73274257Y-118325545D01*
X73316983Y-118355486D01*
X73361155Y-118385383D01*
X73404541Y-118413732D01*
X73444907Y-118439027D01*
X73480023Y-118459762D01*
X73486118Y-118463173D01*
X73510906Y-118476482D01*
X73538349Y-118490539D01*
X73566779Y-118504563D01*
X73594526Y-118517774D01*
X73619920Y-118529391D01*
X73641291Y-118538635D01*
X73656970Y-118544724D01*
X73665223Y-118546880D01*
X73671928Y-118544696D01*
X73686235Y-118538593D01*
X73706683Y-118529244D01*
X73731812Y-118517321D01*
X73760161Y-118503497D01*
X73769370Y-118498933D01*
X73815786Y-118474876D01*
X74101963Y-118474876D01*
X74104085Y-118480428D01*
X74109917Y-118493371D01*
X74118663Y-118511995D01*
X74129524Y-118534586D01*
X74134278Y-118544340D01*
X74181362Y-118630364D01*
X74238243Y-118715947D01*
X74305019Y-118801214D01*
X74381786Y-118886292D01*
X74444860Y-118948990D01*
X74460865Y-118963913D01*
X74479944Y-118981209D01*
X74500652Y-118999623D01*
X74521539Y-119017903D01*
X74541161Y-119034796D01*
X74558068Y-119049049D01*
X74570815Y-119059409D01*
X74577953Y-119064622D01*
X74578834Y-119065000D01*
X74583565Y-119062293D01*
X74594470Y-119055063D01*
X74609466Y-119044702D01*
X74614394Y-119041232D01*
X74753013Y-118937271D01*
X74888432Y-118823744D01*
X75020565Y-118700753D01*
X75149326Y-118568404D01*
X75274629Y-118426800D01*
X75396388Y-118276045D01*
X75514517Y-118116244D01*
X75628932Y-117947500D01*
X75739545Y-117769917D01*
X75846271Y-117583599D01*
X75899799Y-117484066D01*
X75936473Y-117414392D01*
X75922186Y-117411183D01*
X75825060Y-117386449D01*
X75729168Y-117356365D01*
X75635901Y-117321554D01*
X75546654Y-117282639D01*
X75462820Y-117240243D01*
X75385792Y-117194990D01*
X75316964Y-117147501D01*
X75295844Y-117131090D01*
X75277245Y-117116750D01*
X75261405Y-117105628D01*
X75249997Y-117098826D01*
X75244698Y-117097445D01*
X75244692Y-117097451D01*
X75241012Y-117102844D01*
X75232920Y-117115665D01*
X75221211Y-117134619D01*
X75206684Y-117158411D01*
X75190134Y-117185746D01*
X75181145Y-117200680D01*
X75120575Y-117299050D01*
X75055521Y-117400208D01*
X74987681Y-117501657D01*
X74918751Y-117600900D01*
X74850429Y-117695441D01*
X74791581Y-117773515D01*
X74702153Y-117885753D01*
X74610316Y-117993723D01*
X74516971Y-118096495D01*
X74423015Y-118193141D01*
X74329349Y-118282733D01*
X74236872Y-118364342D01*
X74156070Y-118429682D01*
X74136198Y-118445263D01*
X74119609Y-118458729D01*
X74107785Y-118468841D01*
X74102208Y-118474362D01*
X74101963Y-118474876D01*
X73815786Y-118474876D01*
X73838722Y-118462989D01*
X73903389Y-118426263D01*
X73965700Y-118387245D01*
X74027988Y-118344420D01*
X74092585Y-118296277D01*
X74142600Y-118256855D01*
X74251519Y-118164166D01*
X74360070Y-118061560D01*
X74468078Y-117949280D01*
X74575364Y-117827566D01*
X74681754Y-117696662D01*
X74787070Y-117556808D01*
X74891136Y-117408247D01*
X74993775Y-117251219D01*
X75094811Y-117085968D01*
X75129777Y-117024941D01*
X75284286Y-117024941D01*
X75303993Y-117041856D01*
X75381772Y-117102342D01*
X75468353Y-117157853D01*
X75563659Y-117208351D01*
X75667611Y-117253799D01*
X75780132Y-117294157D01*
X75884303Y-117324931D01*
X75909435Y-117331476D01*
X75931895Y-117336942D01*
X75949407Y-117340799D01*
X75959690Y-117342520D01*
X75960344Y-117342558D01*
X75964788Y-117341761D01*
X75969482Y-117338342D01*
X75975113Y-117331172D01*
X75982373Y-117319125D01*
X75991948Y-117301072D01*
X76004529Y-117275886D01*
X76018052Y-117248126D01*
X76079951Y-117115865D01*
X76141705Y-116975227D01*
X76202600Y-116827978D01*
X76261925Y-116675882D01*
X76318965Y-116520708D01*
X76363201Y-116393389D01*
X76455384Y-116105269D01*
X76538474Y-115812822D01*
X76612412Y-115516364D01*
X76677139Y-115216213D01*
X76732599Y-114912688D01*
X76778732Y-114606106D01*
X76815481Y-114296786D01*
X76842787Y-113985045D01*
X76860321Y-113677700D01*
X76861245Y-113651007D01*
X76862086Y-113617543D01*
X76862839Y-113578373D01*
X76863501Y-113534560D01*
X76864069Y-113487168D01*
X76864540Y-113437259D01*
X76864911Y-113385899D01*
X76865176Y-113334149D01*
X76865335Y-113283074D01*
X76865382Y-113233738D01*
X76865315Y-113187204D01*
X76865131Y-113144535D01*
X76864825Y-113106796D01*
X76864394Y-113075050D01*
X76863836Y-113050360D01*
X76863146Y-113033789D01*
X76862396Y-113026640D01*
X76860662Y-113021732D01*
X76857541Y-113019566D01*
X76851193Y-113020506D01*
X76839780Y-113024914D01*
X76821463Y-113033156D01*
X76815475Y-113035910D01*
X76677113Y-113094043D01*
X76535121Y-113142761D01*
X76390063Y-113181901D01*
X76242504Y-113211303D01*
X76162227Y-113223042D01*
X76134857Y-113226603D01*
X76111332Y-113229784D01*
X76093359Y-113232343D01*
X76082647Y-113234039D01*
X76080388Y-113234566D01*
X76080700Y-113239739D01*
X76082170Y-113253125D01*
X76084577Y-113272869D01*
X76087702Y-113297119D01*
X76088784Y-113305283D01*
X76106208Y-113459804D01*
X76118329Y-113621702D01*
X76125149Y-113789689D01*
X76126672Y-113962477D01*
X76122902Y-114138779D01*
X76113841Y-114317308D01*
X76099493Y-114496776D01*
X76085384Y-114630200D01*
X76056835Y-114841830D01*
X76020804Y-115053478D01*
X75977603Y-115263989D01*
X75927544Y-115472211D01*
X75870936Y-115676989D01*
X75808091Y-115877169D01*
X75739321Y-116071598D01*
X75664935Y-116259121D01*
X75615581Y-116372640D01*
X75599413Y-116407786D01*
X75579350Y-116450191D01*
X75556150Y-116498341D01*
X75530571Y-116550721D01*
X75503372Y-116605815D01*
X75475309Y-116662110D01*
X75447142Y-116718089D01*
X75419629Y-116772240D01*
X75393527Y-116823045D01*
X75369595Y-116868992D01*
X75348592Y-116908565D01*
X75333484Y-116936280D01*
X75284286Y-117024941D01*
X75129777Y-117024941D01*
X75194067Y-116912735D01*
X75291366Y-116731761D01*
X75371773Y-116573300D01*
X75414129Y-116486835D01*
X75452113Y-116407538D01*
X75486422Y-116333774D01*
X75517755Y-116263907D01*
X75546810Y-116196301D01*
X75574287Y-116129321D01*
X75600884Y-116061331D01*
X75627300Y-115990695D01*
X75654232Y-115915779D01*
X75661842Y-115894154D01*
X75721644Y-115712896D01*
X75775764Y-115527101D01*
X75824094Y-115337705D01*
X75866529Y-115145642D01*
X75902964Y-114951849D01*
X75933293Y-114757259D01*
X75957410Y-114562810D01*
X75975211Y-114369434D01*
X75986588Y-114178069D01*
X75991438Y-113989649D01*
X75989654Y-113805109D01*
X75981130Y-113625385D01*
X75965761Y-113451411D01*
X75950881Y-113333597D01*
X75924018Y-113170290D01*
X75891113Y-113013552D01*
X75852269Y-112863577D01*
X75807585Y-112720558D01*
X75757164Y-112584689D01*
X75701106Y-112456162D01*
X75639512Y-112335170D01*
X75572484Y-112221908D01*
X75500123Y-112116567D01*
X75422529Y-112019341D01*
X75339806Y-111930423D01*
X75252052Y-111850006D01*
X75159370Y-111778284D01*
X75123040Y-111753454D01*
X75056368Y-111713585D01*
X74984871Y-111678943D01*
X74907656Y-111649229D01*
X74823827Y-111624148D01*
X74771300Y-111612217D01*
X75192658Y-111612217D01*
X75194410Y-111616918D01*
X75202764Y-111625659D01*
X75215990Y-111636666D01*
X75218058Y-111638232D01*
X75313321Y-111715515D01*
X75405004Y-111801826D01*
X75492727Y-111896547D01*
X75576108Y-111999061D01*
X75654764Y-112108752D01*
X75728315Y-112225002D01*
X75796377Y-112347194D01*
X75858570Y-112474713D01*
X75914511Y-112606939D01*
X75963819Y-112743258D01*
X76006112Y-112883052D01*
X76019130Y-112932465D01*
X76025425Y-112958066D01*
X76032372Y-112987591D01*
X76039598Y-113019310D01*
X76046730Y-113051493D01*
X76053395Y-113082408D01*
X76059220Y-113110325D01*
X76063831Y-113133513D01*
X76066855Y-113150243D01*
X76067920Y-113158716D01*
X76072652Y-113158996D01*
X76085686Y-113157973D01*
X76105282Y-113155869D01*
X76129695Y-113152905D01*
X76157184Y-113149301D01*
X76186007Y-113145280D01*
X76214421Y-113141062D01*
X76240684Y-113136869D01*
X76243180Y-113136451D01*
X76303655Y-113124901D01*
X76369998Y-113109845D01*
X76438892Y-113092126D01*
X76507024Y-113072590D01*
X76560680Y-113055579D01*
X76599130Y-113042233D01*
X76640778Y-113026837D01*
X76683589Y-113010222D01*
X76725528Y-112993219D01*
X76764560Y-112976658D01*
X76798651Y-112961370D01*
X76825764Y-112948185D01*
X76832460Y-112944641D01*
X76857860Y-112930825D01*
X76856295Y-112887702D01*
X76855394Y-112868496D01*
X76853855Y-112841725D01*
X76851840Y-112809951D01*
X76849512Y-112775739D01*
X76847322Y-112745520D01*
X76828234Y-112537667D01*
X76802486Y-112334959D01*
X76770174Y-112137702D01*
X76731389Y-111946204D01*
X76686226Y-111760771D01*
X76634778Y-111581712D01*
X76577138Y-111409333D01*
X76513400Y-111243941D01*
X76443657Y-111085845D01*
X76368003Y-110935350D01*
X76286530Y-110792765D01*
X76223850Y-110694470D01*
X76209070Y-110672589D01*
X76196251Y-110654083D01*
X76186442Y-110640431D01*
X76180696Y-110633116D01*
X76179715Y-110632286D01*
X76176630Y-110636611D01*
X76170474Y-110648179D01*
X76162302Y-110664952D01*
X76157393Y-110675517D01*
X76124749Y-110739549D01*
X76083876Y-110807291D01*
X76035537Y-110877721D01*
X75980496Y-110949818D01*
X75919514Y-111022561D01*
X75853355Y-111094928D01*
X75813987Y-111135252D01*
X75702427Y-111240748D01*
X75583388Y-111341436D01*
X75456205Y-111437836D01*
X75320215Y-111530472D01*
X75274883Y-111559310D01*
X75249637Y-111575188D01*
X75227332Y-111589360D01*
X75209418Y-111600894D01*
X75197349Y-111608855D01*
X75192658Y-111612217D01*
X74771300Y-111612217D01*
X74732490Y-111603402D01*
X74632751Y-111586694D01*
X74612500Y-111583915D01*
X74575053Y-111580044D01*
X74530417Y-111577209D01*
X74480935Y-111575412D01*
X74428949Y-111574654D01*
X74376804Y-111574938D01*
X74326841Y-111576264D01*
X74281405Y-111578636D01*
X74242839Y-111582053D01*
X74230440Y-111583632D01*
X74171998Y-111592800D01*
X74110159Y-111604317D01*
X74043112Y-111618554D01*
X73969046Y-111635881D01*
X73939400Y-111643174D01*
X73878535Y-111658102D01*
X73826284Y-111670359D01*
X73781502Y-111680105D01*
X73743042Y-111687498D01*
X73709761Y-111692696D01*
X73680512Y-111695859D01*
X73654152Y-111697145D01*
X73629535Y-111696712D01*
X73605516Y-111694720D01*
X73586082Y-111692128D01*
X73567962Y-111688873D01*
X73541769Y-111683476D01*
X73509268Y-111676335D01*
X73472223Y-111667849D01*
X73432398Y-111658416D01*
X73391558Y-111648434D01*
X73381705Y-111645976D01*
X73304954Y-111627241D01*
X73236400Y-111611631D01*
X73174638Y-111598950D01*
X73118261Y-111589003D01*
X73065866Y-111581593D01*
X73016047Y-111576524D01*
X72967398Y-111573601D01*
X72918515Y-111572627D01*
X72867993Y-111573408D01*
X72862491Y-111573585D01*
X72757174Y-111580190D01*
X72654849Y-111592660D01*
X72557029Y-111610720D01*
X72465225Y-111634092D01*
X72384606Y-111661099D01*
X72303488Y-111696932D01*
X72222587Y-111742397D01*
X72142525Y-111796973D01*
X72063924Y-111860139D01*
X71987404Y-111931376D01*
X71913588Y-112010162D01*
X71843097Y-112095977D01*
X71806520Y-112145213D01*
X71738587Y-112247568D01*
X71675253Y-112358512D01*
X71616712Y-112477480D01*
X71563157Y-112603907D01*
X71514781Y-112737227D01*
X71471777Y-112876875D01*
X71434339Y-113022285D01*
X71402659Y-113172891D01*
X71376932Y-113328129D01*
X71361738Y-113446560D01*
X71349464Y-113577860D01*
X71341229Y-113716966D01*
X71337034Y-113862358D01*
X71336878Y-114012520D01*
X71195886Y-114012520D01*
X71195359Y-113938278D01*
X71195586Y-113857594D01*
X71196616Y-113779156D01*
X71198448Y-113704753D01*
X71201082Y-113636176D01*
X71204520Y-113575217D01*
X71206130Y-113553240D01*
X71209444Y-113513794D01*
X71213321Y-113471691D01*
X71217577Y-113428609D01*
X71222025Y-113386227D01*
X71226482Y-113346225D01*
X71230763Y-113310281D01*
X71234682Y-113280074D01*
X71238056Y-113257284D01*
X71239774Y-113247702D01*
X71240746Y-113240363D01*
X71238511Y-113236017D01*
X71230955Y-113233448D01*
X71215964Y-113231439D01*
X71210456Y-113230845D01*
X71177807Y-113226870D01*
X71138403Y-113221307D01*
X71095298Y-113214653D01*
X71051543Y-113207406D01*
X71010192Y-113200064D01*
X70974296Y-113193122D01*
X70958809Y-113189839D01*
X70884847Y-113171949D01*
X70808583Y-113150659D01*
X70732228Y-113126721D01*
X70657991Y-113100891D01*
X70588080Y-113073923D01*
X70524707Y-113046569D01*
X70489442Y-113029635D01*
X70460865Y-113015252D01*
X70457700Y-113039136D01*
X70456420Y-113054101D01*
X70455255Y-113078087D01*
X70454210Y-113109953D01*
X70453293Y-113148563D01*
X70452509Y-113192776D01*
X70451865Y-113241453D01*
X70451367Y-113293456D01*
X70451020Y-113347645D01*
X70450831Y-113402881D01*
X70450806Y-113458027D01*
X70338668Y-113458027D01*
X70338550Y-113426884D01*
X70338651Y-113356190D01*
X70339143Y-113289799D01*
X70340044Y-113229319D01*
X70341368Y-113176355D01*
X70342246Y-113151920D01*
X70354275Y-112933513D01*
X70463291Y-112933513D01*
X70526215Y-112963560D01*
X70639843Y-113013575D01*
X70756863Y-113056575D01*
X70878370Y-113092864D01*
X71005459Y-113122745D01*
X71139224Y-113146523D01*
X71229220Y-113158724D01*
X71241263Y-113160268D01*
X71248173Y-113161318D01*
X71251961Y-113157680D01*
X71254347Y-113150650D01*
X71256282Y-113141124D01*
X71259613Y-113124197D01*
X71263837Y-113102447D01*
X71267512Y-113083340D01*
X71283205Y-113009915D01*
X71303091Y-112930531D01*
X71326320Y-112848047D01*
X71352041Y-112765322D01*
X71379404Y-112685217D01*
X71407558Y-112610590D01*
X71409845Y-112604877D01*
X71426879Y-112564456D01*
X71447841Y-112517766D01*
X71471515Y-112467297D01*
X71496682Y-112415541D01*
X71522127Y-112364989D01*
X71546632Y-112318131D01*
X71568979Y-112277460D01*
X71574569Y-112267718D01*
X71640438Y-112160927D01*
X71711683Y-112057935D01*
X71787355Y-111959865D01*
X71866507Y-111867842D01*
X71948189Y-111782988D01*
X72031452Y-111706428D01*
X72086872Y-111660940D01*
X72107561Y-111644632D01*
X72125082Y-111630537D01*
X72138017Y-111619820D01*
X72144943Y-111613648D01*
X72145721Y-111612680D01*
X72141772Y-111609189D01*
X72130940Y-111601986D01*
X72115190Y-111592348D01*
X72106727Y-111587385D01*
X72081767Y-111572350D01*
X72050378Y-111552535D01*
X72014345Y-111529140D01*
X71975453Y-111503364D01*
X71935485Y-111476409D01*
X71896226Y-111449473D01*
X71859461Y-111423758D01*
X71826974Y-111400464D01*
X71808340Y-111386696D01*
X71712575Y-111311776D01*
X71621338Y-111234412D01*
X71535282Y-111155314D01*
X71455063Y-111075192D01*
X71381335Y-110994754D01*
X71314754Y-110914712D01*
X71255975Y-110835774D01*
X71205652Y-110758649D01*
X71170097Y-110695206D01*
X71140142Y-110637069D01*
X71092619Y-110709584D01*
X71011383Y-110841724D01*
X70935201Y-110982396D01*
X70864177Y-111131259D01*
X70798415Y-111287972D01*
X70738020Y-111452195D01*
X70683096Y-111623587D01*
X70633747Y-111801807D01*
X70590077Y-111986513D01*
X70552190Y-112177367D01*
X70520190Y-112374026D01*
X70494183Y-112576149D01*
X70480339Y-112712500D01*
X70477061Y-112749347D01*
X70473871Y-112786672D01*
X70470977Y-112821925D01*
X70468590Y-112852558D01*
X70466915Y-112876024D01*
X70466731Y-112878886D01*
X70463291Y-112933513D01*
X70354275Y-112933513D01*
X70354988Y-112920569D01*
X70374106Y-112695257D01*
X70399549Y-112476179D01*
X70431266Y-112263535D01*
X70469207Y-112057520D01*
X70513321Y-111858334D01*
X70563558Y-111666173D01*
X70619867Y-111481234D01*
X70682198Y-111303716D01*
X70750499Y-111133815D01*
X70824722Y-110971730D01*
X70904815Y-110817658D01*
X70966584Y-110710980D01*
X71048414Y-110583567D01*
X71058232Y-110569988D01*
X71198609Y-110569988D01*
X71199031Y-110573043D01*
X71205481Y-110590181D01*
X71216410Y-110613922D01*
X71230781Y-110642339D01*
X71247555Y-110673505D01*
X71265692Y-110705491D01*
X71284156Y-110736372D01*
X71301908Y-110764218D01*
X71302528Y-110765150D01*
X71371056Y-110860471D01*
X71449152Y-110955227D01*
X71536226Y-111048882D01*
X71631686Y-111140900D01*
X71734940Y-111230744D01*
X71845398Y-111317879D01*
X71962468Y-111401768D01*
X72085558Y-111481874D01*
X72108060Y-111495699D01*
X72132915Y-111510939D01*
X72157156Y-111525983D01*
X72178208Y-111539221D01*
X72193493Y-111549042D01*
X72195012Y-111550044D01*
X72221004Y-111567263D01*
X72311570Y-111531419D01*
X72370494Y-111508617D01*
X72422403Y-111489837D01*
X72469373Y-111474563D01*
X72513480Y-111462281D01*
X72556801Y-111452477D01*
X72601411Y-111444636D01*
X72649387Y-111438245D01*
X72702806Y-111432787D01*
X72713521Y-111431833D01*
X72765013Y-111428313D01*
X72819443Y-111426340D01*
X72874542Y-111425879D01*
X72928042Y-111426896D01*
X72977676Y-111429357D01*
X73021176Y-111433226D01*
X73047930Y-111436949D01*
X73061902Y-111439616D01*
X73084619Y-111444330D01*
X73114927Y-111450835D01*
X73151674Y-111458879D01*
X73193708Y-111468205D01*
X73239876Y-111478561D01*
X73289027Y-111489691D01*
X73340007Y-111501341D01*
X73350190Y-111503681D01*
X73413034Y-111518094D01*
X73466873Y-111530326D01*
X73512588Y-111540540D01*
X73551060Y-111548895D01*
X73583172Y-111555554D01*
X73609804Y-111560677D01*
X73631838Y-111564426D01*
X73650154Y-111566961D01*
X73665635Y-111568445D01*
X73679162Y-111569038D01*
X73691616Y-111568902D01*
X73703180Y-111568249D01*
X73714175Y-111566625D01*
X73733938Y-111562833D01*
X73761364Y-111557117D01*
X73795351Y-111549721D01*
X73834795Y-111540889D01*
X73878593Y-111530864D01*
X73925644Y-111519891D01*
X73974843Y-111508214D01*
X73977500Y-111507578D01*
X74027127Y-111495722D01*
X74074933Y-111484373D01*
X74119770Y-111473798D01*
X74160490Y-111464264D01*
X74195947Y-111456038D01*
X74224994Y-111449388D01*
X74246483Y-111444581D01*
X74259268Y-111441886D01*
X74259440Y-111441853D01*
X74292538Y-111437112D01*
X74334125Y-111433719D01*
X74382623Y-111431654D01*
X74436452Y-111430898D01*
X74494033Y-111431430D01*
X74553789Y-111433232D01*
X74614140Y-111436283D01*
X74673508Y-111440564D01*
X74730313Y-111446054D01*
X74746637Y-111447936D01*
X74838115Y-111462183D01*
X74922334Y-111482229D01*
X75000626Y-111508448D01*
X75068936Y-111538527D01*
X75122840Y-111565181D01*
X75192790Y-111521560D01*
X75306095Y-111448333D01*
X75410835Y-111375155D01*
X75508530Y-111300852D01*
X75600701Y-111224247D01*
X75688869Y-111144165D01*
X75721782Y-111112437D01*
X75798223Y-111034597D01*
X75868390Y-110957082D01*
X75931794Y-110880547D01*
X75987945Y-110805644D01*
X76036355Y-110733028D01*
X76076533Y-110663352D01*
X76107992Y-110597270D01*
X76108670Y-110595651D01*
X76125006Y-110556522D01*
X76080306Y-110501671D01*
X76057243Y-110474658D01*
X76028365Y-110442841D01*
X75995252Y-110407802D01*
X75959488Y-110371121D01*
X75922654Y-110334378D01*
X75886332Y-110299154D01*
X75852105Y-110267029D01*
X75821555Y-110239585D01*
X75798745Y-110220380D01*
X75699760Y-110146523D01*
X75598321Y-110081938D01*
X75494758Y-110026757D01*
X75389401Y-109981111D01*
X75282581Y-109945132D01*
X75174629Y-109918950D01*
X75065876Y-109902698D01*
X74985823Y-109897168D01*
X74929330Y-109896692D01*
X74880549Y-109899842D01*
X74837542Y-109907073D01*
X74798369Y-109918837D01*
X74761090Y-109935589D01*
X74723767Y-109957783D01*
X74722162Y-109958845D01*
X74674997Y-109996168D01*
X74632258Y-110042309D01*
X74594267Y-110096793D01*
X74561352Y-110159142D01*
X74533835Y-110228879D01*
X74529685Y-110241535D01*
X74510345Y-110318091D01*
X74499478Y-110398480D01*
X74496977Y-110481100D01*
X74502732Y-110564344D01*
X74516636Y-110646609D01*
X74538581Y-110726291D01*
X74567306Y-110799288D01*
X74591376Y-110845209D01*
X74619970Y-110888902D01*
X74651729Y-110928806D01*
X74685292Y-110963358D01*
X74719299Y-110990996D01*
X74750026Y-111009077D01*
X74785350Y-111021838D01*
X74821263Y-111028005D01*
X74855211Y-111027387D01*
X74884643Y-111019793D01*
X74885905Y-111019247D01*
X74916058Y-111002919D01*
X74941617Y-110981850D01*
X74965522Y-110953555D01*
X74968552Y-110949370D01*
X74993268Y-110907942D01*
X75014518Y-110858302D01*
X75031773Y-110801962D01*
X75044503Y-110740438D01*
X75046663Y-110726220D01*
X75050889Y-110679931D01*
X75051747Y-110627343D01*
X75049450Y-110571664D01*
X75044213Y-110516103D01*
X75036248Y-110463866D01*
X75026298Y-110420058D01*
X75011818Y-110375942D01*
X74994005Y-110335089D01*
X74973698Y-110298758D01*
X74951735Y-110268207D01*
X74928957Y-110244694D01*
X74906201Y-110229477D01*
X74896779Y-110225841D01*
X74869286Y-110222729D01*
X74842181Y-110229089D01*
X74816363Y-110244244D01*
X74792732Y-110267518D01*
X74772187Y-110298237D01*
X74757559Y-110330398D01*
X74745111Y-110372785D01*
X74736801Y-110420636D01*
X74732710Y-110471162D01*
X74732919Y-110521574D01*
X74737512Y-110569084D01*
X74746569Y-110610903D01*
X74749100Y-110618860D01*
X74765224Y-110658373D01*
X74783364Y-110687949D01*
X74803544Y-110707617D01*
X74825788Y-110717403D01*
X74837520Y-110718600D01*
X74852820Y-110714822D01*
X74864979Y-110702918D01*
X74874777Y-110682028D01*
X74877012Y-110675093D01*
X74883541Y-110636751D01*
X74881657Y-110594574D01*
X74871584Y-110550077D01*
X74853544Y-110504776D01*
X74851314Y-110500268D01*
X74842712Y-110481727D01*
X74836386Y-110465309D01*
X74833534Y-110454178D01*
X74833480Y-110453157D01*
X74838263Y-110435552D01*
X74851473Y-110420843D01*
X74864020Y-110413774D01*
X74884918Y-110410257D01*
X74906364Y-110415888D01*
X74927174Y-110429803D01*
X74946164Y-110451139D01*
X74962147Y-110479034D01*
X74965987Y-110488065D01*
X74970395Y-110500074D01*
X74973564Y-110511665D01*
X74975701Y-110524837D01*
X74977014Y-110541586D01*
X74977710Y-110563913D01*
X74977995Y-110593815D01*
X74978031Y-110604300D01*
X74977869Y-110640175D01*
X74977055Y-110668135D01*
X74975418Y-110690412D01*
X74972787Y-110709240D01*
X74968993Y-110726850D01*
X74968532Y-110728676D01*
X74953725Y-110777604D01*
X74936308Y-110819582D01*
X74916712Y-110854009D01*
X74895367Y-110880284D01*
X74872703Y-110897805D01*
X74849150Y-110905972D01*
X74841190Y-110906512D01*
X74818484Y-110902243D01*
X74793406Y-110890494D01*
X74768442Y-110872710D01*
X74747653Y-110852190D01*
X74730661Y-110829156D01*
X74712507Y-110798884D01*
X74694518Y-110763988D01*
X74678019Y-110727080D01*
X74664338Y-110690772D01*
X74661811Y-110683040D01*
X74645065Y-110618684D01*
X74634287Y-110551576D01*
X74629511Y-110483788D01*
X74630769Y-110417394D01*
X74638093Y-110354464D01*
X74651516Y-110297071D01*
X74655550Y-110284636D01*
X74676995Y-110234797D01*
X74704680Y-110190810D01*
X74737713Y-110153768D01*
X74775200Y-110124769D01*
X74794594Y-110113988D01*
X74816010Y-110104467D01*
X74835078Y-110098796D01*
X74856685Y-110095755D01*
X74871546Y-110094754D01*
X74894082Y-110094001D01*
X74910363Y-110094962D01*
X74924233Y-110098221D01*
X74939534Y-110104366D01*
X74942019Y-110105494D01*
X74978243Y-110127502D01*
X75011506Y-110158620D01*
X75041567Y-110198173D01*
X75068189Y-110245483D01*
X75091133Y-110299874D01*
X75110161Y-110360669D01*
X75125034Y-110427191D01*
X75135515Y-110498764D01*
X75141364Y-110574710D01*
X75142343Y-110654353D01*
X75141863Y-110672880D01*
X75136870Y-110750810D01*
X75127345Y-110823995D01*
X75113544Y-110891854D01*
X75095725Y-110953807D01*
X75074143Y-111009274D01*
X75049057Y-111057675D01*
X75020722Y-111098431D01*
X74989397Y-111130961D01*
X74955337Y-111154685D01*
X74922479Y-111168051D01*
X74903155Y-111171966D01*
X74875471Y-111175554D01*
X74841227Y-111178716D01*
X74802222Y-111181355D01*
X74760254Y-111183372D01*
X74717121Y-111184669D01*
X74674622Y-111185149D01*
X74634556Y-111184713D01*
X74622755Y-111184372D01*
X74512322Y-111177267D01*
X74409626Y-111163681D01*
X74314544Y-111143572D01*
X74226955Y-111116897D01*
X74146735Y-111083615D01*
X74073762Y-111043684D01*
X74007915Y-110997060D01*
X73962279Y-110956852D01*
X73910750Y-110900706D01*
X73867645Y-110839902D01*
X73832623Y-110773787D01*
X73805346Y-110701708D01*
X73785472Y-110623012D01*
X73783823Y-110614460D01*
X73779381Y-110582680D01*
X73776208Y-110543040D01*
X73774291Y-110497755D01*
X73773617Y-110449043D01*
X73773640Y-110446907D01*
X73880489Y-110446907D01*
X73886691Y-110528268D01*
X73901409Y-110606194D01*
X73924457Y-110679823D01*
X73955647Y-110748292D01*
X73973139Y-110778564D01*
X73996587Y-110811662D01*
X74026653Y-110847076D01*
X74060960Y-110882403D01*
X74097128Y-110915238D01*
X74132779Y-110943178D01*
X74142977Y-110950218D01*
X74213518Y-110991780D01*
X74288683Y-111025958D01*
X74366637Y-111052129D01*
X74445543Y-111069667D01*
X74517098Y-111077622D01*
X74545881Y-111078768D01*
X74566037Y-111078195D01*
X74579021Y-111075462D01*
X74586285Y-111070126D01*
X74589282Y-111061745D01*
X74589640Y-111055545D01*
X74585294Y-111036272D01*
X74572462Y-111012482D01*
X74554032Y-110987840D01*
X74510708Y-110928050D01*
X74473574Y-110861256D01*
X74442816Y-110788647D01*
X74418621Y-110711413D01*
X74401175Y-110630745D01*
X74390664Y-110547833D01*
X74387273Y-110463868D01*
X74391189Y-110380041D01*
X74402597Y-110297541D01*
X74421684Y-110217559D01*
X74429671Y-110192006D01*
X74458657Y-110118384D01*
X74494560Y-110050506D01*
X74536816Y-109988942D01*
X74584861Y-109934261D01*
X74638132Y-109887032D01*
X74696066Y-109847827D01*
X74758098Y-109817215D01*
X74820780Y-109796493D01*
X74869262Y-109787381D01*
X74925403Y-109782503D01*
X74987670Y-109781766D01*
X75054529Y-109785077D01*
X75124446Y-109792343D01*
X75195889Y-109803471D01*
X75267324Y-109818368D01*
X75295227Y-109825277D01*
X75400145Y-109857551D01*
X75504240Y-109899594D01*
X75606973Y-109951020D01*
X75707802Y-110011444D01*
X75806190Y-110080479D01*
X75901595Y-110157738D01*
X75993479Y-110242836D01*
X76081301Y-110335386D01*
X76164522Y-110435002D01*
X76185822Y-110462648D01*
X76279884Y-110594751D01*
X76368327Y-110735126D01*
X76451092Y-110883541D01*
X76528124Y-111039766D01*
X76599363Y-111203568D01*
X76664752Y-111374718D01*
X76724234Y-111552984D01*
X76777751Y-111738135D01*
X76825245Y-111929940D01*
X76866660Y-112128168D01*
X76901936Y-112332588D01*
X76931017Y-112542969D01*
X76953845Y-112759079D01*
X76970363Y-112980689D01*
X76980512Y-113207565D01*
X76984235Y-113439479D01*
X76981958Y-113656147D01*
X76970504Y-113948796D01*
X76949631Y-114241527D01*
X76919461Y-114533737D01*
X76880116Y-114824822D01*
X76831716Y-115114179D01*
X76774384Y-115401205D01*
X76708240Y-115685296D01*
X76633406Y-115965849D01*
X76550004Y-116242261D01*
X76458155Y-116513927D01*
X76357981Y-116780245D01*
X76348029Y-116805264D01*
X76259484Y-117017656D01*
X76166444Y-117223163D01*
X76069066Y-117421567D01*
X75967508Y-117612654D01*
X75861927Y-117796207D01*
X75752481Y-117972008D01*
X75639328Y-118139844D01*
X75522624Y-118299496D01*
X75402528Y-118450749D01*
X75279197Y-118593387D01*
X75152789Y-118727193D01*
X75023460Y-118851952D01*
X74891370Y-118967446D01*
X74756675Y-119073460D01*
X74630280Y-119162642D01*
X74537931Y-119221778D01*
X74442600Y-119278130D01*
X74346404Y-119330566D01*
X74251459Y-119377953D01*
X74159883Y-119419161D01*
X74119158Y-119435854D01*
X74037297Y-119468279D01*
X74033762Y-119531911D01*
X74024628Y-119623984D01*
X74007463Y-119711505D01*
X73981774Y-119796735D01*
X73967926Y-119833390D01*
X73959538Y-119854790D01*
X73953039Y-119872255D01*
X73949092Y-119883938D01*
X73948320Y-119888000D01*
X73953832Y-119886665D01*
X73966967Y-119883055D01*
X73985598Y-119877765D01*
X74002141Y-119872980D01*
X74139777Y-119828490D01*
X74278984Y-119774929D01*
X74418408Y-119712955D01*
X74556699Y-119643229D01*
X74692503Y-119566409D01*
X74824469Y-119483155D01*
X74881571Y-119444235D01*
X74979740Y-119373500D01*
X75073343Y-119301335D01*
X75164344Y-119226081D01*
X75254706Y-119146079D01*
X75346394Y-119059668D01*
X75405126Y-119001789D01*
X75544543Y-118855998D01*
X75679008Y-118702605D01*
X75808767Y-118541281D01*
X75934065Y-118371695D01*
X76055147Y-118193517D01*
X76172260Y-118006418D01*
X76268509Y-117840760D01*
X76388237Y-117618089D01*
X76501546Y-117387900D01*
X76608301Y-117150660D01*
X76708364Y-116906835D01*
X76801601Y-116656892D01*
X76887876Y-116401297D01*
X76967051Y-116140517D01*
X77038991Y-115875020D01*
X77103560Y-115605270D01*
X77160621Y-115331736D01*
X77210040Y-115054883D01*
X77251679Y-114775179D01*
X77285402Y-114493090D01*
X77304829Y-114287300D01*
X77320738Y-114062724D01*
X77331065Y-113836246D01*
X77335854Y-113609067D01*
X77335151Y-113382389D01*
X77329001Y-113157413D01*
X77317450Y-112935342D01*
X77300543Y-112717376D01*
X77278325Y-112504719D01*
X77250843Y-112298572D01*
X77223189Y-112128300D01*
X77183554Y-111923405D01*
X77138290Y-111725102D01*
X77087491Y-111533563D01*
X77031249Y-111348961D01*
X76969657Y-111171466D01*
X76902808Y-111001252D01*
X76830796Y-110838491D01*
X76753714Y-110683355D01*
X76671654Y-110536016D01*
X76584710Y-110396647D01*
X76492975Y-110265419D01*
X76396542Y-110142506D01*
X76295504Y-110028079D01*
X76189954Y-109922310D01*
X76079985Y-109825372D01*
X75965691Y-109737437D01*
X75910440Y-109699224D01*
X75793129Y-109626853D01*
X75671788Y-109563543D01*
X75546918Y-109509447D01*
X75419020Y-109464721D01*
X75288596Y-109429518D01*
X75156149Y-109403990D01*
X75022178Y-109388294D01*
X74887187Y-109382582D01*
X74878262Y-109382560D01*
X74788749Y-109386052D01*
X74700712Y-109396295D01*
X74615349Y-109412934D01*
X74533863Y-109435617D01*
X74457451Y-109463991D01*
X74387315Y-109497702D01*
X74324654Y-109536398D01*
X74304183Y-109551461D01*
X74224514Y-109619195D01*
X74152827Y-109693151D01*
X74089216Y-109773148D01*
X74033775Y-109859002D01*
X73986601Y-109950531D01*
X73947786Y-110047552D01*
X73917427Y-110149882D01*
X73895619Y-110257339D01*
X73882990Y-110362973D01*
X73880489Y-110446907D01*
X73773640Y-110446907D01*
X73774172Y-110399122D01*
X73775941Y-110350208D01*
X73778912Y-110304519D01*
X73783069Y-110264272D01*
X73786134Y-110243620D01*
X73810410Y-110127524D01*
X73842457Y-110017710D01*
X73882539Y-109913615D01*
X73930918Y-109814675D01*
X73987856Y-109720330D01*
X74053615Y-109630016D01*
X74096331Y-109578767D01*
X74154816Y-109517220D01*
X74214832Y-109464963D01*
X74277478Y-109421134D01*
X74343260Y-109385155D01*
X74376420Y-109369709D01*
X74406680Y-109356711D01*
X74436687Y-109345198D01*
X74469088Y-109334206D01*
X74506528Y-109322771D01*
X74543920Y-109312088D01*
X74567797Y-109305751D01*
X74595745Y-109298880D01*
X74625745Y-109291910D01*
X74655779Y-109285276D01*
X74683828Y-109279414D01*
X74707875Y-109274759D01*
X74725901Y-109271747D01*
X74735308Y-109270799D01*
X74736695Y-109267126D01*
X74732569Y-109257041D01*
X74723905Y-109241951D01*
X74711682Y-109223260D01*
X74696877Y-109202374D01*
X74680467Y-109180698D01*
X74663430Y-109159636D01*
X74646742Y-109140594D01*
X74639245Y-109132688D01*
X74583307Y-109082739D01*
X74521043Y-109040528D01*
X74453104Y-109006406D01*
X74380139Y-108980722D01*
X74338180Y-108970337D01*
X74315412Y-108967048D01*
X74285473Y-108964915D01*
X74251287Y-108963933D01*
X74215775Y-108964101D01*
X74181860Y-108965416D01*
X74152466Y-108967876D01*
X74134980Y-108970503D01*
X74058447Y-108990155D01*
X73988446Y-109017539D01*
X73924880Y-109052736D01*
X73867655Y-109095827D01*
X73816673Y-109146894D01*
X73771838Y-109206020D01*
X73733055Y-109273285D01*
X73705426Y-109335268D01*
X73694840Y-109361135D01*
X73686418Y-109378840D01*
X73679104Y-109389854D01*
X73671839Y-109395648D01*
X73663564Y-109397695D01*
X73660467Y-109397799D01*
X73651259Y-109396506D01*
X73643505Y-109391634D01*
X73636142Y-109381693D01*
X73628105Y-109365196D01*
X73618330Y-109340653D01*
X73616893Y-109336840D01*
X73585733Y-109264728D01*
X73549347Y-109201125D01*
X73507247Y-109145548D01*
X73458943Y-109097516D01*
X73403946Y-109056549D01*
X73341766Y-109022164D01*
X73271915Y-108993882D01*
X73266082Y-108991902D01*
X73192583Y-108972490D01*
X73118465Y-108963066D01*
X73044443Y-108963548D01*
X72971231Y-108973852D01*
X72899543Y-108993896D01*
X72830092Y-109023596D01*
X72786901Y-109047784D01*
X72749631Y-109073885D01*
X72711456Y-109106277D01*
X72674415Y-109142808D01*
X72640547Y-109181330D01*
X72611892Y-109219691D01*
X72591399Y-109253940D01*
X72583140Y-109270100D01*
X72612300Y-109275878D01*
X72628596Y-109279418D01*
X72651694Y-109284842D01*
X72678579Y-109291424D01*
X72706234Y-109298441D01*
X72707500Y-109298768D01*
X72795022Y-109323864D01*
X72873903Y-109351789D01*
X72945433Y-109383229D01*
X73010901Y-109418871D01*
X73071597Y-109459401D01*
X73128811Y-109505506D01*
X73172040Y-109545967D01*
X73250021Y-109630482D01*
X73319545Y-109720525D01*
X73380437Y-109815739D01*
X73432523Y-109915767D01*
X73475627Y-110020250D01*
X73509573Y-110128831D01*
X73534187Y-110241152D01*
X73543707Y-110304580D01*
X73547318Y-110343234D01*
X73549421Y-110387936D01*
X73550056Y-110435987D01*
X73549267Y-110484684D01*
X73547096Y-110531328D01*
X73543586Y-110573218D01*
X73538927Y-110606840D01*
X73519767Y-110688939D01*
X73492920Y-110764417D01*
X73458266Y-110833436D01*
X73415683Y-110896156D01*
X73365051Y-110952738D01*
X73306247Y-111003344D01*
X73239152Y-111048133D01*
X73185179Y-111077097D01*
X73131020Y-111101969D01*
X73079604Y-111121852D01*
X73026600Y-111138252D01*
X72969120Y-111152362D01*
X72925302Y-111161545D01*
X72884861Y-111168779D01*
X72845620Y-111174270D01*
X72805405Y-111178220D01*
X72762041Y-111180836D01*
X72713353Y-111182319D01*
X72657167Y-111182876D01*
X72644000Y-111182895D01*
X72582510Y-111182531D01*
X72530283Y-111181361D01*
X72486448Y-111179305D01*
X72450134Y-111176283D01*
X72420468Y-111172215D01*
X72396581Y-111167022D01*
X72377600Y-111160623D01*
X72371639Y-111157930D01*
X72337030Y-111135596D01*
X72304977Y-111103904D01*
X72275755Y-111063399D01*
X72249644Y-111014624D01*
X72226919Y-110958123D01*
X72207858Y-110894440D01*
X72192739Y-110824119D01*
X72188559Y-110798883D01*
X72184222Y-110761743D01*
X72181245Y-110717384D01*
X72179629Y-110668527D01*
X72179376Y-110617893D01*
X72180485Y-110568207D01*
X72182958Y-110522188D01*
X72186795Y-110482561D01*
X72188465Y-110470676D01*
X72202361Y-110397739D01*
X72220236Y-110331306D01*
X72241819Y-110271905D01*
X72266838Y-110220060D01*
X72295021Y-110176297D01*
X72326096Y-110141142D01*
X72359792Y-110115120D01*
X72377138Y-110105880D01*
X72393440Y-110099106D01*
X72407823Y-110095371D01*
X72424239Y-110094040D01*
X72446643Y-110094475D01*
X72447724Y-110094520D01*
X72492167Y-110101167D01*
X72532952Y-110116756D01*
X72569786Y-110140644D01*
X72602379Y-110172188D01*
X72630439Y-110210745D01*
X72653677Y-110255671D01*
X72671800Y-110306323D01*
X72684519Y-110362059D01*
X72691541Y-110422236D01*
X72692577Y-110486209D01*
X72687335Y-110553335D01*
X72679020Y-110605822D01*
X72666367Y-110660019D01*
X72650275Y-110710545D01*
X72631272Y-110756748D01*
X72609885Y-110797977D01*
X72586642Y-110833579D01*
X72562069Y-110862904D01*
X72536695Y-110885299D01*
X72511047Y-110900113D01*
X72485651Y-110906693D01*
X72461036Y-110904390D01*
X72443683Y-110896611D01*
X72424366Y-110880002D01*
X72405171Y-110854815D01*
X72386945Y-110822610D01*
X72370532Y-110784943D01*
X72356778Y-110743372D01*
X72353158Y-110729823D01*
X72348595Y-110709849D01*
X72345439Y-110690572D01*
X72343459Y-110669394D01*
X72342428Y-110643714D01*
X72342116Y-110610937D01*
X72342119Y-110604300D01*
X72342330Y-110572199D01*
X72343000Y-110548135D01*
X72344341Y-110529987D01*
X72346565Y-110515635D01*
X72349884Y-110502959D01*
X72353219Y-110493278D01*
X72369378Y-110458443D01*
X72388571Y-110433115D01*
X72410707Y-110417382D01*
X72435693Y-110411331D01*
X72438897Y-110411260D01*
X72457983Y-110413881D01*
X72472594Y-110422819D01*
X72473323Y-110423493D01*
X72483555Y-110434531D01*
X72488594Y-110445080D01*
X72488390Y-110457401D01*
X72482895Y-110473754D01*
X72472060Y-110496402D01*
X72471720Y-110497068D01*
X72457397Y-110529668D01*
X72445967Y-110564574D01*
X72438436Y-110598188D01*
X72435808Y-110625639D01*
X72438598Y-110659424D01*
X72446697Y-110685943D01*
X72459092Y-110704808D01*
X72474770Y-110715631D01*
X72492717Y-110718025D01*
X72511920Y-110711602D01*
X72531366Y-110695973D01*
X72550042Y-110670751D01*
X72550708Y-110669622D01*
X72567818Y-110632118D01*
X72579986Y-110587843D01*
X72587222Y-110538897D01*
X72589540Y-110487379D01*
X72586951Y-110435390D01*
X72579465Y-110385029D01*
X72567096Y-110338395D01*
X72549854Y-110297589D01*
X72548630Y-110295307D01*
X72530031Y-110268320D01*
X72507365Y-110246748D01*
X72482333Y-110231499D01*
X72456638Y-110223476D01*
X72431979Y-110223586D01*
X72420363Y-110227059D01*
X72392218Y-110244089D01*
X72366068Y-110270287D01*
X72342269Y-110304793D01*
X72321178Y-110346747D01*
X72303153Y-110395291D01*
X72288550Y-110449565D01*
X72277726Y-110508710D01*
X72271038Y-110571865D01*
X72270010Y-110589060D01*
X72269490Y-110656087D01*
X72274545Y-110720590D01*
X72284837Y-110781611D01*
X72300027Y-110838191D01*
X72319777Y-110889370D01*
X72343749Y-110934191D01*
X72371604Y-110971694D01*
X72403005Y-111000921D01*
X72419153Y-111011679D01*
X72448001Y-111023303D01*
X72481616Y-111028229D01*
X72516995Y-111026302D01*
X72548771Y-111018256D01*
X72578549Y-111005884D01*
X72603566Y-110991510D01*
X72627649Y-110972675D01*
X72645189Y-110956315D01*
X72688419Y-110907320D01*
X72726305Y-110850702D01*
X72758530Y-110787664D01*
X72784779Y-110719412D01*
X72804734Y-110647151D01*
X72818080Y-110572085D01*
X72824501Y-110495419D01*
X72823680Y-110418357D01*
X72815302Y-110342105D01*
X72811704Y-110321820D01*
X72793942Y-110249201D01*
X72769776Y-110181476D01*
X72739704Y-110119362D01*
X72704226Y-110063574D01*
X72663840Y-110014827D01*
X72619046Y-109973835D01*
X72570343Y-109941316D01*
X72534182Y-109923972D01*
X72500956Y-109912110D01*
X72467334Y-109903784D01*
X72431013Y-109898685D01*
X72389689Y-109896503D01*
X72341061Y-109896932D01*
X72334120Y-109897162D01*
X72224241Y-109906109D01*
X72115386Y-109925014D01*
X72007874Y-109953697D01*
X71902024Y-109991980D01*
X71798154Y-110039685D01*
X71696583Y-110096632D01*
X71597630Y-110162645D01*
X71501614Y-110237543D01*
X71408854Y-110321149D01*
X71319668Y-110413284D01*
X71235719Y-110512083D01*
X71218273Y-110534506D01*
X71206815Y-110550730D01*
X71200531Y-110562107D01*
X71198609Y-110569988D01*
X71058232Y-110569988D01*
X71134208Y-110464910D01*
X71223832Y-110355151D01*
X71317147Y-110254432D01*
X71414019Y-110162894D01*
X71514311Y-110080678D01*
X71617887Y-110007928D01*
X71675454Y-109972442D01*
X71780439Y-109916355D01*
X71887640Y-109870137D01*
X71997484Y-109833657D01*
X72110398Y-109806783D01*
X72226809Y-109789384D01*
X72288400Y-109784068D01*
X72366299Y-109781868D01*
X72437127Y-109786219D01*
X72501844Y-109797455D01*
X72561411Y-109815907D01*
X72616790Y-109841906D01*
X72668942Y-109875786D01*
X72718829Y-109917878D01*
X72741868Y-109940699D01*
X72790833Y-109997706D01*
X72832461Y-110059793D01*
X72867169Y-110127786D01*
X72895374Y-110202513D01*
X72917494Y-110284800D01*
X72919045Y-110291880D01*
X72922897Y-110310916D01*
X72925799Y-110328747D01*
X72927884Y-110347304D01*
X72929283Y-110368520D01*
X72930129Y-110394327D01*
X72930554Y-110426659D01*
X72930685Y-110462060D01*
X72930357Y-110512289D01*
X72929037Y-110554704D01*
X72926420Y-110591629D01*
X72922205Y-110625387D01*
X72916088Y-110658301D01*
X72907767Y-110692694D01*
X72896940Y-110730889D01*
X72894677Y-110738428D01*
X72876775Y-110790612D01*
X72855001Y-110842517D01*
X72830463Y-110892012D01*
X72804269Y-110936965D01*
X72777527Y-110975247D01*
X72761617Y-110994197D01*
X72745495Y-111013827D01*
X72734197Y-111031702D01*
X72728765Y-111045961D01*
X72728940Y-111052610D01*
X72735610Y-111056880D01*
X72750768Y-111058667D01*
X72773085Y-111058110D01*
X72801234Y-111055348D01*
X72833885Y-111050518D01*
X72869711Y-111043761D01*
X72907383Y-111035214D01*
X72915780Y-111033109D01*
X73000015Y-111007490D01*
X73078255Y-110975304D01*
X73150000Y-110936914D01*
X73214747Y-110892684D01*
X73271993Y-110842975D01*
X73321237Y-110788151D01*
X73361977Y-110728574D01*
X73378084Y-110698956D01*
X73404313Y-110638404D01*
X73423359Y-110575223D01*
X73435286Y-110508571D01*
X73440158Y-110437609D01*
X73438040Y-110361495D01*
X73428997Y-110279388D01*
X73416013Y-110204762D01*
X73391183Y-110102027D01*
X73358868Y-110005849D01*
X73318706Y-109915537D01*
X73270336Y-109830402D01*
X73213396Y-109749756D01*
X73147524Y-109672909D01*
X73124072Y-109648575D01*
X73083058Y-109608398D01*
X73046050Y-109575037D01*
X73011139Y-109547049D01*
X72976412Y-109522991D01*
X72939958Y-109501422D01*
X72905825Y-109483788D01*
X72821608Y-109447598D01*
X72733107Y-109419429D01*
X72639954Y-109399238D01*
X72541783Y-109386982D01*
X72438226Y-109382620D01*
X72328916Y-109386108D01*
X72213485Y-109397403D01*
X72189340Y-109400637D01*
X72055666Y-109424419D01*
X71924190Y-109458036D01*
X71795305Y-109501322D01*
X71669403Y-109554112D01*
X71546879Y-109616242D01*
X71428124Y-109687548D01*
X71314896Y-109766837D01*
X71264005Y-109807024D01*
X71209178Y-109853650D01*
X71152352Y-109904866D01*
X71095463Y-109958821D01*
X71040451Y-110013666D01*
X70989251Y-110067549D01*
X70943803Y-110118621D01*
X70932627Y-110131860D01*
X70829923Y-110262706D01*
X70732881Y-110401891D01*
X70641545Y-110549287D01*
X70555953Y-110704768D01*
X70476149Y-110868210D01*
X70402173Y-111039486D01*
X70334068Y-111218469D01*
X70271874Y-111405036D01*
X70215632Y-111599059D01*
X70165385Y-111800413D01*
X70121173Y-112008972D01*
X70083039Y-112224610D01*
X70051023Y-112447202D01*
X70025167Y-112676621D01*
X70005513Y-112912742D01*
X70002611Y-112956340D01*
X69994549Y-113107537D01*
X69989144Y-113265989D01*
X69986392Y-113429147D01*
X69986287Y-113594462D01*
X69876547Y-113594462D01*
X69876109Y-113575519D01*
X69878417Y-113286017D01*
X69889849Y-112998827D01*
X69910493Y-112714597D01*
X69926599Y-112552480D01*
X69953931Y-112334578D01*
X69987723Y-112121304D01*
X70027851Y-111913035D01*
X70074192Y-111710147D01*
X70126623Y-111513017D01*
X70185019Y-111322021D01*
X70249258Y-111137535D01*
X70319216Y-110959937D01*
X70394769Y-110789602D01*
X70475796Y-110626908D01*
X70562171Y-110472230D01*
X70653771Y-110325945D01*
X70658788Y-110318407D01*
X70751600Y-110186941D01*
X70849128Y-110063445D01*
X70951128Y-109948085D01*
X71057352Y-109841029D01*
X71167555Y-109742443D01*
X71281490Y-109652494D01*
X71398911Y-109571350D01*
X71519573Y-109499175D01*
X71643230Y-109436139D01*
X71769635Y-109382407D01*
X71898542Y-109338146D01*
X72029705Y-109303523D01*
X72162879Y-109278705D01*
X72199500Y-109273662D01*
X72224301Y-109270812D01*
X72254949Y-109267758D01*
X72289085Y-109264688D01*
X72324348Y-109261789D01*
X72358379Y-109259248D01*
X72388819Y-109257253D01*
X72413307Y-109255992D01*
X72426487Y-109255638D01*
X72438975Y-109252034D01*
X72443318Y-109245467D01*
X72449479Y-109232240D01*
X72460857Y-109213294D01*
X72476040Y-109190609D01*
X72493614Y-109166162D01*
X72512166Y-109141933D01*
X72530285Y-109119902D01*
X72543334Y-109105381D01*
X72608770Y-109043762D01*
X72680877Y-108989531D01*
X72758963Y-108943074D01*
X72842335Y-108904779D01*
X72930299Y-108875034D01*
X72975831Y-108863479D01*
X73005403Y-108856780D01*
X73008465Y-108847611D01*
X73125639Y-108847611D01*
X73162949Y-108851056D01*
X73199090Y-108856433D01*
X73240457Y-108865910D01*
X73283506Y-108878462D01*
X73324690Y-108893064D01*
X73357740Y-108907357D01*
X73416048Y-108940317D01*
X73473405Y-108981796D01*
X73528023Y-109030188D01*
X73578112Y-109083886D01*
X73621883Y-109141285D01*
X73627265Y-109149313D01*
X73641860Y-109171119D01*
X73652095Y-109185366D01*
X73658964Y-109193128D01*
X73663463Y-109195480D01*
X73666587Y-109193498D01*
X73667241Y-109192498D01*
X73672254Y-109184491D01*
X73681371Y-109170289D01*
X73693114Y-109152185D01*
X73701439Y-109139436D01*
X73751377Y-109071410D01*
X73806335Y-109012197D01*
X73866278Y-108961818D01*
X73931171Y-108920297D01*
X74000980Y-108887657D01*
X74075670Y-108863920D01*
X74136950Y-108851653D01*
X74157795Y-108848274D01*
X74174548Y-108845188D01*
X74184878Y-108842845D01*
X74186986Y-108842026D01*
X74187688Y-108834699D01*
X74183657Y-108820468D01*
X74175704Y-108800942D01*
X74164639Y-108777732D01*
X74151272Y-108752449D01*
X74136413Y-108726703D01*
X74120872Y-108702105D01*
X74105939Y-108680899D01*
X74058569Y-108626188D01*
X74004930Y-108579420D01*
X73945270Y-108540744D01*
X73879835Y-108510308D01*
X73808873Y-108488261D01*
X73771760Y-108480493D01*
X73739340Y-108476346D01*
X73700225Y-108473851D01*
X73657745Y-108473010D01*
X73615229Y-108473821D01*
X73576007Y-108476287D01*
X73543408Y-108480407D01*
X73543111Y-108480460D01*
X73469538Y-108498217D01*
X73401365Y-108524437D01*
X73338844Y-108558967D01*
X73282227Y-108601655D01*
X73231764Y-108652351D01*
X73207001Y-108683218D01*
X73191289Y-108706061D01*
X73175052Y-108732575D01*
X73159508Y-108760450D01*
X73145876Y-108787377D01*
X73135372Y-108811045D01*
X73129216Y-108829145D01*
X73128617Y-108831875D01*
X73125639Y-108847611D01*
X73008465Y-108847611D01*
X73018127Y-108818680D01*
X73026177Y-108797002D01*
X73037172Y-108770587D01*
X73049308Y-108743678D01*
X73055391Y-108731057D01*
X73097931Y-108655440D01*
X73146585Y-108587810D01*
X73201199Y-108528289D01*
X73261618Y-108476999D01*
X73327689Y-108434061D01*
X73399257Y-108399598D01*
X73476167Y-108373731D01*
X73521914Y-108362965D01*
X73555161Y-108358085D01*
X73595619Y-108354980D01*
X73640499Y-108353625D01*
X73687014Y-108353991D01*
G37*
X73687014Y-108353991D02*
X73732375Y-108356052D01*
X73773794Y-108359780D01*
X73808483Y-108365150D01*
X73811395Y-108365759D01*
X73890635Y-108387497D01*
X73964009Y-108417438D01*
X74031830Y-108455785D01*
X74094414Y-108502739D01*
X74152077Y-108558504D01*
X74198895Y-108614889D01*
X74220962Y-108646620D01*
X74243934Y-108683879D01*
X74266332Y-108723914D01*
X74286682Y-108763972D01*
X74303506Y-108801301D01*
X74314383Y-108830197D01*
X74319840Y-108846109D01*
X74324296Y-108857714D01*
X74326434Y-108861967D01*
X74332382Y-108864133D01*
X74345301Y-108867240D01*
X74358942Y-108869959D01*
X74399191Y-108879382D01*
X74444524Y-108893437D01*
X74491659Y-108910992D01*
X74537314Y-108930915D01*
X74541541Y-108932931D01*
X74614134Y-108972295D01*
X74681352Y-109017714D01*
X74742191Y-109068300D01*
X74795644Y-109123169D01*
X74840704Y-109181433D01*
X74861778Y-109215007D01*
X74884618Y-109254605D01*
X74939059Y-109257746D01*
X75045529Y-109265775D01*
X75144491Y-109277326D01*
X75238105Y-109292803D01*
X75328531Y-109312607D01*
X75417931Y-109337143D01*
X75490719Y-109360639D01*
X75621526Y-109410876D01*
X75748777Y-109470499D01*
X75872356Y-109539334D01*
X75992152Y-109617209D01*
X76108049Y-109703949D01*
X76219933Y-109799381D01*
X76327691Y-109903332D01*
X76431209Y-110015630D01*
X76530372Y-110136099D01*
X76625067Y-110264568D01*
X76715180Y-110400862D01*
X76800596Y-110544809D01*
X76881201Y-110696235D01*
X76956883Y-110854967D01*
X77027526Y-111020831D01*
X77093017Y-111193654D01*
X77153241Y-111373263D01*
X77208085Y-111559485D01*
X77257435Y-111752146D01*
X77301177Y-111951072D01*
X77339196Y-112156092D01*
X77342619Y-112176560D01*
X77359612Y-112283878D01*
X77374818Y-112390232D01*
X77388415Y-112497300D01*
X77400581Y-112606754D01*
X77411495Y-112720272D01*
X77421334Y-112839528D01*
X77430276Y-112966198D01*
X77435515Y-113050320D01*
X77437014Y-113082053D01*
X77438320Y-113122725D01*
X77439431Y-113171114D01*
X77440350Y-113226000D01*
X77441074Y-113286164D01*
X77441606Y-113350384D01*
X77441943Y-113417440D01*
X77442087Y-113486112D01*
X77442038Y-113555179D01*
X77441795Y-113623422D01*
X77441358Y-113689620D01*
X77440728Y-113752553D01*
X77439904Y-113810999D01*
X77438887Y-113863740D01*
X77437676Y-113909555D01*
X77436271Y-113947223D01*
X77435521Y-113962180D01*
X77420706Y-114190254D01*
X77402134Y-114410657D01*
X77379574Y-114625248D01*
X77352797Y-114835882D01*
X77321575Y-115044418D01*
X77285677Y-115252712D01*
X77258562Y-115394740D01*
X77203920Y-115652528D01*
X77143133Y-115905889D01*
X77076343Y-116154551D01*
X77003690Y-116398243D01*
X76925316Y-116636694D01*
X76841363Y-116869632D01*
X76751971Y-117096785D01*
X76657284Y-117317883D01*
X76557441Y-117532653D01*
X76452585Y-117740825D01*
X76342856Y-117942126D01*
X76228397Y-118136286D01*
X76109349Y-118323033D01*
X75985853Y-118502096D01*
X75858051Y-118673202D01*
X75726084Y-118836082D01*
X75590094Y-118990462D01*
X75450222Y-119136073D01*
X75306610Y-119272641D01*
X75180289Y-119382593D01*
X75043014Y-119491660D01*
X74901799Y-119593264D01*
X74757294Y-119687063D01*
X74610149Y-119772714D01*
X74461014Y-119849876D01*
X74310540Y-119918204D01*
X74159377Y-119977358D01*
X74008174Y-120026995D01*
X73900991Y-120056312D01*
X73837344Y-120072251D01*
X73821635Y-120095083D01*
X73804591Y-120118346D01*
X73784320Y-120143671D01*
X73762624Y-120169020D01*
X73741308Y-120192358D01*
X73722175Y-120211647D01*
X73707028Y-120224850D01*
X73706183Y-120225479D01*
X73683935Y-120239595D01*
X73665278Y-120245820D01*
X73647957Y-120244570D01*
X73634181Y-120238815D01*
X73620991Y-120229444D01*
X73603303Y-120213706D01*
X73582753Y-120193330D01*
X73560982Y-120170045D01*
X73539628Y-120145582D01*
X73520330Y-120121669D01*
X73510140Y-120107911D01*
X73497365Y-120090384D01*
X73487746Y-120079308D01*
X73478771Y-120072702D01*
X73467924Y-120068586D01*
X73456800Y-120065887D01*
X73432077Y-120059853D01*
X73399916Y-120051219D01*
X73362503Y-120040636D01*
X73322024Y-120028759D01*
X73280666Y-120016241D01*
X73240614Y-120003736D01*
X73204055Y-119991897D01*
X73173174Y-119981377D01*
X73168262Y-119979629D01*
X73002831Y-119914883D01*
X72840279Y-119840418D01*
X72680659Y-119756275D01*
X72524023Y-119662493D01*
X72370422Y-119559114D01*
X72219910Y-119446177D01*
X72072537Y-119323722D01*
X71928357Y-119191790D01*
X71787422Y-119050420D01*
X71649783Y-118899654D01*
X71515494Y-118739531D01*
X71449719Y-118656100D01*
X71324395Y-118487017D01*
X71202577Y-118308870D01*
X71084589Y-118122241D01*
X70970754Y-117927715D01*
X70861397Y-117725873D01*
X70756840Y-117517302D01*
X70657407Y-117302583D01*
X70563423Y-117082300D01*
X70528289Y-116994940D01*
X70427925Y-116728042D01*
X70335635Y-116455710D01*
X70251509Y-116178589D01*
X70175632Y-115897325D01*
X70108093Y-115612562D01*
X70048978Y-115324947D01*
X69998376Y-115035126D01*
X69956373Y-114743744D01*
X69923058Y-114451446D01*
X69898517Y-114158879D01*
X69882838Y-113866688D01*
X69876547Y-113594462D01*
X69986287Y-113594462D01*
X69988822Y-113759384D01*
X69993993Y-113921364D01*
X70001793Y-114077853D01*
X70005244Y-114132360D01*
X70030618Y-114439241D01*
X70065342Y-114743647D01*
X70109348Y-115045270D01*
X70162567Y-115343805D01*
X70224930Y-115638945D01*
X70296367Y-115930384D01*
X70376811Y-116217816D01*
X70466192Y-116500935D01*
X70564442Y-116779434D01*
X70650684Y-117001931D01*
X70715957Y-117157947D01*
X70786386Y-117315661D01*
X70860914Y-117472941D01*
X70938488Y-117627656D01*
X71018051Y-117777674D01*
X71098549Y-117920864D01*
X71142985Y-117996182D01*
X71259807Y-118183112D01*
X71380417Y-118361375D01*
X71504719Y-118530884D01*
X71632616Y-118691555D01*
X71764011Y-118843304D01*
X71898807Y-118986046D01*
X72036907Y-119119697D01*
X72178214Y-119244171D01*
X72322632Y-119359386D01*
X72470063Y-119465255D01*
X72620411Y-119561695D01*
X72773578Y-119648620D01*
X72929467Y-119725947D01*
X73087983Y-119793591D01*
X73249027Y-119851467D01*
X73282043Y-119862023D01*
X73309381Y-119870486D01*
X73333552Y-119877788D01*
X73352797Y-119883411D01*
X73365357Y-119886839D01*
X73369238Y-119887656D01*
X73372388Y-119885383D01*
X73370497Y-119876908D01*
X73367209Y-119868950D01*
X73356747Y-119843084D01*
X73345009Y-119810389D01*
X73332971Y-119773943D01*
X73321606Y-119736824D01*
X73311889Y-119702111D01*
X73304795Y-119672883D01*
X73304098Y-119669560D01*
X73299266Y-119641076D01*
X73294933Y-119606556D01*
X73291564Y-119570119D01*
X73289903Y-119543042D01*
X73286890Y-119475868D01*
X73396905Y-119475868D01*
X73397163Y-119520783D01*
X73397337Y-119524780D01*
X73406427Y-119611631D01*
X73425464Y-119698713D01*
X73454264Y-119785497D01*
X73492642Y-119871460D01*
X73540413Y-119956074D01*
X73558867Y-119984601D01*
X73584326Y-120021751D01*
X73605734Y-120050462D01*
X73623917Y-120071208D01*
X73639699Y-120084465D01*
X73653907Y-120090707D01*
X73667365Y-120090408D01*
X73680899Y-120084043D01*
X73695334Y-120072087D01*
X73701040Y-120066369D01*
X73718353Y-120046242D01*
X73738748Y-120019034D01*
X73760884Y-119986807D01*
X73783420Y-119951627D01*
X73805014Y-119915558D01*
X73824324Y-119880663D01*
X73833723Y-119862235D01*
X73863997Y-119793853D01*
X73889291Y-119722860D01*
X73908108Y-119653495D01*
X73909129Y-119648877D01*
X73916248Y-119607133D01*
X73920882Y-119560440D01*
X73923034Y-119511358D01*
X73922707Y-119462448D01*
X73919904Y-119416270D01*
X73914628Y-119375385D01*
X73908779Y-119348745D01*
X73898121Y-119327399D01*
X73878756Y-119306104D01*
X73852095Y-119285838D01*
X73819549Y-119267578D01*
X73782527Y-119252301D01*
X73759060Y-119245055D01*
X73740157Y-119241112D01*
X73715259Y-119237526D01*
X73688527Y-119234852D01*
X73676653Y-119234075D01*
X73631525Y-119234554D01*
X73587178Y-119240308D01*
X73544939Y-119250741D01*
X73506135Y-119265259D01*
X73472094Y-119283267D01*
X73444141Y-119304170D01*
X73423605Y-119327373D01*
X73411812Y-119352282D01*
X73411654Y-119352869D01*
X73404437Y-119388474D01*
X73399425Y-119430620D01*
X73396905Y-119475868D01*
X73286890Y-119475868D01*
X73286620Y-119469864D01*
X73200591Y-119435256D01*
X73055922Y-119371754D01*
X72912939Y-119298378D01*
X72771888Y-119215310D01*
X72633016Y-119122733D01*
X72622792Y-119115097D01*
X72821212Y-119115097D01*
X72822726Y-119118565D01*
X72832731Y-119126102D01*
X72850440Y-119137446D01*
X72874486Y-119151829D01*
X72903502Y-119168483D01*
X72936120Y-119186639D01*
X72970974Y-119205529D01*
X73006695Y-119224384D01*
X73041918Y-119242437D01*
X73052940Y-119247958D01*
X73081532Y-119261918D01*
X73113008Y-119276819D01*
X73145923Y-119292026D01*
X73178832Y-119306903D01*
X73210292Y-119320815D01*
X73238859Y-119333124D01*
X73263087Y-119343195D01*
X73281534Y-119350392D01*
X73292755Y-119354079D01*
X73294701Y-119354422D01*
X73297372Y-119350025D01*
X73301057Y-119338521D01*
X73303685Y-119327930D01*
X73317916Y-119287272D01*
X73341293Y-119250049D01*
X73373268Y-119216653D01*
X73413294Y-119187474D01*
X73460824Y-119162904D01*
X73515311Y-119143332D01*
X73576207Y-119129151D01*
X73583800Y-119127850D01*
X73637481Y-119122661D01*
X73693329Y-119123953D01*
X73749522Y-119131256D01*
X73804237Y-119144100D01*
X73855652Y-119162013D01*
X73901944Y-119184526D01*
X73941290Y-119211169D01*
X73955672Y-119223828D01*
X73978311Y-119249554D01*
X73997647Y-119279093D01*
X74011848Y-119309244D01*
X74018667Y-119333893D01*
X74021164Y-119346718D01*
X74023446Y-119353984D01*
X74024044Y-119354600D01*
X74032258Y-119352515D01*
X74048243Y-119346667D01*
X74070599Y-119337666D01*
X74097924Y-119326122D01*
X74128818Y-119312645D01*
X74161881Y-119297845D01*
X74195713Y-119282332D01*
X74228913Y-119266715D01*
X74256900Y-119253173D01*
X74288547Y-119237288D01*
X74322414Y-119219719D01*
X74357140Y-119201227D01*
X74391369Y-119182571D01*
X74423741Y-119164513D01*
X74452899Y-119147812D01*
X74477483Y-119133230D01*
X74496137Y-119121527D01*
X74507500Y-119113462D01*
X74509256Y-119111895D01*
X74507459Y-119107148D01*
X74499230Y-119098037D01*
X74486231Y-119086345D01*
X74482942Y-119083641D01*
X74422409Y-119031521D01*
X74360954Y-118972794D01*
X74300569Y-118909641D01*
X74243245Y-118844242D01*
X74190976Y-118778777D01*
X74145752Y-118715428D01*
X74143463Y-118711980D01*
X74131811Y-118693465D01*
X74117818Y-118669860D01*
X74102503Y-118643036D01*
X74086882Y-118614863D01*
X74071973Y-118587213D01*
X74058795Y-118561958D01*
X74048365Y-118540969D01*
X74041701Y-118526117D01*
X74040341Y-118522386D01*
X74035405Y-118521949D01*
X74022832Y-118527877D01*
X74002550Y-118540208D01*
X73982442Y-118553542D01*
X73950622Y-118574350D01*
X73915391Y-118596019D01*
X73878026Y-118617886D01*
X73839806Y-118639286D01*
X73802008Y-118659556D01*
X73765910Y-118678033D01*
X73732791Y-118694052D01*
X73703928Y-118706951D01*
X73680600Y-118716065D01*
X73664083Y-118720730D01*
X73659567Y-118721204D01*
X73648006Y-118718736D01*
X73629038Y-118711681D01*
X73603948Y-118700715D01*
X73574019Y-118686513D01*
X73540537Y-118669752D01*
X73504784Y-118651107D01*
X73468046Y-118631254D01*
X73431607Y-118610867D01*
X73396750Y-118590624D01*
X73364760Y-118571200D01*
X73336922Y-118553270D01*
X73325419Y-118545398D01*
X73293098Y-118522725D01*
X73258901Y-118590342D01*
X73214733Y-118669312D01*
X73161829Y-118749398D01*
X73101308Y-118829233D01*
X73034287Y-118907453D01*
X72961883Y-118982694D01*
X72885215Y-119053592D01*
X72865906Y-119070146D01*
X72845072Y-119088053D01*
X72831313Y-119100802D01*
X72823678Y-119109460D01*
X72821212Y-119115097D01*
X72622792Y-119115097D01*
X72496570Y-119020830D01*
X72362796Y-118909783D01*
X72231941Y-118789776D01*
X72104251Y-118660992D01*
X71995795Y-118541800D01*
X71866555Y-118387190D01*
X71741335Y-118223430D01*
X71620262Y-118050752D01*
X71503462Y-117869391D01*
X71391061Y-117679579D01*
X71283185Y-117481551D01*
X71255502Y-117426300D01*
X71382295Y-117426300D01*
X71384926Y-117433153D01*
X71391901Y-117447587D01*
X71402542Y-117468351D01*
X71416170Y-117494195D01*
X71432105Y-117523870D01*
X71449670Y-117556124D01*
X71468183Y-117589707D01*
X71486968Y-117623370D01*
X71505345Y-117655860D01*
X71522634Y-117685930D01*
X71531744Y-117701509D01*
X71630991Y-117864428D01*
X71731365Y-118018012D01*
X71833477Y-118163076D01*
X71937935Y-118300430D01*
X72045350Y-118430887D01*
X72156332Y-118555261D01*
X72232520Y-118635113D01*
X72339986Y-118740949D01*
X72446236Y-118837749D01*
X72552280Y-118926390D01*
X72659133Y-119007749D01*
X72681491Y-119023793D01*
X72706717Y-119041508D01*
X72725106Y-119053824D01*
X72737948Y-119061441D01*
X72746529Y-119065061D01*
X72752138Y-119065386D01*
X72755151Y-119063904D01*
X72762229Y-119058226D01*
X72775207Y-119047636D01*
X72792164Y-119033705D01*
X72809100Y-119019727D01*
X72827596Y-119003743D01*
X72851066Y-118982426D01*
X72877412Y-118957739D01*
X72904538Y-118931646D01*
X72928559Y-118907905D01*
X72998575Y-118834090D01*
X73059729Y-118761871D01*
X73112920Y-118690037D01*
X73159052Y-118617376D01*
X73196748Y-118547309D01*
X73230421Y-118479158D01*
X73215667Y-118468569D01*
X73206757Y-118461867D01*
X73191610Y-118450150D01*
X73171927Y-118434744D01*
X73149407Y-118416979D01*
X73133857Y-118404640D01*
X73027229Y-118315045D01*
X72920252Y-118215703D01*
X72813247Y-118107006D01*
X72706537Y-117989343D01*
X72600444Y-117863106D01*
X72495291Y-117728686D01*
X72391401Y-117586473D01*
X72289094Y-117436858D01*
X72188696Y-117280233D01*
X72138546Y-117198140D01*
X72122004Y-117170689D01*
X72107159Y-117146183D01*
X72094830Y-117125966D01*
X72085836Y-117111379D01*
X72080998Y-117103765D01*
X72080481Y-117103044D01*
X72075436Y-117104363D01*
X72064539Y-117110970D01*
X72049723Y-117121628D01*
X72041920Y-117127714D01*
X71965375Y-117183366D01*
X71880110Y-117235183D01*
X71786963Y-117282775D01*
X71686772Y-117325752D01*
X71580376Y-117363724D01*
X71468612Y-117396300D01*
X71460360Y-117398432D01*
X71428986Y-117406725D01*
X71406528Y-117413316D01*
X71391954Y-117418573D01*
X71384232Y-117422865D01*
X71382295Y-117426300D01*
X71255502Y-117426300D01*
X71179962Y-117275539D01*
X71081517Y-117061778D01*
X70987978Y-116840500D01*
X70899469Y-116611940D01*
X70816119Y-116376330D01*
X70804566Y-116341887D01*
X70715656Y-116059570D01*
X70636084Y-115774332D01*
X70565804Y-115485918D01*
X70504765Y-115194075D01*
X70452921Y-114898550D01*
X70410223Y-114599091D01*
X70376623Y-114295443D01*
X70352073Y-113987354D01*
X70350007Y-113954560D01*
X70347528Y-113907279D01*
X70345317Y-113851448D01*
X70343390Y-113788673D01*
X70341761Y-113720562D01*
X70340448Y-113648721D01*
X70339464Y-113574756D01*
X70338826Y-113500275D01*
X70338668Y-113458027D01*
X70450806Y-113458027D01*
X70450952Y-113511941D01*
X70451274Y-113563486D01*
X70451779Y-113611522D01*
X70452473Y-113654911D01*
X70453362Y-113692514D01*
X70454045Y-113713260D01*
X70469923Y-114013146D01*
X70494726Y-114310769D01*
X70528371Y-114605784D01*
X70570778Y-114897845D01*
X70621863Y-115186607D01*
X70681544Y-115471725D01*
X70749740Y-115752853D01*
X70826367Y-116029646D01*
X70911345Y-116301759D01*
X71004591Y-116568846D01*
X71106022Y-116830562D01*
X71215556Y-117086562D01*
X71299796Y-117267990D01*
X71315173Y-117299367D01*
X71327139Y-117322212D01*
X71336193Y-117337367D01*
X71342837Y-117345676D01*
X71347252Y-117348000D01*
X71355269Y-117346791D01*
X71371065Y-117343473D01*
X71392585Y-117338508D01*
X71417779Y-117332358D01*
X71426523Y-117330154D01*
X71534054Y-117299723D01*
X71636356Y-117264525D01*
X71732588Y-117224949D01*
X71821906Y-117181390D01*
X71903468Y-117134237D01*
X71976429Y-117083885D01*
X72005463Y-117060922D01*
X72040027Y-117032364D01*
X72018498Y-116993332D01*
X71989283Y-116940111D01*
X71963008Y-116891632D01*
X71938448Y-116845552D01*
X71914377Y-116799530D01*
X71889569Y-116751222D01*
X71862799Y-116698287D01*
X71834582Y-116641880D01*
X71786840Y-116544946D01*
X71743783Y-116455014D01*
X71704726Y-116370460D01*
X71668984Y-116289661D01*
X71635873Y-116210992D01*
X71604706Y-116132831D01*
X71574800Y-116053554D01*
X71545470Y-115971536D01*
X71518512Y-115892580D01*
X71445143Y-115659193D01*
X71381445Y-115426055D01*
X71327219Y-115192148D01*
X71282262Y-114956454D01*
X71246372Y-114717955D01*
X71219350Y-114475631D01*
X71206246Y-114312700D01*
X71202467Y-114247650D01*
X71199488Y-114175893D01*
X71197310Y-114099218D01*
X71195934Y-114019416D01*
X71195886Y-114012520D01*
X71336878Y-114012520D01*
X71340763Y-114165933D01*
X71348687Y-114321080D01*
X71360651Y-114476444D01*
X71361701Y-114487960D01*
X71384361Y-114692471D01*
X71414587Y-114898128D01*
X71452067Y-115103734D01*
X71496492Y-115308091D01*
X71547551Y-115510001D01*
X71604934Y-115708268D01*
X71668330Y-115901694D01*
X71737428Y-116089081D01*
X71811918Y-116269233D01*
X71839791Y-116331638D01*
X71929882Y-116522834D01*
X72023645Y-116709349D01*
X72120624Y-116890410D01*
X72220364Y-117065245D01*
X72322407Y-117233082D01*
X72426300Y-117393150D01*
X72531586Y-117544677D01*
X72637809Y-117686891D01*
X72646862Y-117698520D01*
X72728136Y-117798966D01*
X72813076Y-117897123D01*
X72900387Y-117991653D01*
X72988776Y-118081222D01*
X73076947Y-118164491D01*
X73163606Y-118240127D01*
X73202069Y-118271560D01*
X73235208Y-118297068D01*
X73274257Y-118325545D01*
X73316983Y-118355486D01*
X73361155Y-118385383D01*
X73404541Y-118413732D01*
X73444907Y-118439027D01*
X73480023Y-118459762D01*
X73486118Y-118463173D01*
X73510906Y-118476482D01*
X73538349Y-118490539D01*
X73566779Y-118504563D01*
X73594526Y-118517774D01*
X73619920Y-118529391D01*
X73641291Y-118538635D01*
X73656970Y-118544724D01*
X73665223Y-118546880D01*
X73671928Y-118544696D01*
X73686235Y-118538593D01*
X73706683Y-118529244D01*
X73731812Y-118517321D01*
X73760161Y-118503497D01*
X73769370Y-118498933D01*
X73815786Y-118474876D01*
X74101963Y-118474876D01*
X74104085Y-118480428D01*
X74109917Y-118493371D01*
X74118663Y-118511995D01*
X74129524Y-118534586D01*
X74134278Y-118544340D01*
X74181362Y-118630364D01*
X74238243Y-118715947D01*
X74305019Y-118801214D01*
X74381786Y-118886292D01*
X74444860Y-118948990D01*
X74460865Y-118963913D01*
X74479944Y-118981209D01*
X74500652Y-118999623D01*
X74521539Y-119017903D01*
X74541161Y-119034796D01*
X74558068Y-119049049D01*
X74570815Y-119059409D01*
X74577953Y-119064622D01*
X74578834Y-119065000D01*
X74583565Y-119062293D01*
X74594470Y-119055063D01*
X74609466Y-119044702D01*
X74614394Y-119041232D01*
X74753013Y-118937271D01*
X74888432Y-118823744D01*
X75020565Y-118700753D01*
X75149326Y-118568404D01*
X75274629Y-118426800D01*
X75396388Y-118276045D01*
X75514517Y-118116244D01*
X75628932Y-117947500D01*
X75739545Y-117769917D01*
X75846271Y-117583599D01*
X75899799Y-117484066D01*
X75936473Y-117414392D01*
X75922186Y-117411183D01*
X75825060Y-117386449D01*
X75729168Y-117356365D01*
X75635901Y-117321554D01*
X75546654Y-117282639D01*
X75462820Y-117240243D01*
X75385792Y-117194990D01*
X75316964Y-117147501D01*
X75295844Y-117131090D01*
X75277245Y-117116750D01*
X75261405Y-117105628D01*
X75249997Y-117098826D01*
X75244698Y-117097445D01*
X75244692Y-117097451D01*
X75241012Y-117102844D01*
X75232920Y-117115665D01*
X75221211Y-117134619D01*
X75206684Y-117158411D01*
X75190134Y-117185746D01*
X75181145Y-117200680D01*
X75120575Y-117299050D01*
X75055521Y-117400208D01*
X74987681Y-117501657D01*
X74918751Y-117600900D01*
X74850429Y-117695441D01*
X74791581Y-117773515D01*
X74702153Y-117885753D01*
X74610316Y-117993723D01*
X74516971Y-118096495D01*
X74423015Y-118193141D01*
X74329349Y-118282733D01*
X74236872Y-118364342D01*
X74156070Y-118429682D01*
X74136198Y-118445263D01*
X74119609Y-118458729D01*
X74107785Y-118468841D01*
X74102208Y-118474362D01*
X74101963Y-118474876D01*
X73815786Y-118474876D01*
X73838722Y-118462989D01*
X73903389Y-118426263D01*
X73965700Y-118387245D01*
X74027988Y-118344420D01*
X74092585Y-118296277D01*
X74142600Y-118256855D01*
X74251519Y-118164166D01*
X74360070Y-118061560D01*
X74468078Y-117949280D01*
X74575364Y-117827566D01*
X74681754Y-117696662D01*
X74787070Y-117556808D01*
X74891136Y-117408247D01*
X74993775Y-117251219D01*
X75094811Y-117085968D01*
X75129777Y-117024941D01*
X75284286Y-117024941D01*
X75303993Y-117041856D01*
X75381772Y-117102342D01*
X75468353Y-117157853D01*
X75563659Y-117208351D01*
X75667611Y-117253799D01*
X75780132Y-117294157D01*
X75884303Y-117324931D01*
X75909435Y-117331476D01*
X75931895Y-117336942D01*
X75949407Y-117340799D01*
X75959690Y-117342520D01*
X75960344Y-117342558D01*
X75964788Y-117341761D01*
X75969482Y-117338342D01*
X75975113Y-117331172D01*
X75982373Y-117319125D01*
X75991948Y-117301072D01*
X76004529Y-117275886D01*
X76018052Y-117248126D01*
X76079951Y-117115865D01*
X76141705Y-116975227D01*
X76202600Y-116827978D01*
X76261925Y-116675882D01*
X76318965Y-116520708D01*
X76363201Y-116393389D01*
X76455384Y-116105269D01*
X76538474Y-115812822D01*
X76612412Y-115516364D01*
X76677139Y-115216213D01*
X76732599Y-114912688D01*
X76778732Y-114606106D01*
X76815481Y-114296786D01*
X76842787Y-113985045D01*
X76860321Y-113677700D01*
X76861245Y-113651007D01*
X76862086Y-113617543D01*
X76862839Y-113578373D01*
X76863501Y-113534560D01*
X76864069Y-113487168D01*
X76864540Y-113437259D01*
X76864911Y-113385899D01*
X76865176Y-113334149D01*
X76865335Y-113283074D01*
X76865382Y-113233738D01*
X76865315Y-113187204D01*
X76865131Y-113144535D01*
X76864825Y-113106796D01*
X76864394Y-113075050D01*
X76863836Y-113050360D01*
X76863146Y-113033789D01*
X76862396Y-113026640D01*
X76860662Y-113021732D01*
X76857541Y-113019566D01*
X76851193Y-113020506D01*
X76839780Y-113024914D01*
X76821463Y-113033156D01*
X76815475Y-113035910D01*
X76677113Y-113094043D01*
X76535121Y-113142761D01*
X76390063Y-113181901D01*
X76242504Y-113211303D01*
X76162227Y-113223042D01*
X76134857Y-113226603D01*
X76111332Y-113229784D01*
X76093359Y-113232343D01*
X76082647Y-113234039D01*
X76080388Y-113234566D01*
X76080700Y-113239739D01*
X76082170Y-113253125D01*
X76084577Y-113272869D01*
X76087702Y-113297119D01*
X76088784Y-113305283D01*
X76106208Y-113459804D01*
X76118329Y-113621702D01*
X76125149Y-113789689D01*
X76126672Y-113962477D01*
X76122902Y-114138779D01*
X76113841Y-114317308D01*
X76099493Y-114496776D01*
X76085384Y-114630200D01*
X76056835Y-114841830D01*
X76020804Y-115053478D01*
X75977603Y-115263989D01*
X75927544Y-115472211D01*
X75870936Y-115676989D01*
X75808091Y-115877169D01*
X75739321Y-116071598D01*
X75664935Y-116259121D01*
X75615581Y-116372640D01*
X75599413Y-116407786D01*
X75579350Y-116450191D01*
X75556150Y-116498341D01*
X75530571Y-116550721D01*
X75503372Y-116605815D01*
X75475309Y-116662110D01*
X75447142Y-116718089D01*
X75419629Y-116772240D01*
X75393527Y-116823045D01*
X75369595Y-116868992D01*
X75348592Y-116908565D01*
X75333484Y-116936280D01*
X75284286Y-117024941D01*
X75129777Y-117024941D01*
X75194067Y-116912735D01*
X75291366Y-116731761D01*
X75371773Y-116573300D01*
X75414129Y-116486835D01*
X75452113Y-116407538D01*
X75486422Y-116333774D01*
X75517755Y-116263907D01*
X75546810Y-116196301D01*
X75574287Y-116129321D01*
X75600884Y-116061331D01*
X75627300Y-115990695D01*
X75654232Y-115915779D01*
X75661842Y-115894154D01*
X75721644Y-115712896D01*
X75775764Y-115527101D01*
X75824094Y-115337705D01*
X75866529Y-115145642D01*
X75902964Y-114951849D01*
X75933293Y-114757259D01*
X75957410Y-114562810D01*
X75975211Y-114369434D01*
X75986588Y-114178069D01*
X75991438Y-113989649D01*
X75989654Y-113805109D01*
X75981130Y-113625385D01*
X75965761Y-113451411D01*
X75950881Y-113333597D01*
X75924018Y-113170290D01*
X75891113Y-113013552D01*
X75852269Y-112863577D01*
X75807585Y-112720558D01*
X75757164Y-112584689D01*
X75701106Y-112456162D01*
X75639512Y-112335170D01*
X75572484Y-112221908D01*
X75500123Y-112116567D01*
X75422529Y-112019341D01*
X75339806Y-111930423D01*
X75252052Y-111850006D01*
X75159370Y-111778284D01*
X75123040Y-111753454D01*
X75056368Y-111713585D01*
X74984871Y-111678943D01*
X74907656Y-111649229D01*
X74823827Y-111624148D01*
X74771300Y-111612217D01*
X75192658Y-111612217D01*
X75194410Y-111616918D01*
X75202764Y-111625659D01*
X75215990Y-111636666D01*
X75218058Y-111638232D01*
X75313321Y-111715515D01*
X75405004Y-111801826D01*
X75492727Y-111896547D01*
X75576108Y-111999061D01*
X75654764Y-112108752D01*
X75728315Y-112225002D01*
X75796377Y-112347194D01*
X75858570Y-112474713D01*
X75914511Y-112606939D01*
X75963819Y-112743258D01*
X76006112Y-112883052D01*
X76019130Y-112932465D01*
X76025425Y-112958066D01*
X76032372Y-112987591D01*
X76039598Y-113019310D01*
X76046730Y-113051493D01*
X76053395Y-113082408D01*
X76059220Y-113110325D01*
X76063831Y-113133513D01*
X76066855Y-113150243D01*
X76067920Y-113158716D01*
X76072652Y-113158996D01*
X76085686Y-113157973D01*
X76105282Y-113155869D01*
X76129695Y-113152905D01*
X76157184Y-113149301D01*
X76186007Y-113145280D01*
X76214421Y-113141062D01*
X76240684Y-113136869D01*
X76243180Y-113136451D01*
X76303655Y-113124901D01*
X76369998Y-113109845D01*
X76438892Y-113092126D01*
X76507024Y-113072590D01*
X76560680Y-113055579D01*
X76599130Y-113042233D01*
X76640778Y-113026837D01*
X76683589Y-113010222D01*
X76725528Y-112993219D01*
X76764560Y-112976658D01*
X76798651Y-112961370D01*
X76825764Y-112948185D01*
X76832460Y-112944641D01*
X76857860Y-112930825D01*
X76856295Y-112887702D01*
X76855394Y-112868496D01*
X76853855Y-112841725D01*
X76851840Y-112809951D01*
X76849512Y-112775739D01*
X76847322Y-112745520D01*
X76828234Y-112537667D01*
X76802486Y-112334959D01*
X76770174Y-112137702D01*
X76731389Y-111946204D01*
X76686226Y-111760771D01*
X76634778Y-111581712D01*
X76577138Y-111409333D01*
X76513400Y-111243941D01*
X76443657Y-111085845D01*
X76368003Y-110935350D01*
X76286530Y-110792765D01*
X76223850Y-110694470D01*
X76209070Y-110672589D01*
X76196251Y-110654083D01*
X76186442Y-110640431D01*
X76180696Y-110633116D01*
X76179715Y-110632286D01*
X76176630Y-110636611D01*
X76170474Y-110648179D01*
X76162302Y-110664952D01*
X76157393Y-110675517D01*
X76124749Y-110739549D01*
X76083876Y-110807291D01*
X76035537Y-110877721D01*
X75980496Y-110949818D01*
X75919514Y-111022561D01*
X75853355Y-111094928D01*
X75813987Y-111135252D01*
X75702427Y-111240748D01*
X75583388Y-111341436D01*
X75456205Y-111437836D01*
X75320215Y-111530472D01*
X75274883Y-111559310D01*
X75249637Y-111575188D01*
X75227332Y-111589360D01*
X75209418Y-111600894D01*
X75197349Y-111608855D01*
X75192658Y-111612217D01*
X74771300Y-111612217D01*
X74732490Y-111603402D01*
X74632751Y-111586694D01*
X74612500Y-111583915D01*
X74575053Y-111580044D01*
X74530417Y-111577209D01*
X74480935Y-111575412D01*
X74428949Y-111574654D01*
X74376804Y-111574938D01*
X74326841Y-111576264D01*
X74281405Y-111578636D01*
X74242839Y-111582053D01*
X74230440Y-111583632D01*
X74171998Y-111592800D01*
X74110159Y-111604317D01*
X74043112Y-111618554D01*
X73969046Y-111635881D01*
X73939400Y-111643174D01*
X73878535Y-111658102D01*
X73826284Y-111670359D01*
X73781502Y-111680105D01*
X73743042Y-111687498D01*
X73709761Y-111692696D01*
X73680512Y-111695859D01*
X73654152Y-111697145D01*
X73629535Y-111696712D01*
X73605516Y-111694720D01*
X73586082Y-111692128D01*
X73567962Y-111688873D01*
X73541769Y-111683476D01*
X73509268Y-111676335D01*
X73472223Y-111667849D01*
X73432398Y-111658416D01*
X73391558Y-111648434D01*
X73381705Y-111645976D01*
X73304954Y-111627241D01*
X73236400Y-111611631D01*
X73174638Y-111598950D01*
X73118261Y-111589003D01*
X73065866Y-111581593D01*
X73016047Y-111576524D01*
X72967398Y-111573601D01*
X72918515Y-111572627D01*
X72867993Y-111573408D01*
X72862491Y-111573585D01*
X72757174Y-111580190D01*
X72654849Y-111592660D01*
X72557029Y-111610720D01*
X72465225Y-111634092D01*
X72384606Y-111661099D01*
X72303488Y-111696932D01*
X72222587Y-111742397D01*
X72142525Y-111796973D01*
X72063924Y-111860139D01*
X71987404Y-111931376D01*
X71913588Y-112010162D01*
X71843097Y-112095977D01*
X71806520Y-112145213D01*
X71738587Y-112247568D01*
X71675253Y-112358512D01*
X71616712Y-112477480D01*
X71563157Y-112603907D01*
X71514781Y-112737227D01*
X71471777Y-112876875D01*
X71434339Y-113022285D01*
X71402659Y-113172891D01*
X71376932Y-113328129D01*
X71361738Y-113446560D01*
X71349464Y-113577860D01*
X71341229Y-113716966D01*
X71337034Y-113862358D01*
X71336878Y-114012520D01*
X71195886Y-114012520D01*
X71195359Y-113938278D01*
X71195586Y-113857594D01*
X71196616Y-113779156D01*
X71198448Y-113704753D01*
X71201082Y-113636176D01*
X71204520Y-113575217D01*
X71206130Y-113553240D01*
X71209444Y-113513794D01*
X71213321Y-113471691D01*
X71217577Y-113428609D01*
X71222025Y-113386227D01*
X71226482Y-113346225D01*
X71230763Y-113310281D01*
X71234682Y-113280074D01*
X71238056Y-113257284D01*
X71239774Y-113247702D01*
X71240746Y-113240363D01*
X71238511Y-113236017D01*
X71230955Y-113233448D01*
X71215964Y-113231439D01*
X71210456Y-113230845D01*
X71177807Y-113226870D01*
X71138403Y-113221307D01*
X71095298Y-113214653D01*
X71051543Y-113207406D01*
X71010192Y-113200064D01*
X70974296Y-113193122D01*
X70958809Y-113189839D01*
X70884847Y-113171949D01*
X70808583Y-113150659D01*
X70732228Y-113126721D01*
X70657991Y-113100891D01*
X70588080Y-113073923D01*
X70524707Y-113046569D01*
X70489442Y-113029635D01*
X70460865Y-113015252D01*
X70457700Y-113039136D01*
X70456420Y-113054101D01*
X70455255Y-113078087D01*
X70454210Y-113109953D01*
X70453293Y-113148563D01*
X70452509Y-113192776D01*
X70451865Y-113241453D01*
X70451367Y-113293456D01*
X70451020Y-113347645D01*
X70450831Y-113402881D01*
X70450806Y-113458027D01*
X70338668Y-113458027D01*
X70338550Y-113426884D01*
X70338651Y-113356190D01*
X70339143Y-113289799D01*
X70340044Y-113229319D01*
X70341368Y-113176355D01*
X70342246Y-113151920D01*
X70354275Y-112933513D01*
X70463291Y-112933513D01*
X70526215Y-112963560D01*
X70639843Y-113013575D01*
X70756863Y-113056575D01*
X70878370Y-113092864D01*
X71005459Y-113122745D01*
X71139224Y-113146523D01*
X71229220Y-113158724D01*
X71241263Y-113160268D01*
X71248173Y-113161318D01*
X71251961Y-113157680D01*
X71254347Y-113150650D01*
X71256282Y-113141124D01*
X71259613Y-113124197D01*
X71263837Y-113102447D01*
X71267512Y-113083340D01*
X71283205Y-113009915D01*
X71303091Y-112930531D01*
X71326320Y-112848047D01*
X71352041Y-112765322D01*
X71379404Y-112685217D01*
X71407558Y-112610590D01*
X71409845Y-112604877D01*
X71426879Y-112564456D01*
X71447841Y-112517766D01*
X71471515Y-112467297D01*
X71496682Y-112415541D01*
X71522127Y-112364989D01*
X71546632Y-112318131D01*
X71568979Y-112277460D01*
X71574569Y-112267718D01*
X71640438Y-112160927D01*
X71711683Y-112057935D01*
X71787355Y-111959865D01*
X71866507Y-111867842D01*
X71948189Y-111782988D01*
X72031452Y-111706428D01*
X72086872Y-111660940D01*
X72107561Y-111644632D01*
X72125082Y-111630537D01*
X72138017Y-111619820D01*
X72144943Y-111613648D01*
X72145721Y-111612680D01*
X72141772Y-111609189D01*
X72130940Y-111601986D01*
X72115190Y-111592348D01*
X72106727Y-111587385D01*
X72081767Y-111572350D01*
X72050378Y-111552535D01*
X72014345Y-111529140D01*
X71975453Y-111503364D01*
X71935485Y-111476409D01*
X71896226Y-111449473D01*
X71859461Y-111423758D01*
X71826974Y-111400464D01*
X71808340Y-111386696D01*
X71712575Y-111311776D01*
X71621338Y-111234412D01*
X71535282Y-111155314D01*
X71455063Y-111075192D01*
X71381335Y-110994754D01*
X71314754Y-110914712D01*
X71255975Y-110835774D01*
X71205652Y-110758649D01*
X71170097Y-110695206D01*
X71140142Y-110637069D01*
X71092619Y-110709584D01*
X71011383Y-110841724D01*
X70935201Y-110982396D01*
X70864177Y-111131259D01*
X70798415Y-111287972D01*
X70738020Y-111452195D01*
X70683096Y-111623587D01*
X70633747Y-111801807D01*
X70590077Y-111986513D01*
X70552190Y-112177367D01*
X70520190Y-112374026D01*
X70494183Y-112576149D01*
X70480339Y-112712500D01*
X70477061Y-112749347D01*
X70473871Y-112786672D01*
X70470977Y-112821925D01*
X70468590Y-112852558D01*
X70466915Y-112876024D01*
X70466731Y-112878886D01*
X70463291Y-112933513D01*
X70354275Y-112933513D01*
X70354988Y-112920569D01*
X70374106Y-112695257D01*
X70399549Y-112476179D01*
X70431266Y-112263535D01*
X70469207Y-112057520D01*
X70513321Y-111858334D01*
X70563558Y-111666173D01*
X70619867Y-111481234D01*
X70682198Y-111303716D01*
X70750499Y-111133815D01*
X70824722Y-110971730D01*
X70904815Y-110817658D01*
X70966584Y-110710980D01*
X71048414Y-110583567D01*
X71058232Y-110569988D01*
X71198609Y-110569988D01*
X71199031Y-110573043D01*
X71205481Y-110590181D01*
X71216410Y-110613922D01*
X71230781Y-110642339D01*
X71247555Y-110673505D01*
X71265692Y-110705491D01*
X71284156Y-110736372D01*
X71301908Y-110764218D01*
X71302528Y-110765150D01*
X71371056Y-110860471D01*
X71449152Y-110955227D01*
X71536226Y-111048882D01*
X71631686Y-111140900D01*
X71734940Y-111230744D01*
X71845398Y-111317879D01*
X71962468Y-111401768D01*
X72085558Y-111481874D01*
X72108060Y-111495699D01*
X72132915Y-111510939D01*
X72157156Y-111525983D01*
X72178208Y-111539221D01*
X72193493Y-111549042D01*
X72195012Y-111550044D01*
X72221004Y-111567263D01*
X72311570Y-111531419D01*
X72370494Y-111508617D01*
X72422403Y-111489837D01*
X72469373Y-111474563D01*
X72513480Y-111462281D01*
X72556801Y-111452477D01*
X72601411Y-111444636D01*
X72649387Y-111438245D01*
X72702806Y-111432787D01*
X72713521Y-111431833D01*
X72765013Y-111428313D01*
X72819443Y-111426340D01*
X72874542Y-111425879D01*
X72928042Y-111426896D01*
X72977676Y-111429357D01*
X73021176Y-111433226D01*
X73047930Y-111436949D01*
X73061902Y-111439616D01*
X73084619Y-111444330D01*
X73114927Y-111450835D01*
X73151674Y-111458879D01*
X73193708Y-111468205D01*
X73239876Y-111478561D01*
X73289027Y-111489691D01*
X73340007Y-111501341D01*
X73350190Y-111503681D01*
X73413034Y-111518094D01*
X73466873Y-111530326D01*
X73512588Y-111540540D01*
X73551060Y-111548895D01*
X73583172Y-111555554D01*
X73609804Y-111560677D01*
X73631838Y-111564426D01*
X73650154Y-111566961D01*
X73665635Y-111568445D01*
X73679162Y-111569038D01*
X73691616Y-111568902D01*
X73703180Y-111568249D01*
X73714175Y-111566625D01*
X73733938Y-111562833D01*
X73761364Y-111557117D01*
X73795351Y-111549721D01*
X73834795Y-111540889D01*
X73878593Y-111530864D01*
X73925644Y-111519891D01*
X73974843Y-111508214D01*
X73977500Y-111507578D01*
X74027127Y-111495722D01*
X74074933Y-111484373D01*
X74119770Y-111473798D01*
X74160490Y-111464264D01*
X74195947Y-111456038D01*
X74224994Y-111449388D01*
X74246483Y-111444581D01*
X74259268Y-111441886D01*
X74259440Y-111441853D01*
X74292538Y-111437112D01*
X74334125Y-111433719D01*
X74382623Y-111431654D01*
X74436452Y-111430898D01*
X74494033Y-111431430D01*
X74553789Y-111433232D01*
X74614140Y-111436283D01*
X74673508Y-111440564D01*
X74730313Y-111446054D01*
X74746637Y-111447936D01*
X74838115Y-111462183D01*
X74922334Y-111482229D01*
X75000626Y-111508448D01*
X75068936Y-111538527D01*
X75122840Y-111565181D01*
X75192790Y-111521560D01*
X75306095Y-111448333D01*
X75410835Y-111375155D01*
X75508530Y-111300852D01*
X75600701Y-111224247D01*
X75688869Y-111144165D01*
X75721782Y-111112437D01*
X75798223Y-111034597D01*
X75868390Y-110957082D01*
X75931794Y-110880547D01*
X75987945Y-110805644D01*
X76036355Y-110733028D01*
X76076533Y-110663352D01*
X76107992Y-110597270D01*
X76108670Y-110595651D01*
X76125006Y-110556522D01*
X76080306Y-110501671D01*
X76057243Y-110474658D01*
X76028365Y-110442841D01*
X75995252Y-110407802D01*
X75959488Y-110371121D01*
X75922654Y-110334378D01*
X75886332Y-110299154D01*
X75852105Y-110267029D01*
X75821555Y-110239585D01*
X75798745Y-110220380D01*
X75699760Y-110146523D01*
X75598321Y-110081938D01*
X75494758Y-110026757D01*
X75389401Y-109981111D01*
X75282581Y-109945132D01*
X75174629Y-109918950D01*
X75065876Y-109902698D01*
X74985823Y-109897168D01*
X74929330Y-109896692D01*
X74880549Y-109899842D01*
X74837542Y-109907073D01*
X74798369Y-109918837D01*
X74761090Y-109935589D01*
X74723767Y-109957783D01*
X74722162Y-109958845D01*
X74674997Y-109996168D01*
X74632258Y-110042309D01*
X74594267Y-110096793D01*
X74561352Y-110159142D01*
X74533835Y-110228879D01*
X74529685Y-110241535D01*
X74510345Y-110318091D01*
X74499478Y-110398480D01*
X74496977Y-110481100D01*
X74502732Y-110564344D01*
X74516636Y-110646609D01*
X74538581Y-110726291D01*
X74567306Y-110799288D01*
X74591376Y-110845209D01*
X74619970Y-110888902D01*
X74651729Y-110928806D01*
X74685292Y-110963358D01*
X74719299Y-110990996D01*
X74750026Y-111009077D01*
X74785350Y-111021838D01*
X74821263Y-111028005D01*
X74855211Y-111027387D01*
X74884643Y-111019793D01*
X74885905Y-111019247D01*
X74916058Y-111002919D01*
X74941617Y-110981850D01*
X74965522Y-110953555D01*
X74968552Y-110949370D01*
X74993268Y-110907942D01*
X75014518Y-110858302D01*
X75031773Y-110801962D01*
X75044503Y-110740438D01*
X75046663Y-110726220D01*
X75050889Y-110679931D01*
X75051747Y-110627343D01*
X75049450Y-110571664D01*
X75044213Y-110516103D01*
X75036248Y-110463866D01*
X75026298Y-110420058D01*
X75011818Y-110375942D01*
X74994005Y-110335089D01*
X74973698Y-110298758D01*
X74951735Y-110268207D01*
X74928957Y-110244694D01*
X74906201Y-110229477D01*
X74896779Y-110225841D01*
X74869286Y-110222729D01*
X74842181Y-110229089D01*
X74816363Y-110244244D01*
X74792732Y-110267518D01*
X74772187Y-110298237D01*
X74757559Y-110330398D01*
X74745111Y-110372785D01*
X74736801Y-110420636D01*
X74732710Y-110471162D01*
X74732919Y-110521574D01*
X74737512Y-110569084D01*
X74746569Y-110610903D01*
X74749100Y-110618860D01*
X74765224Y-110658373D01*
X74783364Y-110687949D01*
X74803544Y-110707617D01*
X74825788Y-110717403D01*
X74837520Y-110718600D01*
X74852820Y-110714822D01*
X74864979Y-110702918D01*
X74874777Y-110682028D01*
X74877012Y-110675093D01*
X74883541Y-110636751D01*
X74881657Y-110594574D01*
X74871584Y-110550077D01*
X74853544Y-110504776D01*
X74851314Y-110500268D01*
X74842712Y-110481727D01*
X74836386Y-110465309D01*
X74833534Y-110454178D01*
X74833480Y-110453157D01*
X74838263Y-110435552D01*
X74851473Y-110420843D01*
X74864020Y-110413774D01*
X74884918Y-110410257D01*
X74906364Y-110415888D01*
X74927174Y-110429803D01*
X74946164Y-110451139D01*
X74962147Y-110479034D01*
X74965987Y-110488065D01*
X74970395Y-110500074D01*
X74973564Y-110511665D01*
X74975701Y-110524837D01*
X74977014Y-110541586D01*
X74977710Y-110563913D01*
X74977995Y-110593815D01*
X74978031Y-110604300D01*
X74977869Y-110640175D01*
X74977055Y-110668135D01*
X74975418Y-110690412D01*
X74972787Y-110709240D01*
X74968993Y-110726850D01*
X74968532Y-110728676D01*
X74953725Y-110777604D01*
X74936308Y-110819582D01*
X74916712Y-110854009D01*
X74895367Y-110880284D01*
X74872703Y-110897805D01*
X74849150Y-110905972D01*
X74841190Y-110906512D01*
X74818484Y-110902243D01*
X74793406Y-110890494D01*
X74768442Y-110872710D01*
X74747653Y-110852190D01*
X74730661Y-110829156D01*
X74712507Y-110798884D01*
X74694518Y-110763988D01*
X74678019Y-110727080D01*
X74664338Y-110690772D01*
X74661811Y-110683040D01*
X74645065Y-110618684D01*
X74634287Y-110551576D01*
X74629511Y-110483788D01*
X74630769Y-110417394D01*
X74638093Y-110354464D01*
X74651516Y-110297071D01*
X74655550Y-110284636D01*
X74676995Y-110234797D01*
X74704680Y-110190810D01*
X74737713Y-110153768D01*
X74775200Y-110124769D01*
X74794594Y-110113988D01*
X74816010Y-110104467D01*
X74835078Y-110098796D01*
X74856685Y-110095755D01*
X74871546Y-110094754D01*
X74894082Y-110094001D01*
X74910363Y-110094962D01*
X74924233Y-110098221D01*
X74939534Y-110104366D01*
X74942019Y-110105494D01*
X74978243Y-110127502D01*
X75011506Y-110158620D01*
X75041567Y-110198173D01*
X75068189Y-110245483D01*
X75091133Y-110299874D01*
X75110161Y-110360669D01*
X75125034Y-110427191D01*
X75135515Y-110498764D01*
X75141364Y-110574710D01*
X75142343Y-110654353D01*
X75141863Y-110672880D01*
X75136870Y-110750810D01*
X75127345Y-110823995D01*
X75113544Y-110891854D01*
X75095725Y-110953807D01*
X75074143Y-111009274D01*
X75049057Y-111057675D01*
X75020722Y-111098431D01*
X74989397Y-111130961D01*
X74955337Y-111154685D01*
X74922479Y-111168051D01*
X74903155Y-111171966D01*
X74875471Y-111175554D01*
X74841227Y-111178716D01*
X74802222Y-111181355D01*
X74760254Y-111183372D01*
X74717121Y-111184669D01*
X74674622Y-111185149D01*
X74634556Y-111184713D01*
X74622755Y-111184372D01*
X74512322Y-111177267D01*
X74409626Y-111163681D01*
X74314544Y-111143572D01*
X74226955Y-111116897D01*
X74146735Y-111083615D01*
X74073762Y-111043684D01*
X74007915Y-110997060D01*
X73962279Y-110956852D01*
X73910750Y-110900706D01*
X73867645Y-110839902D01*
X73832623Y-110773787D01*
X73805346Y-110701708D01*
X73785472Y-110623012D01*
X73783823Y-110614460D01*
X73779381Y-110582680D01*
X73776208Y-110543040D01*
X73774291Y-110497755D01*
X73773617Y-110449043D01*
X73773640Y-110446907D01*
X73880489Y-110446907D01*
X73886691Y-110528268D01*
X73901409Y-110606194D01*
X73924457Y-110679823D01*
X73955647Y-110748292D01*
X73973139Y-110778564D01*
X73996587Y-110811662D01*
X74026653Y-110847076D01*
X74060960Y-110882403D01*
X74097128Y-110915238D01*
X74132779Y-110943178D01*
X74142977Y-110950218D01*
X74213518Y-110991780D01*
X74288683Y-111025958D01*
X74366637Y-111052129D01*
X74445543Y-111069667D01*
X74517098Y-111077622D01*
X74545881Y-111078768D01*
X74566037Y-111078195D01*
X74579021Y-111075462D01*
X74586285Y-111070126D01*
X74589282Y-111061745D01*
X74589640Y-111055545D01*
X74585294Y-111036272D01*
X74572462Y-111012482D01*
X74554032Y-110987840D01*
X74510708Y-110928050D01*
X74473574Y-110861256D01*
X74442816Y-110788647D01*
X74418621Y-110711413D01*
X74401175Y-110630745D01*
X74390664Y-110547833D01*
X74387273Y-110463868D01*
X74391189Y-110380041D01*
X74402597Y-110297541D01*
X74421684Y-110217559D01*
X74429671Y-110192006D01*
X74458657Y-110118384D01*
X74494560Y-110050506D01*
X74536816Y-109988942D01*
X74584861Y-109934261D01*
X74638132Y-109887032D01*
X74696066Y-109847827D01*
X74758098Y-109817215D01*
X74820780Y-109796493D01*
X74869262Y-109787381D01*
X74925403Y-109782503D01*
X74987670Y-109781766D01*
X75054529Y-109785077D01*
X75124446Y-109792343D01*
X75195889Y-109803471D01*
X75267324Y-109818368D01*
X75295227Y-109825277D01*
X75400145Y-109857551D01*
X75504240Y-109899594D01*
X75606973Y-109951020D01*
X75707802Y-110011444D01*
X75806190Y-110080479D01*
X75901595Y-110157738D01*
X75993479Y-110242836D01*
X76081301Y-110335386D01*
X76164522Y-110435002D01*
X76185822Y-110462648D01*
X76279884Y-110594751D01*
X76368327Y-110735126D01*
X76451092Y-110883541D01*
X76528124Y-111039766D01*
X76599363Y-111203568D01*
X76664752Y-111374718D01*
X76724234Y-111552984D01*
X76777751Y-111738135D01*
X76825245Y-111929940D01*
X76866660Y-112128168D01*
X76901936Y-112332588D01*
X76931017Y-112542969D01*
X76953845Y-112759079D01*
X76970363Y-112980689D01*
X76980512Y-113207565D01*
X76984235Y-113439479D01*
X76981958Y-113656147D01*
X76970504Y-113948796D01*
X76949631Y-114241527D01*
X76919461Y-114533737D01*
X76880116Y-114824822D01*
X76831716Y-115114179D01*
X76774384Y-115401205D01*
X76708240Y-115685296D01*
X76633406Y-115965849D01*
X76550004Y-116242261D01*
X76458155Y-116513927D01*
X76357981Y-116780245D01*
X76348029Y-116805264D01*
X76259484Y-117017656D01*
X76166444Y-117223163D01*
X76069066Y-117421567D01*
X75967508Y-117612654D01*
X75861927Y-117796207D01*
X75752481Y-117972008D01*
X75639328Y-118139844D01*
X75522624Y-118299496D01*
X75402528Y-118450749D01*
X75279197Y-118593387D01*
X75152789Y-118727193D01*
X75023460Y-118851952D01*
X74891370Y-118967446D01*
X74756675Y-119073460D01*
X74630280Y-119162642D01*
X74537931Y-119221778D01*
X74442600Y-119278130D01*
X74346404Y-119330566D01*
X74251459Y-119377953D01*
X74159883Y-119419161D01*
X74119158Y-119435854D01*
X74037297Y-119468279D01*
X74033762Y-119531911D01*
X74024628Y-119623984D01*
X74007463Y-119711505D01*
X73981774Y-119796735D01*
X73967926Y-119833390D01*
X73959538Y-119854790D01*
X73953039Y-119872255D01*
X73949092Y-119883938D01*
X73948320Y-119888000D01*
X73953832Y-119886665D01*
X73966967Y-119883055D01*
X73985598Y-119877765D01*
X74002141Y-119872980D01*
X74139777Y-119828490D01*
X74278984Y-119774929D01*
X74418408Y-119712955D01*
X74556699Y-119643229D01*
X74692503Y-119566409D01*
X74824469Y-119483155D01*
X74881571Y-119444235D01*
X74979740Y-119373500D01*
X75073343Y-119301335D01*
X75164344Y-119226081D01*
X75254706Y-119146079D01*
X75346394Y-119059668D01*
X75405126Y-119001789D01*
X75544543Y-118855998D01*
X75679008Y-118702605D01*
X75808767Y-118541281D01*
X75934065Y-118371695D01*
X76055147Y-118193517D01*
X76172260Y-118006418D01*
X76268509Y-117840760D01*
X76388237Y-117618089D01*
X76501546Y-117387900D01*
X76608301Y-117150660D01*
X76708364Y-116906835D01*
X76801601Y-116656892D01*
X76887876Y-116401297D01*
X76967051Y-116140517D01*
X77038991Y-115875020D01*
X77103560Y-115605270D01*
X77160621Y-115331736D01*
X77210040Y-115054883D01*
X77251679Y-114775179D01*
X77285402Y-114493090D01*
X77304829Y-114287300D01*
X77320738Y-114062724D01*
X77331065Y-113836246D01*
X77335854Y-113609067D01*
X77335151Y-113382389D01*
X77329001Y-113157413D01*
X77317450Y-112935342D01*
X77300543Y-112717376D01*
X77278325Y-112504719D01*
X77250843Y-112298572D01*
X77223189Y-112128300D01*
X77183554Y-111923405D01*
X77138290Y-111725102D01*
X77087491Y-111533563D01*
X77031249Y-111348961D01*
X76969657Y-111171466D01*
X76902808Y-111001252D01*
X76830796Y-110838491D01*
X76753714Y-110683355D01*
X76671654Y-110536016D01*
X76584710Y-110396647D01*
X76492975Y-110265419D01*
X76396542Y-110142506D01*
X76295504Y-110028079D01*
X76189954Y-109922310D01*
X76079985Y-109825372D01*
X75965691Y-109737437D01*
X75910440Y-109699224D01*
X75793129Y-109626853D01*
X75671788Y-109563543D01*
X75546918Y-109509447D01*
X75419020Y-109464721D01*
X75288596Y-109429518D01*
X75156149Y-109403990D01*
X75022178Y-109388294D01*
X74887187Y-109382582D01*
X74878262Y-109382560D01*
X74788749Y-109386052D01*
X74700712Y-109396295D01*
X74615349Y-109412934D01*
X74533863Y-109435617D01*
X74457451Y-109463991D01*
X74387315Y-109497702D01*
X74324654Y-109536398D01*
X74304183Y-109551461D01*
X74224514Y-109619195D01*
X74152827Y-109693151D01*
X74089216Y-109773148D01*
X74033775Y-109859002D01*
X73986601Y-109950531D01*
X73947786Y-110047552D01*
X73917427Y-110149882D01*
X73895619Y-110257339D01*
X73882990Y-110362973D01*
X73880489Y-110446907D01*
X73773640Y-110446907D01*
X73774172Y-110399122D01*
X73775941Y-110350208D01*
X73778912Y-110304519D01*
X73783069Y-110264272D01*
X73786134Y-110243620D01*
X73810410Y-110127524D01*
X73842457Y-110017710D01*
X73882539Y-109913615D01*
X73930918Y-109814675D01*
X73987856Y-109720330D01*
X74053615Y-109630016D01*
X74096331Y-109578767D01*
X74154816Y-109517220D01*
X74214832Y-109464963D01*
X74277478Y-109421134D01*
X74343260Y-109385155D01*
X74376420Y-109369709D01*
X74406680Y-109356711D01*
X74436687Y-109345198D01*
X74469088Y-109334206D01*
X74506528Y-109322771D01*
X74543920Y-109312088D01*
X74567797Y-109305751D01*
X74595745Y-109298880D01*
X74625745Y-109291910D01*
X74655779Y-109285276D01*
X74683828Y-109279414D01*
X74707875Y-109274759D01*
X74725901Y-109271747D01*
X74735308Y-109270799D01*
X74736695Y-109267126D01*
X74732569Y-109257041D01*
X74723905Y-109241951D01*
X74711682Y-109223260D01*
X74696877Y-109202374D01*
X74680467Y-109180698D01*
X74663430Y-109159636D01*
X74646742Y-109140594D01*
X74639245Y-109132688D01*
X74583307Y-109082739D01*
X74521043Y-109040528D01*
X74453104Y-109006406D01*
X74380139Y-108980722D01*
X74338180Y-108970337D01*
X74315412Y-108967048D01*
X74285473Y-108964915D01*
X74251287Y-108963933D01*
X74215775Y-108964101D01*
X74181860Y-108965416D01*
X74152466Y-108967876D01*
X74134980Y-108970503D01*
X74058447Y-108990155D01*
X73988446Y-109017539D01*
X73924880Y-109052736D01*
X73867655Y-109095827D01*
X73816673Y-109146894D01*
X73771838Y-109206020D01*
X73733055Y-109273285D01*
X73705426Y-109335268D01*
X73694840Y-109361135D01*
X73686418Y-109378840D01*
X73679104Y-109389854D01*
X73671839Y-109395648D01*
X73663564Y-109397695D01*
X73660467Y-109397799D01*
X73651259Y-109396506D01*
X73643505Y-109391634D01*
X73636142Y-109381693D01*
X73628105Y-109365196D01*
X73618330Y-109340653D01*
X73616893Y-109336840D01*
X73585733Y-109264728D01*
X73549347Y-109201125D01*
X73507247Y-109145548D01*
X73458943Y-109097516D01*
X73403946Y-109056549D01*
X73341766Y-109022164D01*
X73271915Y-108993882D01*
X73266082Y-108991902D01*
X73192583Y-108972490D01*
X73118465Y-108963066D01*
X73044443Y-108963548D01*
X72971231Y-108973852D01*
X72899543Y-108993896D01*
X72830092Y-109023596D01*
X72786901Y-109047784D01*
X72749631Y-109073885D01*
X72711456Y-109106277D01*
X72674415Y-109142808D01*
X72640547Y-109181330D01*
X72611892Y-109219691D01*
X72591399Y-109253940D01*
X72583140Y-109270100D01*
X72612300Y-109275878D01*
X72628596Y-109279418D01*
X72651694Y-109284842D01*
X72678579Y-109291424D01*
X72706234Y-109298441D01*
X72707500Y-109298768D01*
X72795022Y-109323864D01*
X72873903Y-109351789D01*
X72945433Y-109383229D01*
X73010901Y-109418871D01*
X73071597Y-109459401D01*
X73128811Y-109505506D01*
X73172040Y-109545967D01*
X73250021Y-109630482D01*
X73319545Y-109720525D01*
X73380437Y-109815739D01*
X73432523Y-109915767D01*
X73475627Y-110020250D01*
X73509573Y-110128831D01*
X73534187Y-110241152D01*
X73543707Y-110304580D01*
X73547318Y-110343234D01*
X73549421Y-110387936D01*
X73550056Y-110435987D01*
X73549267Y-110484684D01*
X73547096Y-110531328D01*
X73543586Y-110573218D01*
X73538927Y-110606840D01*
X73519767Y-110688939D01*
X73492920Y-110764417D01*
X73458266Y-110833436D01*
X73415683Y-110896156D01*
X73365051Y-110952738D01*
X73306247Y-111003344D01*
X73239152Y-111048133D01*
X73185179Y-111077097D01*
X73131020Y-111101969D01*
X73079604Y-111121852D01*
X73026600Y-111138252D01*
X72969120Y-111152362D01*
X72925302Y-111161545D01*
X72884861Y-111168779D01*
X72845620Y-111174270D01*
X72805405Y-111178220D01*
X72762041Y-111180836D01*
X72713353Y-111182319D01*
X72657167Y-111182876D01*
X72644000Y-111182895D01*
X72582510Y-111182531D01*
X72530283Y-111181361D01*
X72486448Y-111179305D01*
X72450134Y-111176283D01*
X72420468Y-111172215D01*
X72396581Y-111167022D01*
X72377600Y-111160623D01*
X72371639Y-111157930D01*
X72337030Y-111135596D01*
X72304977Y-111103904D01*
X72275755Y-111063399D01*
X72249644Y-111014624D01*
X72226919Y-110958123D01*
X72207858Y-110894440D01*
X72192739Y-110824119D01*
X72188559Y-110798883D01*
X72184222Y-110761743D01*
X72181245Y-110717384D01*
X72179629Y-110668527D01*
X72179376Y-110617893D01*
X72180485Y-110568207D01*
X72182958Y-110522188D01*
X72186795Y-110482561D01*
X72188465Y-110470676D01*
X72202361Y-110397739D01*
X72220236Y-110331306D01*
X72241819Y-110271905D01*
X72266838Y-110220060D01*
X72295021Y-110176297D01*
X72326096Y-110141142D01*
X72359792Y-110115120D01*
X72377138Y-110105880D01*
X72393440Y-110099106D01*
X72407823Y-110095371D01*
X72424239Y-110094040D01*
X72446643Y-110094475D01*
X72447724Y-110094520D01*
X72492167Y-110101167D01*
X72532952Y-110116756D01*
X72569786Y-110140644D01*
X72602379Y-110172188D01*
X72630439Y-110210745D01*
X72653677Y-110255671D01*
X72671800Y-110306323D01*
X72684519Y-110362059D01*
X72691541Y-110422236D01*
X72692577Y-110486209D01*
X72687335Y-110553335D01*
X72679020Y-110605822D01*
X72666367Y-110660019D01*
X72650275Y-110710545D01*
X72631272Y-110756748D01*
X72609885Y-110797977D01*
X72586642Y-110833579D01*
X72562069Y-110862904D01*
X72536695Y-110885299D01*
X72511047Y-110900113D01*
X72485651Y-110906693D01*
X72461036Y-110904390D01*
X72443683Y-110896611D01*
X72424366Y-110880002D01*
X72405171Y-110854815D01*
X72386945Y-110822610D01*
X72370532Y-110784943D01*
X72356778Y-110743372D01*
X72353158Y-110729823D01*
X72348595Y-110709849D01*
X72345439Y-110690572D01*
X72343459Y-110669394D01*
X72342428Y-110643714D01*
X72342116Y-110610937D01*
X72342119Y-110604300D01*
X72342330Y-110572199D01*
X72343000Y-110548135D01*
X72344341Y-110529987D01*
X72346565Y-110515635D01*
X72349884Y-110502959D01*
X72353219Y-110493278D01*
X72369378Y-110458443D01*
X72388571Y-110433115D01*
X72410707Y-110417382D01*
X72435693Y-110411331D01*
X72438897Y-110411260D01*
X72457983Y-110413881D01*
X72472594Y-110422819D01*
X72473323Y-110423493D01*
X72483555Y-110434531D01*
X72488594Y-110445080D01*
X72488390Y-110457401D01*
X72482895Y-110473754D01*
X72472060Y-110496402D01*
X72471720Y-110497068D01*
X72457397Y-110529668D01*
X72445967Y-110564574D01*
X72438436Y-110598188D01*
X72435808Y-110625639D01*
X72438598Y-110659424D01*
X72446697Y-110685943D01*
X72459092Y-110704808D01*
X72474770Y-110715631D01*
X72492717Y-110718025D01*
X72511920Y-110711602D01*
X72531366Y-110695973D01*
X72550042Y-110670751D01*
X72550708Y-110669622D01*
X72567818Y-110632118D01*
X72579986Y-110587843D01*
X72587222Y-110538897D01*
X72589540Y-110487379D01*
X72586951Y-110435390D01*
X72579465Y-110385029D01*
X72567096Y-110338395D01*
X72549854Y-110297589D01*
X72548630Y-110295307D01*
X72530031Y-110268320D01*
X72507365Y-110246748D01*
X72482333Y-110231499D01*
X72456638Y-110223476D01*
X72431979Y-110223586D01*
X72420363Y-110227059D01*
X72392218Y-110244089D01*
X72366068Y-110270287D01*
X72342269Y-110304793D01*
X72321178Y-110346747D01*
X72303153Y-110395291D01*
X72288550Y-110449565D01*
X72277726Y-110508710D01*
X72271038Y-110571865D01*
X72270010Y-110589060D01*
X72269490Y-110656087D01*
X72274545Y-110720590D01*
X72284837Y-110781611D01*
X72300027Y-110838191D01*
X72319777Y-110889370D01*
X72343749Y-110934191D01*
X72371604Y-110971694D01*
X72403005Y-111000921D01*
X72419153Y-111011679D01*
X72448001Y-111023303D01*
X72481616Y-111028229D01*
X72516995Y-111026302D01*
X72548771Y-111018256D01*
X72578549Y-111005884D01*
X72603566Y-110991510D01*
X72627649Y-110972675D01*
X72645189Y-110956315D01*
X72688419Y-110907320D01*
X72726305Y-110850702D01*
X72758530Y-110787664D01*
X72784779Y-110719412D01*
X72804734Y-110647151D01*
X72818080Y-110572085D01*
X72824501Y-110495419D01*
X72823680Y-110418357D01*
X72815302Y-110342105D01*
X72811704Y-110321820D01*
X72793942Y-110249201D01*
X72769776Y-110181476D01*
X72739704Y-110119362D01*
X72704226Y-110063574D01*
X72663840Y-110014827D01*
X72619046Y-109973835D01*
X72570343Y-109941316D01*
X72534182Y-109923972D01*
X72500956Y-109912110D01*
X72467334Y-109903784D01*
X72431013Y-109898685D01*
X72389689Y-109896503D01*
X72341061Y-109896932D01*
X72334120Y-109897162D01*
X72224241Y-109906109D01*
X72115386Y-109925014D01*
X72007874Y-109953697D01*
X71902024Y-109991980D01*
X71798154Y-110039685D01*
X71696583Y-110096632D01*
X71597630Y-110162645D01*
X71501614Y-110237543D01*
X71408854Y-110321149D01*
X71319668Y-110413284D01*
X71235719Y-110512083D01*
X71218273Y-110534506D01*
X71206815Y-110550730D01*
X71200531Y-110562107D01*
X71198609Y-110569988D01*
X71058232Y-110569988D01*
X71134208Y-110464910D01*
X71223832Y-110355151D01*
X71317147Y-110254432D01*
X71414019Y-110162894D01*
X71514311Y-110080678D01*
X71617887Y-110007928D01*
X71675454Y-109972442D01*
X71780439Y-109916355D01*
X71887640Y-109870137D01*
X71997484Y-109833657D01*
X72110398Y-109806783D01*
X72226809Y-109789384D01*
X72288400Y-109784068D01*
X72366299Y-109781868D01*
X72437127Y-109786219D01*
X72501844Y-109797455D01*
X72561411Y-109815907D01*
X72616790Y-109841906D01*
X72668942Y-109875786D01*
X72718829Y-109917878D01*
X72741868Y-109940699D01*
X72790833Y-109997706D01*
X72832461Y-110059793D01*
X72867169Y-110127786D01*
X72895374Y-110202513D01*
X72917494Y-110284800D01*
X72919045Y-110291880D01*
X72922897Y-110310916D01*
X72925799Y-110328747D01*
X72927884Y-110347304D01*
X72929283Y-110368520D01*
X72930129Y-110394327D01*
X72930554Y-110426659D01*
X72930685Y-110462060D01*
X72930357Y-110512289D01*
X72929037Y-110554704D01*
X72926420Y-110591629D01*
X72922205Y-110625387D01*
X72916088Y-110658301D01*
X72907767Y-110692694D01*
X72896940Y-110730889D01*
X72894677Y-110738428D01*
X72876775Y-110790612D01*
X72855001Y-110842517D01*
X72830463Y-110892012D01*
X72804269Y-110936965D01*
X72777527Y-110975247D01*
X72761617Y-110994197D01*
X72745495Y-111013827D01*
X72734197Y-111031702D01*
X72728765Y-111045961D01*
X72728940Y-111052610D01*
X72735610Y-111056880D01*
X72750768Y-111058667D01*
X72773085Y-111058110D01*
X72801234Y-111055348D01*
X72833885Y-111050518D01*
X72869711Y-111043761D01*
X72907383Y-111035214D01*
X72915780Y-111033109D01*
X73000015Y-111007490D01*
X73078255Y-110975304D01*
X73150000Y-110936914D01*
X73214747Y-110892684D01*
X73271993Y-110842975D01*
X73321237Y-110788151D01*
X73361977Y-110728574D01*
X73378084Y-110698956D01*
X73404313Y-110638404D01*
X73423359Y-110575223D01*
X73435286Y-110508571D01*
X73440158Y-110437609D01*
X73438040Y-110361495D01*
X73428997Y-110279388D01*
X73416013Y-110204762D01*
X73391183Y-110102027D01*
X73358868Y-110005849D01*
X73318706Y-109915537D01*
X73270336Y-109830402D01*
X73213396Y-109749756D01*
X73147524Y-109672909D01*
X73124072Y-109648575D01*
X73083058Y-109608398D01*
X73046050Y-109575037D01*
X73011139Y-109547049D01*
X72976412Y-109522991D01*
X72939958Y-109501422D01*
X72905825Y-109483788D01*
X72821608Y-109447598D01*
X72733107Y-109419429D01*
X72639954Y-109399238D01*
X72541783Y-109386982D01*
X72438226Y-109382620D01*
X72328916Y-109386108D01*
X72213485Y-109397403D01*
X72189340Y-109400637D01*
X72055666Y-109424419D01*
X71924190Y-109458036D01*
X71795305Y-109501322D01*
X71669403Y-109554112D01*
X71546879Y-109616242D01*
X71428124Y-109687548D01*
X71314896Y-109766837D01*
X71264005Y-109807024D01*
X71209178Y-109853650D01*
X71152352Y-109904866D01*
X71095463Y-109958821D01*
X71040451Y-110013666D01*
X70989251Y-110067549D01*
X70943803Y-110118621D01*
X70932627Y-110131860D01*
X70829923Y-110262706D01*
X70732881Y-110401891D01*
X70641545Y-110549287D01*
X70555953Y-110704768D01*
X70476149Y-110868210D01*
X70402173Y-111039486D01*
X70334068Y-111218469D01*
X70271874Y-111405036D01*
X70215632Y-111599059D01*
X70165385Y-111800413D01*
X70121173Y-112008972D01*
X70083039Y-112224610D01*
X70051023Y-112447202D01*
X70025167Y-112676621D01*
X70005513Y-112912742D01*
X70002611Y-112956340D01*
X69994549Y-113107537D01*
X69989144Y-113265989D01*
X69986392Y-113429147D01*
X69986287Y-113594462D01*
X69876547Y-113594462D01*
X69876109Y-113575519D01*
X69878417Y-113286017D01*
X69889849Y-112998827D01*
X69910493Y-112714597D01*
X69926599Y-112552480D01*
X69953931Y-112334578D01*
X69987723Y-112121304D01*
X70027851Y-111913035D01*
X70074192Y-111710147D01*
X70126623Y-111513017D01*
X70185019Y-111322021D01*
X70249258Y-111137535D01*
X70319216Y-110959937D01*
X70394769Y-110789602D01*
X70475796Y-110626908D01*
X70562171Y-110472230D01*
X70653771Y-110325945D01*
X70658788Y-110318407D01*
X70751600Y-110186941D01*
X70849128Y-110063445D01*
X70951128Y-109948085D01*
X71057352Y-109841029D01*
X71167555Y-109742443D01*
X71281490Y-109652494D01*
X71398911Y-109571350D01*
X71519573Y-109499175D01*
X71643230Y-109436139D01*
X71769635Y-109382407D01*
X71898542Y-109338146D01*
X72029705Y-109303523D01*
X72162879Y-109278705D01*
X72199500Y-109273662D01*
X72224301Y-109270812D01*
X72254949Y-109267758D01*
X72289085Y-109264688D01*
X72324348Y-109261789D01*
X72358379Y-109259248D01*
X72388819Y-109257253D01*
X72413307Y-109255992D01*
X72426487Y-109255638D01*
X72438975Y-109252034D01*
X72443318Y-109245467D01*
X72449479Y-109232240D01*
X72460857Y-109213294D01*
X72476040Y-109190609D01*
X72493614Y-109166162D01*
X72512166Y-109141933D01*
X72530285Y-109119902D01*
X72543334Y-109105381D01*
X72608770Y-109043762D01*
X72680877Y-108989531D01*
X72758963Y-108943074D01*
X72842335Y-108904779D01*
X72930299Y-108875034D01*
X72975831Y-108863479D01*
X73005403Y-108856780D01*
X73008465Y-108847611D01*
X73125639Y-108847611D01*
X73162949Y-108851056D01*
X73199090Y-108856433D01*
X73240457Y-108865910D01*
X73283506Y-108878462D01*
X73324690Y-108893064D01*
X73357740Y-108907357D01*
X73416048Y-108940317D01*
X73473405Y-108981796D01*
X73528023Y-109030188D01*
X73578112Y-109083886D01*
X73621883Y-109141285D01*
X73627265Y-109149313D01*
X73641860Y-109171119D01*
X73652095Y-109185366D01*
X73658964Y-109193128D01*
X73663463Y-109195480D01*
X73666587Y-109193498D01*
X73667241Y-109192498D01*
X73672254Y-109184491D01*
X73681371Y-109170289D01*
X73693114Y-109152185D01*
X73701439Y-109139436D01*
X73751377Y-109071410D01*
X73806335Y-109012197D01*
X73866278Y-108961818D01*
X73931171Y-108920297D01*
X74000980Y-108887657D01*
X74075670Y-108863920D01*
X74136950Y-108851653D01*
X74157795Y-108848274D01*
X74174548Y-108845188D01*
X74184878Y-108842845D01*
X74186986Y-108842026D01*
X74187688Y-108834699D01*
X74183657Y-108820468D01*
X74175704Y-108800942D01*
X74164639Y-108777732D01*
X74151272Y-108752449D01*
X74136413Y-108726703D01*
X74120872Y-108702105D01*
X74105939Y-108680899D01*
X74058569Y-108626188D01*
X74004930Y-108579420D01*
X73945270Y-108540744D01*
X73879835Y-108510308D01*
X73808873Y-108488261D01*
X73771760Y-108480493D01*
X73739340Y-108476346D01*
X73700225Y-108473851D01*
X73657745Y-108473010D01*
X73615229Y-108473821D01*
X73576007Y-108476287D01*
X73543408Y-108480407D01*
X73543111Y-108480460D01*
X73469538Y-108498217D01*
X73401365Y-108524437D01*
X73338844Y-108558967D01*
X73282227Y-108601655D01*
X73231764Y-108652351D01*
X73207001Y-108683218D01*
X73191289Y-108706061D01*
X73175052Y-108732575D01*
X73159508Y-108760450D01*
X73145876Y-108787377D01*
X73135372Y-108811045D01*
X73129216Y-108829145D01*
X73128617Y-108831875D01*
X73125639Y-108847611D01*
X73008465Y-108847611D01*
X73018127Y-108818680D01*
X73026177Y-108797002D01*
X73037172Y-108770587D01*
X73049308Y-108743678D01*
X73055391Y-108731057D01*
X73097931Y-108655440D01*
X73146585Y-108587810D01*
X73201199Y-108528289D01*
X73261618Y-108476999D01*
X73327689Y-108434061D01*
X73399257Y-108399598D01*
X73476167Y-108373731D01*
X73521914Y-108362965D01*
X73555161Y-108358085D01*
X73595619Y-108354980D01*
X73640499Y-108353625D01*
X73687014Y-108353991D01*
%TO.C,R3*%
D10*
X76033333Y-61582380D02*
X75700000Y-61106190D01*
X75461904Y-61582380D02*
X75461904Y-60582380D01*
X75842857Y-60582380D01*
X75938095Y-60630000D01*
X75985714Y-60677619D01*
X76033333Y-60772857D01*
X76033333Y-60915714D01*
X75985714Y-61010952D01*
X75938095Y-61058571D01*
X75842857Y-61106190D01*
X75461904Y-61106190D01*
X76366666Y-60582380D02*
X76985714Y-60582380D01*
X76652380Y-60963333D01*
X76795238Y-60963333D01*
X76890476Y-61010952D01*
X76938095Y-61058571D01*
X76985714Y-61153809D01*
X76985714Y-61391904D01*
X76938095Y-61487142D01*
X76890476Y-61534761D01*
X76795238Y-61582380D01*
X76509523Y-61582380D01*
X76414285Y-61534761D01*
X76366666Y-61487142D01*
%TO.C,R2*%
X126833333Y-61582380D02*
X126500000Y-61106190D01*
X126261904Y-61582380D02*
X126261904Y-60582380D01*
X126642857Y-60582380D01*
X126738095Y-60630000D01*
X126785714Y-60677619D01*
X126833333Y-60772857D01*
X126833333Y-60915714D01*
X126785714Y-61010952D01*
X126738095Y-61058571D01*
X126642857Y-61106190D01*
X126261904Y-61106190D01*
X127214285Y-60677619D02*
X127261904Y-60630000D01*
X127357142Y-60582380D01*
X127595238Y-60582380D01*
X127690476Y-60630000D01*
X127738095Y-60677619D01*
X127785714Y-60772857D01*
X127785714Y-60868095D01*
X127738095Y-61010952D01*
X127166666Y-61582380D01*
X127785714Y-61582380D01*
%TO.C,R1*%
X83653333Y-102222380D02*
X83320000Y-101746190D01*
X83081904Y-102222380D02*
X83081904Y-101222380D01*
X83462857Y-101222380D01*
X83558095Y-101270000D01*
X83605714Y-101317619D01*
X83653333Y-101412857D01*
X83653333Y-101555714D01*
X83605714Y-101650952D01*
X83558095Y-101698571D01*
X83462857Y-101746190D01*
X83081904Y-101746190D01*
X84605714Y-102222380D02*
X84034285Y-102222380D01*
X84320000Y-102222380D02*
X84320000Y-101222380D01*
X84224761Y-101365238D01*
X84129523Y-101460476D01*
X84034285Y-101508095D01*
%TO.C,C4*%
X76033333Y-66567142D02*
X75985714Y-66614761D01*
X75842857Y-66662380D01*
X75747619Y-66662380D01*
X75604761Y-66614761D01*
X75509523Y-66519523D01*
X75461904Y-66424285D01*
X75414285Y-66233809D01*
X75414285Y-66090952D01*
X75461904Y-65900476D01*
X75509523Y-65805238D01*
X75604761Y-65710000D01*
X75747619Y-65662380D01*
X75842857Y-65662380D01*
X75985714Y-65710000D01*
X76033333Y-65757619D01*
X76890476Y-65995714D02*
X76890476Y-66662380D01*
X76652380Y-65614761D02*
X76414285Y-66329047D01*
X77033333Y-66329047D01*
%TO.C,C3*%
X126833333Y-66567142D02*
X126785714Y-66614761D01*
X126642857Y-66662380D01*
X126547619Y-66662380D01*
X126404761Y-66614761D01*
X126309523Y-66519523D01*
X126261904Y-66424285D01*
X126214285Y-66233809D01*
X126214285Y-66090952D01*
X126261904Y-65900476D01*
X126309523Y-65805238D01*
X126404761Y-65710000D01*
X126547619Y-65662380D01*
X126642857Y-65662380D01*
X126785714Y-65710000D01*
X126833333Y-65757619D01*
X127166666Y-65662380D02*
X127785714Y-65662380D01*
X127452380Y-66043333D01*
X127595238Y-66043333D01*
X127690476Y-66090952D01*
X127738095Y-66138571D01*
X127785714Y-66233809D01*
X127785714Y-66471904D01*
X127738095Y-66567142D01*
X127690476Y-66614761D01*
X127595238Y-66662380D01*
X127309523Y-66662380D01*
X127214285Y-66614761D01*
X127166666Y-66567142D01*
%TO.C,C2*%
X71647142Y-94146666D02*
X71694761Y-94194285D01*
X71742380Y-94337142D01*
X71742380Y-94432380D01*
X71694761Y-94575238D01*
X71599523Y-94670476D01*
X71504285Y-94718095D01*
X71313809Y-94765714D01*
X71170952Y-94765714D01*
X70980476Y-94718095D01*
X70885238Y-94670476D01*
X70790000Y-94575238D01*
X70742380Y-94432380D01*
X70742380Y-94337142D01*
X70790000Y-94194285D01*
X70837619Y-94146666D01*
X70837619Y-93765714D02*
X70790000Y-93718095D01*
X70742380Y-93622857D01*
X70742380Y-93384761D01*
X70790000Y-93289523D01*
X70837619Y-93241904D01*
X70932857Y-93194285D01*
X71028095Y-93194285D01*
X71170952Y-93241904D01*
X71742380Y-93813333D01*
X71742380Y-93194285D01*
%TO.C,C1*%
X68413333Y-102127142D02*
X68365714Y-102174761D01*
X68222857Y-102222380D01*
X68127619Y-102222380D01*
X67984761Y-102174761D01*
X67889523Y-102079523D01*
X67841904Y-101984285D01*
X67794285Y-101793809D01*
X67794285Y-101650952D01*
X67841904Y-101460476D01*
X67889523Y-101365238D01*
X67984761Y-101270000D01*
X68127619Y-101222380D01*
X68222857Y-101222380D01*
X68365714Y-101270000D01*
X68413333Y-101317619D01*
X69365714Y-102222380D02*
X68794285Y-102222380D01*
X69080000Y-102222380D02*
X69080000Y-101222380D01*
X68984761Y-101365238D01*
X68889523Y-101460476D01*
X68794285Y-101508095D01*
%TO.C,TP7*%
X102861904Y-66545619D02*
X102290476Y-66545619D01*
X102576190Y-65545619D02*
X102576190Y-66545619D01*
X101957142Y-65545619D02*
X101957142Y-66545619D01*
X101576190Y-66545619D01*
X101480952Y-66498000D01*
X101433333Y-66450380D01*
X101385714Y-66355142D01*
X101385714Y-66212285D01*
X101433333Y-66117047D01*
X101480952Y-66069428D01*
X101576190Y-66021809D01*
X101957142Y-66021809D01*
X101052380Y-66545619D02*
X100385714Y-66545619D01*
X100814285Y-65545619D01*
%TO.C,TP6*%
X113021904Y-66545619D02*
X112450476Y-66545619D01*
X112736190Y-65545619D02*
X112736190Y-66545619D01*
X112117142Y-65545619D02*
X112117142Y-66545619D01*
X111736190Y-66545619D01*
X111640952Y-66498000D01*
X111593333Y-66450380D01*
X111545714Y-66355142D01*
X111545714Y-66212285D01*
X111593333Y-66117047D01*
X111640952Y-66069428D01*
X111736190Y-66021809D01*
X112117142Y-66021809D01*
X110688571Y-66545619D02*
X110879047Y-66545619D01*
X110974285Y-66498000D01*
X111021904Y-66450380D01*
X111117142Y-66307523D01*
X111164761Y-66117047D01*
X111164761Y-65736095D01*
X111117142Y-65640857D01*
X111069523Y-65593238D01*
X110974285Y-65545619D01*
X110783809Y-65545619D01*
X110688571Y-65593238D01*
X110640952Y-65640857D01*
X110593333Y-65736095D01*
X110593333Y-65974190D01*
X110640952Y-66069428D01*
X110688571Y-66117047D01*
X110783809Y-66164666D01*
X110974285Y-66164666D01*
X111069523Y-66117047D01*
X111117142Y-66069428D01*
X111164761Y-65974190D01*
%TO.C,TP5*%
X136654380Y-92701904D02*
X136654380Y-92130476D01*
X137654380Y-92416190D02*
X136654380Y-92416190D01*
X137654380Y-91797142D02*
X136654380Y-91797142D01*
X136654380Y-91416190D01*
X136702000Y-91320952D01*
X136749619Y-91273333D01*
X136844857Y-91225714D01*
X136987714Y-91225714D01*
X137082952Y-91273333D01*
X137130571Y-91320952D01*
X137178190Y-91416190D01*
X137178190Y-91797142D01*
X136654380Y-90320952D02*
X136654380Y-90797142D01*
X137130571Y-90844761D01*
X137082952Y-90797142D01*
X137035333Y-90701904D01*
X137035333Y-90463809D01*
X137082952Y-90368571D01*
X137130571Y-90320952D01*
X137225809Y-90273333D01*
X137463904Y-90273333D01*
X137559142Y-90320952D01*
X137606761Y-90368571D01*
X137654380Y-90463809D01*
X137654380Y-90701904D01*
X137606761Y-90797142D01*
X137559142Y-90844761D01*
%TO.C,TP4*%
X136654380Y-102861904D02*
X136654380Y-102290476D01*
X137654380Y-102576190D02*
X136654380Y-102576190D01*
X137654380Y-101957142D02*
X136654380Y-101957142D01*
X136654380Y-101576190D01*
X136702000Y-101480952D01*
X136749619Y-101433333D01*
X136844857Y-101385714D01*
X136987714Y-101385714D01*
X137082952Y-101433333D01*
X137130571Y-101480952D01*
X137178190Y-101576190D01*
X137178190Y-101957142D01*
X136987714Y-100528571D02*
X137654380Y-100528571D01*
X136606761Y-100766666D02*
X137321047Y-101004761D01*
X137321047Y-100385714D01*
%TO.C,TP3*%
X115578095Y-111254380D02*
X116149523Y-111254380D01*
X115863809Y-112254380D02*
X115863809Y-111254380D01*
X116482857Y-112254380D02*
X116482857Y-111254380D01*
X116863809Y-111254380D01*
X116959047Y-111302000D01*
X117006666Y-111349619D01*
X117054285Y-111444857D01*
X117054285Y-111587714D01*
X117006666Y-111682952D01*
X116959047Y-111730571D01*
X116863809Y-111778190D01*
X116482857Y-111778190D01*
X117387619Y-111254380D02*
X118006666Y-111254380D01*
X117673333Y-111635333D01*
X117816190Y-111635333D01*
X117911428Y-111682952D01*
X117959047Y-111730571D01*
X118006666Y-111825809D01*
X118006666Y-112063904D01*
X117959047Y-112159142D01*
X117911428Y-112206761D01*
X117816190Y-112254380D01*
X117530476Y-112254380D01*
X117435238Y-112206761D01*
X117387619Y-112159142D01*
%TO.C,TP2*%
X105418095Y-111254380D02*
X105989523Y-111254380D01*
X105703809Y-112254380D02*
X105703809Y-111254380D01*
X106322857Y-112254380D02*
X106322857Y-111254380D01*
X106703809Y-111254380D01*
X106799047Y-111302000D01*
X106846666Y-111349619D01*
X106894285Y-111444857D01*
X106894285Y-111587714D01*
X106846666Y-111682952D01*
X106799047Y-111730571D01*
X106703809Y-111778190D01*
X106322857Y-111778190D01*
X107275238Y-111349619D02*
X107322857Y-111302000D01*
X107418095Y-111254380D01*
X107656190Y-111254380D01*
X107751428Y-111302000D01*
X107799047Y-111349619D01*
X107846666Y-111444857D01*
X107846666Y-111540095D01*
X107799047Y-111682952D01*
X107227619Y-112254380D01*
X107846666Y-112254380D01*
%TO.C,TP1*%
X66545619Y-92210095D02*
X66545619Y-92781523D01*
X65545619Y-92495809D02*
X66545619Y-92495809D01*
X65545619Y-93114857D02*
X66545619Y-93114857D01*
X66545619Y-93495809D01*
X66498000Y-93591047D01*
X66450380Y-93638666D01*
X66355142Y-93686285D01*
X66212285Y-93686285D01*
X66117047Y-93638666D01*
X66069428Y-93591047D01*
X66021809Y-93495809D01*
X66021809Y-93114857D01*
X65545619Y-94638666D02*
X65545619Y-94067238D01*
X65545619Y-94352952D02*
X66545619Y-94352952D01*
X66402761Y-94257714D01*
X66307523Y-94162476D01*
X66259904Y-94067238D01*
%TO.C,U1*%
X100756223Y-88270508D02*
X100756223Y-89080032D01*
X100803842Y-89175270D01*
X100851461Y-89222889D01*
X100946699Y-89270508D01*
X101137175Y-89270508D01*
X101232413Y-89222889D01*
X101280032Y-89175270D01*
X101327651Y-89080032D01*
X101327651Y-88270508D01*
X102327651Y-89270508D02*
X101756223Y-89270508D01*
X102041937Y-89270508D02*
X102041937Y-88270508D01*
X101946699Y-88413366D01*
X101851461Y-88508604D01*
X101756223Y-88556223D01*
X97028000Y-83780380D02*
X97028000Y-84018476D01*
X96789904Y-83923238D02*
X97028000Y-84018476D01*
X97266095Y-83923238D01*
X96885142Y-84208952D02*
X97028000Y-84018476D01*
X97170857Y-84208952D01*
%TD*%
M02*
